<svg width="356" height="2271" viewBox="0 0 356 2271" fill="none" xmlns="http://www.w3.org/2000/svg">
<path fill-rule="evenodd" clip-rule="evenodd" d="M178 449.905C276.307 449.905 356 349.191 356 224.953C356 100.715 276.307 0 178 0C79.6934 0 0 100.715 0 224.953C0 349.191 79.6934 449.905 178 449.905ZM178 449.905C79.6934 449.905 0 495.086 0 550.819C0 606.552 79.6934 651.732 178 651.732C276.307 651.732 356 606.552 356 550.819C356 495.086 276.307 449.905 178 449.905ZM356 829.732C356 928.039 276.307 1007.73 178 1007.73C79.6934 1007.73 0 928.039 0 829.732C0 731.426 79.6934 651.732 178 651.732C276.307 651.732 356 731.426 356 829.732ZM178.557 1136.68C276.607 1136.57 356 1107.75 356 1072.21C356 1036.6 276.307 1007.73 178 1007.73C79.6934 1007.73 0 1036.6 0 1072.21C0 1107.75 79.3926 1136.57 177.443 1136.68C79.3926 1136.74 0 1153.66 0 1174.52C0 1195.42 79.6934 1212.36 178 1212.36C276.307 1212.36 356 1195.42 356 1174.52C356 1153.66 276.607 1136.74 178.557 1136.68ZM356 1390.36C356 1488.67 276.307 1568.36 178 1568.36C79.6934 1568.36 0 1488.67 0 1390.36C0 1292.06 79.6934 1212.36 178 1212.36C276.307 1212.36 356 1292.06 356 1390.36ZM178 1568.36C276.307 1568.36 356 1725.55 356 1919.46C356 2113.36 276.307 2270.55 178 2270.55C79.6934 2270.55 0 2113.36 0 1919.46C0 1725.55 79.6934 1568.36 178 1568.36Z" fill="white"/>
</svg>
