<svg width="1343" height="962" viewBox="0 0 1343 962" fill="none" xmlns="http://www.w3.org/2000/svg">
<path fill-rule="evenodd" clip-rule="evenodd" d="M0 222.994V223.357V301.653H178.587L0 480.241L179.757 659.997H0V738.102V743.799H0.0696109C3.02241 864.523 99.5412 961.458 218.175 961.458C336.809 961.458 433.328 864.523 436.281 743.799H436.351V738.102V659.997H256.594L436.351 480.241L257.763 301.653H436.351V223.357V222.994H436.35C436.159 99.804 338.552 0 218.175 0C97.7988 0 0.191907 99.804 0.000282636 222.994H0Z" fill="black"/>
<path fill-rule="evenodd" clip-rule="evenodd" d="M906 223.357C906 100 1003.68 0 1124.18 0C1244.55 0 1342.16 99.804 1342.35 222.994H1342.35V301.653H1163.76L1342.35 480.241L1162.59 659.997H1342.35V743.799H1342.28C1339.33 864.523 1242.81 961.458 1124.18 961.458C1005.54 961.458 909.022 864.523 906.07 743.799H906V738.501C906 738.368 906 738.235 906 738.102H906V659.997H1085.76L906 480.241L1084.59 301.653H906V223.357H906Z" fill="black"/>
<path fill-rule="evenodd" clip-rule="evenodd" d="M457 214.774V214.418H457.356L671.233 0.541199L885.11 214.418H885.466V214.774V291.657H750.38C829.421 323.845 885.323 402.814 885.466 495.168H885.467V495.525V572.406H710.107L885.467 747.766L671.234 961.999L457 747.766L632.36 572.406H457V495.525V495.168H457.001C457.144 402.814 513.046 323.845 592.087 291.657H457V214.774Z" fill="black"/>
</svg>
