<svg width="333" height="361" viewBox="0 0 333 361" fill="none" xmlns="http://www.w3.org/2000/svg">
<path d="M0 83.6806V113.198H67.0526L0 180.215L67.4915 247.671H0V279.118H0.0261362C1.13479 324.421 37.3738 360.797 81.9163 360.797C126.459 360.797 162.698 324.421 163.806 279.118H163.833V247.671H96.341L163.833 180.215L96.7799 113.198H163.833V83.6806C163.761 37.4525 127.113 0 81.9163 0C36.7196 0 0.0719475 37.4525 0 83.6806Z" fill="black"/>
<path d="M171.586 80.4627H171.719L252.022 0.20309L332.324 80.4627H332.458V109.447H281.738C311.415 121.526 332.404 151.16 332.458 185.817L332.458 214.801H266.617L332.458 280.607L252.022 361L171.586 280.607L237.426 214.801H171.586V185.817C171.64 151.16 192.629 121.526 222.305 109.447H171.586V80.4627Z" fill="black"/>
</svg>
