<svg width="894" height="647" viewBox="0 0 894 647" fill="none" xmlns="http://www.w3.org/2000/svg">
<circle cx="62.0859" cy="192.793" r="62.0859" fill="black"/>
<circle cx="217.846" cy="192.793" r="62.0859" fill="black"/>
<circle cx="373.603" cy="192.793" r="62.0859" fill="black"/>
<circle cx="519.56" cy="192.793" r="62.0859" fill="black"/>
<circle cx="675.32" cy="192.793" r="62.0859" fill="black"/>
<circle cx="831.08" cy="192.793" r="62.0859" fill="black"/>
<circle cx="62.0859" cy="62.0859" r="62.0859" fill="black"/>
<circle cx="217.846" cy="62.0859" r="62.0859" fill="black"/>
<circle cx="373.603" cy="62.0859" r="62.0859" fill="black"/>
<circle cx="519.56" cy="62.0859" r="62.0859" fill="black"/>
<circle cx="675.32" cy="62.0859" r="62.0859" fill="black"/>
<circle cx="831.08" cy="62.0859" r="62.0859" fill="black"/>
<circle cx="62.0859" cy="454.207" r="62.0859" fill="black"/>
<circle cx="217.846" cy="454.207" r="62.0859" fill="black"/>
<circle cx="373.603" cy="454.207" r="62.0859" fill="black"/>
<circle cx="519.56" cy="454.207" r="62.0859" fill="black"/>
<circle cx="675.32" cy="454.207" r="62.0859" fill="black"/>
<circle cx="831.08" cy="454.207" r="62.0859" fill="black"/>
<circle cx="62.0859" cy="323.5" r="62.0859" fill="black"/>
<circle cx="217.846" cy="323.5" r="62.0859" fill="black"/>
<circle cx="373.603" cy="323.5" r="62.0859" fill="black"/>
<circle cx="519.56" cy="323.5" r="62.0859" fill="black"/>
<circle cx="675.32" cy="323.5" r="62.0859" fill="black"/>
<circle cx="831.08" cy="323.5" r="62.0859" fill="black"/>
<circle cx="62.0859" cy="584.914" r="62.0859" fill="black"/>
<circle cx="217.846" cy="584.914" r="62.0859" fill="black"/>
<circle cx="373.603" cy="584.914" r="62.0859" fill="black"/>
<circle cx="519.56" cy="584.914" r="62.0859" fill="black"/>
<circle cx="675.32" cy="584.914" r="62.0859" fill="black"/>
<circle cx="831.08" cy="584.914" r="62.0859" fill="black"/>
</svg>
