<svg width="472" height="148" viewBox="0 0 472 148" fill="none" xmlns="http://www.w3.org/2000/svg">
<path d="M470.5 74C470.5 83.5202 464.344 92.8636 452.561 101.599C440.806 110.314 423.7 118.225 402.428 124.895C359.902 138.229 301.061 146.5 236 146.5C170.939 146.5 112.098 138.229 69.5716 124.895C48.2996 118.225 31.1943 110.314 19.4394 101.599C7.65582 92.8636 1.5 83.5202 1.5 74C1.5 64.4798 7.65582 55.1364 19.4394 46.4009C31.1943 37.6865 48.2996 29.7754 69.5716 23.1054C112.098 9.77092 170.939 1.5 236 1.5C301.061 1.5 359.902 9.77092 402.428 23.1054C423.7 29.7754 440.806 37.6865 452.561 46.4009C464.344 55.1364 470.5 64.4798 470.5 74Z" fill="black" stroke="white" stroke-width="3"/>
<path d="M97.2973 63.6099H98.8273V84.6099H97.2973V63.6099ZM83.2573 84.6099H81.7273V63.6099H83.2573V84.6099ZM97.4773 74.6199H83.0773V73.2699H97.4773V74.6199ZM115.635 84.6099V81.0399L115.575 80.4999V74.6199C115.575 73.1599 115.175 72.0499 114.375 71.2899C113.595 70.5299 112.445 70.1499 110.925 70.1499C109.845 70.1499 108.835 70.3399 107.895 70.7199C106.975 71.0799 106.185 71.5499 105.525 72.1299L104.775 71.0499C105.555 70.3499 106.495 69.8099 107.595 69.4299C108.695 69.0299 109.845 68.8299 111.045 68.8299C112.985 68.8299 114.475 69.3199 115.515 70.2999C116.555 71.2799 117.075 72.7399 117.075 74.6799V84.6099H115.635ZM109.995 84.7299C108.835 84.7299 107.825 84.5499 106.965 84.1899C106.125 83.8099 105.475 83.2799 105.015 82.5999C104.575 81.9199 104.355 81.1399 104.355 80.2599C104.355 79.4599 104.535 78.7399 104.895 78.0999C105.275 77.4399 105.895 76.9099 106.755 76.5099C107.615 76.0899 108.765 75.8799 110.205 75.8799H115.965V77.0499H110.235C108.615 77.0499 107.475 77.3499 106.815 77.9499C106.175 78.5499 105.855 79.2999 105.855 80.1999C105.855 81.1999 106.235 81.9999 106.995 82.5999C107.755 83.1999 108.825 83.4999 110.205 83.4999C111.525 83.4999 112.635 83.1999 113.535 82.5999C114.455 81.9999 115.135 81.1299 115.575 79.9899L115.995 81.0099C115.575 82.1499 114.855 83.0599 113.835 83.7399C112.835 84.3999 111.555 84.7299 109.995 84.7299ZM129.5 84.7299C127.98 84.7299 126.62 84.3899 125.42 83.7099C124.24 83.0299 123.3 82.0899 122.6 80.8899C121.92 79.6899 121.58 78.3199 121.58 76.7799C121.58 75.2199 121.92 73.8399 122.6 72.6399C123.3 71.4399 124.24 70.5099 125.42 69.8499C126.62 69.1699 127.98 68.8299 129.5 68.8299C130.76 68.8299 131.9 69.0699 132.92 69.5499C133.96 70.0299 134.8 70.7499 135.44 71.7099L134.33 72.5199C133.77 71.7199 133.07 71.1299 132.23 70.7499C131.39 70.3699 130.48 70.1799 129.5 70.1799C128.28 70.1799 127.18 70.4599 126.2 71.0199C125.24 71.5599 124.48 72.3299 123.92 73.3299C123.38 74.3099 123.11 75.4599 123.11 76.7799C123.11 78.0999 123.38 79.2599 123.92 80.2599C124.48 81.2399 125.24 82.0099 126.2 82.5699C127.18 83.1099 128.28 83.3799 129.5 83.3799C130.48 83.3799 131.39 83.1899 132.23 82.8099C133.07 82.4299 133.77 81.8399 134.33 81.0399L135.44 81.8499C134.8 82.8099 133.96 83.5299 132.92 84.0099C131.9 84.4899 130.76 84.7299 129.5 84.7299ZM136.134 84.5499L136.284 83.2599C136.404 83.2799 136.524 83.3099 136.644 83.3499C136.784 83.3699 136.904 83.3799 137.004 83.3799C137.684 83.3799 138.224 83.1299 138.624 82.6299C139.024 82.1099 139.324 81.4199 139.524 80.5599C139.744 79.6999 139.894 78.7299 139.974 77.6499C140.074 76.5699 140.154 75.4699 140.214 74.3499L140.484 68.9499H151.464V84.6099H149.964V69.8199L150.384 70.2999H141.444L141.834 69.7899L141.594 74.4699C141.514 75.8299 141.404 77.1299 141.264 78.3699C141.124 79.6099 140.914 80.7099 140.634 81.6699C140.354 82.6299 139.954 83.3899 139.434 83.9499C138.914 84.4899 138.244 84.7599 137.424 84.7599C137.224 84.7599 137.014 84.7399 136.794 84.6999C136.594 84.6599 136.374 84.6099 136.134 84.5499ZM167.725 84.6099V81.0399L167.665 80.4999V74.6199C167.665 73.1599 167.265 72.0499 166.465 71.2899C165.685 70.5299 164.535 70.1499 163.015 70.1499C161.935 70.1499 160.925 70.3399 159.985 70.7199C159.065 71.0799 158.275 71.5499 157.615 72.1299L156.865 71.0499C157.645 70.3499 158.585 69.8099 159.685 69.4299C160.785 69.0299 161.935 68.8299 163.135 68.8299C165.075 68.8299 166.565 69.3199 167.605 70.2999C168.645 71.2799 169.165 72.7399 169.165 74.6799V84.6099H167.725ZM162.085 84.7299C160.925 84.7299 159.915 84.5499 159.055 84.1899C158.215 83.8099 157.565 83.2799 157.105 82.5999C156.665 81.9199 156.445 81.1399 156.445 80.2599C156.445 79.4599 156.625 78.7399 156.985 78.0999C157.365 77.4399 157.985 76.9099 158.845 76.5099C159.705 76.0899 160.855 75.8799 162.295 75.8799H168.055V77.0499H162.325C160.705 77.0499 159.565 77.3499 158.905 77.9499C158.265 78.5499 157.945 79.2999 157.945 80.1999C157.945 81.1999 158.325 81.9999 159.085 82.5999C159.845 83.1999 160.915 83.4999 162.295 83.4999C163.615 83.4999 164.725 83.1999 165.625 82.5999C166.545 81.9999 167.225 81.1299 167.665 79.9899L168.085 81.0099C167.665 82.1499 166.945 83.0599 165.925 83.7399C164.925 84.3999 163.645 84.7299 162.085 84.7299ZM185.97 83.8899V70.2999H177.81L177.63 74.1999C177.59 75.2999 177.52 76.3999 177.42 77.4999C177.32 78.5799 177.16 79.5799 176.94 80.4999C176.72 81.3999 176.41 82.1299 176.01 82.6899C175.63 83.2499 175.13 83.5599 174.51 83.6199L173.01 83.2899C173.65 83.3299 174.17 83.0999 174.57 82.5999C174.97 82.0799 175.28 81.3799 175.5 80.4999C175.72 79.6199 175.88 78.6299 175.98 77.5299C176.1 76.4099 176.19 75.2699 176.25 74.1099L176.46 68.9499H187.47V83.8899H185.97ZM172.32 88.5099V83.2899H189.99V88.5099H188.58V84.6099H173.76V88.5099H172.32ZM194.42 84.6099V68.9499H195.92V82.2999L207.08 68.9499H208.4V84.6099H206.9V71.2599L195.74 84.6099H194.42ZM221.199 84.7299C219.679 84.7299 218.319 84.3899 217.119 83.7099C215.939 83.0299 214.999 82.0899 214.299 80.8899C213.619 79.6899 213.279 78.3199 213.279 76.7799C213.279 75.2199 213.619 73.8399 214.299 72.6399C214.999 71.4399 215.939 70.5099 217.119 69.8499C218.319 69.1699 219.679 68.8299 221.199 68.8299C222.459 68.8299 223.599 69.0699 224.619 69.5499C225.659 70.0299 226.499 70.7499 227.139 71.7099L226.029 72.5199C225.469 71.7199 224.769 71.1299 223.929 70.7499C223.089 70.3699 222.179 70.1799 221.199 70.1799C219.979 70.1799 218.879 70.4599 217.899 71.0199C216.939 71.5599 216.179 72.3299 215.619 73.3299C215.079 74.3099 214.809 75.4599 214.809 76.7799C214.809 78.0999 215.079 79.2599 215.619 80.2599C216.179 81.2399 216.939 82.0099 217.899 82.5699C218.879 83.1099 219.979 83.3799 221.199 83.3799C222.179 83.3799 223.089 83.1899 223.929 82.8099C224.769 82.4299 225.469 81.8399 226.029 81.0399L227.139 81.8499C226.499 82.8099 225.659 83.5299 224.619 84.0099C223.599 84.4899 222.459 84.7299 221.199 84.7299ZM237.838 74.6499C239.778 74.6699 241.258 75.0999 242.278 75.9399C243.298 76.7599 243.808 77.9699 243.808 79.5699C243.808 81.2299 243.268 82.4999 242.188 83.3799C241.108 84.2599 239.538 84.6899 237.478 84.6699L231.568 84.6099V68.9499H233.068V74.5899L237.838 74.6499ZM237.448 83.4699C239.048 83.4899 240.248 83.1699 241.048 82.5099C241.868 81.8499 242.278 80.8699 242.278 79.5699C242.278 78.3099 241.878 77.3699 241.078 76.7499C240.278 76.1299 239.068 75.8099 237.448 75.7899L233.068 75.7599V83.4099L237.448 83.4699ZM258.705 84.6099V69.8499L259.125 70.2999H252.585V68.9499H266.325V70.2999H259.785L260.205 69.8499V84.6099H258.705ZM269.537 84.6099V68.9499H271.037V82.2999L282.197 68.9499H283.517V84.6099H282.017V71.2599L270.857 84.6099H269.537ZM300.156 83.2899L299.796 83.7399V68.9499H301.296V83.7399L300.846 83.2899H309.966L309.546 83.7399V68.9499H311.046V84.6099H289.986V68.9499H291.486V83.7399L291.066 83.2899H300.156ZM317.525 84.6099V68.9499H319.025V82.2999L330.185 68.9499H331.505V84.6099H330.005V71.2599L318.845 84.6099H317.525ZM337.974 84.6099V68.9499H339.474V76.0899H350.094V68.9499H351.594V84.6099H350.094V77.4099H339.474V84.6099H337.974ZM364.312 84.7299C362.812 84.7299 361.472 84.3899 360.292 83.7099C359.132 83.0299 358.202 82.0899 357.502 80.8899C356.822 79.6899 356.482 78.3199 356.482 76.7799C356.482 75.2199 356.822 73.8499 357.502 72.6699C358.202 71.4699 359.132 70.5299 360.292 69.8499C361.472 69.1699 362.812 68.8299 364.312 68.8299C365.812 68.8299 367.152 69.1699 368.332 69.8499C369.512 70.5299 370.442 71.4699 371.122 72.6699C371.802 73.8499 372.142 75.2199 372.142 76.7799C372.142 78.3199 371.802 79.6899 371.122 80.8899C370.442 82.0899 369.512 83.0299 368.332 83.7099C367.152 84.3899 365.812 84.7299 364.312 84.7299ZM364.312 83.3799C365.512 83.3799 366.592 83.1099 367.552 82.5699C368.512 82.0099 369.262 81.2299 369.802 80.2299C370.342 79.2299 370.612 78.0799 370.612 76.7799C370.612 75.4599 370.342 74.3099 369.802 73.3299C369.262 72.3299 368.512 71.5599 367.552 71.0199C366.592 70.4599 365.512 70.1799 364.312 70.1799C363.112 70.1799 362.032 70.4599 361.072 71.0199C360.132 71.5599 359.382 72.3299 358.822 73.3299C358.282 74.3099 358.012 75.4599 358.012 76.7799C358.012 78.0799 358.282 79.2299 358.822 80.2299C359.382 81.2299 360.132 82.0099 361.072 82.5699C362.032 83.1099 363.112 83.3799 364.312 83.3799ZM377.027 84.6099V68.9499H378.527V82.2999L389.687 68.9499H391.007V84.6099H389.507V71.2599L378.347 84.6099H377.027ZM383.957 66.5499C382.737 66.5499 381.727 66.2299 380.927 65.5899C380.147 64.9299 379.737 64.0199 379.697 62.8599H380.807C380.847 63.6799 381.157 64.3299 381.737 64.8099C382.337 65.2899 383.077 65.5299 383.957 65.5299C384.837 65.5299 385.567 65.2899 386.147 64.8099C386.747 64.3299 387.057 63.6799 387.077 62.8599H388.217C388.197 64.0199 387.787 64.9299 386.987 65.5899C386.207 66.2299 385.197 66.5499 383.957 66.5499Z" fill="white"/>
</svg>
