<svg width="416" height="130" viewBox="0 0 416 130" fill="none" xmlns="http://www.w3.org/2000/svg">
<rect x="1.5" y="1.5" width="413" height="127" fill="white" stroke="black" stroke-width="3"/>
<path d="M32.78 74V53H47.75V54.35H34.31V61.91H41.42C43.88 61.91 45.75 62.41 47.03 63.41C48.31 64.41 48.95 65.88 48.95 67.82C48.95 69.84 48.27 71.38 46.91 72.44C45.57 73.48 43.6 74 41 74H32.78ZM34.31 72.71H41.03C43.13 72.71 44.72 72.31 45.8 71.51C46.88 70.69 47.42 69.48 47.42 67.88C47.42 64.74 45.29 63.17 41.03 63.17H34.31V72.71ZM60.1597 74.12C58.6597 74.12 57.3197 73.78 56.1397 73.1C54.9797 72.42 54.0497 71.48 53.3497 70.28C52.6697 69.08 52.3297 67.71 52.3297 66.17C52.3297 64.61 52.6697 63.24 53.3497 62.06C54.0497 60.86 54.9797 59.92 56.1397 59.24C57.3197 58.56 58.6597 58.22 60.1597 58.22C61.6597 58.22 62.9997 58.56 64.1797 59.24C65.3597 59.92 66.2897 60.86 66.9697 62.06C67.6497 63.24 67.9897 64.61 67.9897 66.17C67.9897 67.71 67.6497 69.08 66.9697 70.28C66.2897 71.48 65.3597 72.42 64.1797 73.1C62.9997 73.78 61.6597 74.12 60.1597 74.12ZM60.1597 72.77C61.3597 72.77 62.4397 72.5 63.3997 71.96C64.3597 71.4 65.1097 70.62 65.6497 69.62C66.1897 68.62 66.4597 67.47 66.4597 66.17C66.4597 64.85 66.1897 63.7 65.6497 62.72C65.1097 61.72 64.3597 60.95 63.3997 60.41C62.4397 59.85 61.3597 59.57 60.1597 59.57C58.9597 59.57 57.8797 59.85 56.9197 60.41C55.9797 60.95 55.2297 61.72 54.6697 62.72C54.1297 63.7 53.8597 64.85 53.8597 66.17C53.8597 67.47 54.1297 68.62 54.6697 69.62C55.2297 70.62 55.9797 71.4 56.9197 71.96C57.8797 72.5 58.9597 72.77 60.1597 72.77ZM69.7262 73.94L69.8762 72.65C69.9962 72.67 70.1162 72.7 70.2362 72.74C70.3762 72.76 70.4962 72.77 70.5962 72.77C71.2762 72.77 71.8162 72.52 72.2162 72.02C72.6162 71.5 72.9162 70.81 73.1162 69.95C73.3362 69.09 73.4862 68.12 73.5662 67.04C73.6662 65.96 73.7462 64.86 73.8062 63.74L74.0762 58.34H85.0562V74H83.5562V59.21L83.9762 59.69H75.0362L75.4262 59.18L75.1862 63.86C75.1062 65.22 74.9962 66.52 74.8562 67.76C74.7162 69 74.5062 70.1 74.2262 71.06C73.9462 72.02 73.5462 72.78 73.0262 73.34C72.5062 73.88 71.8362 74.15 71.0162 74.15C70.8162 74.15 70.6062 74.13 70.3862 74.09C70.1862 74.05 69.9662 74 69.7262 73.94ZM97.8069 64.04C99.7469 64.06 101.227 64.49 102.247 65.33C103.267 66.15 103.777 67.36 103.777 68.96C103.777 70.62 103.237 71.89 102.157 72.77C101.077 73.65 99.5069 74.08 97.4469 74.06L91.5369 74V58.34H93.0369V63.98L97.8069 64.04ZM97.4169 72.86C99.0169 72.88 100.217 72.56 101.017 71.9C101.837 71.24 102.247 70.26 102.247 68.96C102.247 67.7 101.847 66.76 101.047 66.14C100.247 65.52 99.0369 65.2 97.4169 65.18L93.0369 65.15V72.8L97.4169 72.86ZM118.289 72.68L117.929 73.13V58.34H119.429V73.13L118.979 72.68H128.099L127.679 73.13V58.34H129.179V74H108.119V58.34L109.619 58.34V73.13L109.199 72.68H118.289ZM145.438 74V70.43L145.378 69.89V64.01C145.378 62.55 144.978 61.44 144.178 60.68C143.398 59.92 142.248 59.54 140.728 59.54C139.648 59.54 138.638 59.73 137.698 60.11C136.778 60.47 135.988 60.94 135.328 61.52L134.578 60.44C135.358 59.74 136.298 59.2 137.398 58.82C138.498 58.42 139.648 58.22 140.848 58.22C142.788 58.22 144.278 58.71 145.318 59.69C146.358 60.67 146.878 62.13 146.878 64.07V74H145.438ZM139.798 74.12C138.638 74.12 137.628 73.94 136.768 73.58C135.928 73.2 135.278 72.67 134.818 71.99C134.378 71.31 134.158 70.53 134.158 69.65C134.158 68.85 134.338 68.13 134.698 67.49C135.078 66.83 135.698 66.3 136.558 65.9C137.418 65.48 138.568 65.27 140.008 65.27H145.768V66.44H140.038C138.418 66.44 137.278 66.74 136.618 67.34C135.978 67.94 135.658 68.69 135.658 69.59C135.658 70.59 136.038 71.39 136.798 71.99C137.558 72.59 138.628 72.89 140.008 72.89C141.328 72.89 142.438 72.59 143.338 71.99C144.258 71.39 144.938 70.52 145.378 69.38L145.798 70.4C145.378 71.54 144.658 72.45 143.638 73.13C142.638 73.79 141.358 74.12 139.798 74.12ZM163.142 74V68.24L163.472 68.6H157.922C155.962 68.6 154.432 68.18 153.332 67.34C152.252 66.48 151.712 65.22 151.712 63.56C151.712 61.8 152.302 60.49 153.482 59.63C154.662 58.77 156.222 58.34 158.162 58.34H164.522V74H163.142ZM151.622 74L155.972 67.97H157.562L153.272 74H151.622ZM163.142 67.82V59.21L163.472 59.66H158.252C156.652 59.66 155.412 59.97 154.532 60.59C153.652 61.21 153.212 62.22 153.212 63.62C153.212 66.18 154.832 67.46 158.072 67.46H163.472L163.142 67.82ZM186.585 74.12C185.205 74.12 183.955 73.8 182.835 73.16C181.735 72.52 180.855 71.61 180.195 70.43C179.555 69.23 179.235 67.81 179.235 66.17C179.235 64.53 179.555 63.12 180.195 61.94C180.855 60.74 181.735 59.82 182.835 59.18C183.955 58.54 185.205 58.22 186.585 58.22C188.065 58.22 189.385 58.56 190.545 59.24C191.725 59.9 192.645 60.83 193.305 62.03C193.985 63.23 194.325 64.61 194.325 66.17C194.325 67.73 193.985 69.11 193.305 70.31C192.645 71.51 191.725 72.45 190.545 73.13C189.385 73.79 188.065 74.12 186.585 74.12ZM178.725 79.82V58.34H180.165V63.47L179.925 66.2L180.225 68.93V79.82H178.725ZM186.495 72.77C187.695 72.77 188.775 72.5 189.735 71.96C190.695 71.4 191.445 70.62 191.985 69.62C192.545 68.62 192.825 67.47 192.825 66.17C192.825 64.85 192.545 63.7 191.985 62.72C191.445 61.72 190.695 60.95 189.735 60.41C188.775 59.85 187.695 59.57 186.495 59.57C185.295 59.57 184.215 59.85 183.255 60.41C182.315 60.95 181.565 61.72 181.005 62.72C180.465 63.7 180.195 64.85 180.195 66.17C180.195 67.47 180.465 68.62 181.005 69.62C181.565 70.62 182.315 71.4 183.255 71.96C184.215 72.5 185.295 72.77 186.495 72.77ZM208.924 74V70.43L208.864 69.89V64.01C208.864 62.55 208.464 61.44 207.664 60.68C206.884 59.92 205.734 59.54 204.214 59.54C203.134 59.54 202.124 59.73 201.184 60.11C200.264 60.47 199.474 60.94 198.814 61.52L198.064 60.44C198.844 59.74 199.784 59.2 200.884 58.82C201.984 58.42 203.134 58.22 204.334 58.22C206.274 58.22 207.764 58.71 208.804 59.69C209.844 60.67 210.364 62.13 210.364 64.07V74H208.924ZM203.284 74.12C202.124 74.12 201.114 73.94 200.254 73.58C199.414 73.2 198.764 72.67 198.304 71.99C197.864 71.31 197.644 70.53 197.644 69.65C197.644 68.85 197.824 68.13 198.184 67.49C198.564 66.83 199.184 66.3 200.044 65.9C200.904 65.48 202.054 65.27 203.494 65.27H209.254V66.44H203.524C201.904 66.44 200.764 66.74 200.104 67.34C199.464 67.94 199.144 68.69 199.144 69.59C199.144 70.59 199.524 71.39 200.284 71.99C201.044 72.59 202.114 72.89 203.494 72.89C204.814 72.89 205.924 72.59 206.824 71.99C207.744 71.39 208.424 70.52 208.864 69.38L209.284 70.4C208.864 71.54 208.144 72.45 207.124 73.13C206.124 73.79 204.844 74.12 203.284 74.12ZM222.789 74.12C221.269 74.12 219.909 73.78 218.709 73.1C217.529 72.42 216.589 71.48 215.889 70.28C215.209 69.08 214.869 67.71 214.869 66.17C214.869 64.61 215.209 63.23 215.889 62.03C216.589 60.83 217.529 59.9 218.709 59.24C219.909 58.56 221.269 58.22 222.789 58.22C224.049 58.22 225.189 58.46 226.209 58.94C227.249 59.42 228.089 60.14 228.729 61.1L227.619 61.91C227.059 61.11 226.359 60.52 225.519 60.14C224.679 59.76 223.769 59.57 222.789 59.57C221.569 59.57 220.469 59.85 219.489 60.41C218.529 60.95 217.769 61.72 217.209 62.72C216.669 63.7 216.399 64.85 216.399 66.17C216.399 67.49 216.669 68.65 217.209 69.65C217.769 70.63 218.529 71.4 219.489 71.96C220.469 72.5 221.569 72.77 222.789 72.77C223.769 72.77 224.679 72.58 225.519 72.2C226.359 71.82 227.059 71.23 227.619 70.43L228.729 71.24C228.089 72.2 227.249 72.92 226.209 73.4C225.189 73.88 224.049 74.12 222.789 74.12ZM233.158 74V58.34H246.838V74H245.338V59.24L245.758 59.69H234.238L234.658 59.24V74H233.158ZM261.204 74.12C259.824 74.12 258.574 73.8 257.454 73.16C256.354 72.52 255.474 71.61 254.814 70.43C254.174 69.23 253.854 67.81 253.854 66.17C253.854 64.53 254.174 63.12 254.814 61.94C255.474 60.74 256.354 59.82 257.454 59.18C258.574 58.54 259.824 58.22 261.204 58.22C262.684 58.22 264.004 58.56 265.164 59.24C266.344 59.9 267.264 60.83 267.924 62.03C268.604 63.23 268.944 64.61 268.944 66.17C268.944 67.73 268.604 69.11 267.924 70.31C267.264 71.51 266.344 72.45 265.164 73.13C264.004 73.79 262.684 74.12 261.204 74.12ZM253.344 79.82V58.34H254.784V63.47L254.544 66.2L254.844 68.93V79.82H253.344ZM261.114 72.77C262.314 72.77 263.394 72.5 264.354 71.96C265.314 71.4 266.064 70.62 266.604 69.62C267.164 68.62 267.444 67.47 267.444 66.17C267.444 64.85 267.164 63.7 266.604 62.72C266.064 61.72 265.314 60.95 264.354 60.41C263.394 59.85 262.314 59.57 261.114 59.57C259.914 59.57 258.834 59.85 257.874 60.41C256.934 60.95 256.184 61.72 255.624 62.72C255.084 63.7 254.814 64.85 254.814 66.17C254.814 67.47 255.084 68.62 255.624 69.62C256.184 70.62 256.934 71.4 257.874 71.96C258.834 72.5 259.914 72.77 261.114 72.77ZM280.062 74.12C278.562 74.12 277.222 73.78 276.042 73.1C274.882 72.42 273.952 71.48 273.252 70.28C272.572 69.08 272.232 67.71 272.232 66.17C272.232 64.61 272.572 63.24 273.252 62.06C273.952 60.86 274.882 59.92 276.042 59.24C277.222 58.56 278.562 58.22 280.062 58.22C281.562 58.22 282.902 58.56 284.082 59.24C285.262 59.92 286.192 60.86 286.872 62.06C287.552 63.24 287.892 64.61 287.892 66.17C287.892 67.71 287.552 69.08 286.872 70.28C286.192 71.48 285.262 72.42 284.082 73.1C282.902 73.78 281.562 74.12 280.062 74.12ZM280.062 72.77C281.262 72.77 282.342 72.5 283.302 71.96C284.262 71.4 285.012 70.62 285.552 69.62C286.092 68.62 286.362 67.47 286.362 66.17C286.362 64.85 286.092 63.7 285.552 62.72C285.012 61.72 284.262 60.95 283.302 60.41C282.342 59.85 281.262 59.57 280.062 59.57C278.862 59.57 277.782 59.85 276.822 60.41C275.882 60.95 275.132 61.72 274.572 62.72C274.032 63.7 273.762 64.85 273.762 66.17C273.762 67.47 274.032 68.62 274.572 69.62C275.132 70.62 275.882 71.4 276.822 71.96C277.782 72.5 278.862 72.77 280.062 72.77ZM303.429 73.28V59.69H295.269L295.089 63.59C295.049 64.69 294.979 65.79 294.879 66.89C294.779 67.97 294.619 68.97 294.399 69.89C294.179 70.79 293.869 71.52 293.469 72.08C293.089 72.64 292.589 72.95 291.969 73.01L290.469 72.68C291.109 72.72 291.629 72.49 292.029 71.99C292.429 71.47 292.739 70.77 292.959 69.89C293.179 69.01 293.339 68.02 293.439 66.92C293.559 65.8 293.649 64.66 293.709 63.5L293.919 58.34H304.929V73.28H303.429ZM289.779 77.9V72.68H307.449V77.9H306.039V74H291.219V77.9H289.779ZM321.659 74V70.43L321.599 69.89V64.01C321.599 62.55 321.199 61.44 320.399 60.68C319.619 59.92 318.469 59.54 316.949 59.54C315.869 59.54 314.859 59.73 313.919 60.11C312.999 60.47 312.209 60.94 311.549 61.52L310.799 60.44C311.579 59.74 312.519 59.2 313.619 58.82C314.719 58.42 315.869 58.22 317.069 58.22C319.009 58.22 320.499 58.71 321.539 59.69C322.579 60.67 323.099 62.13 323.099 64.07V74H321.659ZM316.019 74.12C314.859 74.12 313.849 73.94 312.989 73.58C312.149 73.2 311.499 72.67 311.039 71.99C310.599 71.31 310.379 70.53 310.379 69.65C310.379 68.85 310.559 68.13 310.919 67.49C311.299 66.83 311.919 66.3 312.779 65.9C313.639 65.48 314.789 65.27 316.229 65.27H321.989V66.44H316.259C314.639 66.44 313.499 66.74 312.839 67.34C312.199 67.94 311.879 68.69 311.879 69.59C311.879 70.59 312.259 71.39 313.019 71.99C313.779 72.59 314.849 72.89 316.229 72.89C317.549 72.89 318.659 72.59 319.559 71.99C320.479 71.39 321.159 70.52 321.599 69.38L322.019 70.4C321.599 71.54 320.879 72.45 319.859 73.13C318.859 73.79 317.579 74.12 316.019 74.12ZM347.703 74L342.063 66.17L343.323 65.45L349.503 74H347.703ZM338.283 66.74V65.45H343.143V66.74H338.283ZM343.443 66.32L342.033 66.08L347.403 58.34H349.053L343.443 66.32ZM328.413 74H326.583L332.793 65.45L334.053 66.17L328.413 74ZM338.793 74H337.293V58.34H338.793V74ZM337.773 66.74H332.943V65.45H337.773V66.74ZM332.673 66.32L327.063 58.34H328.713L334.083 66.08L332.673 66.32ZM362.879 74V70.43L362.819 69.89V64.01C362.819 62.55 362.419 61.44 361.619 60.68C360.839 59.92 359.689 59.54 358.169 59.54C357.089 59.54 356.079 59.73 355.139 60.11C354.219 60.47 353.429 60.94 352.769 61.52L352.019 60.44C352.799 59.74 353.739 59.2 354.839 58.82C355.939 58.42 357.089 58.22 358.289 58.22C360.229 58.22 361.719 58.71 362.759 59.69C363.799 60.67 364.319 62.13 364.319 64.07V74H362.879ZM357.239 74.12C356.079 74.12 355.069 73.94 354.209 73.58C353.369 73.2 352.719 72.67 352.259 71.99C351.819 71.31 351.599 70.53 351.599 69.65C351.599 68.85 351.779 68.13 352.139 67.49C352.519 66.83 353.139 66.3 353.999 65.9C354.859 65.48 356.009 65.27 357.449 65.27H363.209V66.44H357.479C355.859 66.44 354.719 66.74 354.059 67.34C353.419 67.94 353.099 68.69 353.099 69.59C353.099 70.59 353.479 71.39 354.239 71.99C354.999 72.59 356.069 72.89 357.449 72.89C358.769 72.89 359.879 72.59 360.779 71.99C361.699 71.39 362.379 70.52 362.819 69.38L363.239 70.4C362.819 71.54 362.099 72.45 361.079 73.13C360.079 73.79 358.799 74.12 357.239 74.12Z" fill="black"/>
</svg>
