<svg width="472" height="148" viewBox="0 0 472 148" fill="none" xmlns="http://www.w3.org/2000/svg">
<path d="M470.5 74C470.5 83.5202 464.344 92.8636 452.561 101.599C440.806 110.314 423.7 118.225 402.429 124.895C359.902 138.229 301.061 146.5 236 146.5C170.939 146.5 112.098 138.229 69.5716 124.895C48.2996 118.225 31.1943 110.314 19.4394 101.599C7.65582 92.8636 1.5 83.5202 1.5 74C1.5 64.4798 7.65582 55.1364 19.4394 46.4009C31.1943 37.6865 48.2996 29.7754 69.5716 23.1054C112.098 9.77092 170.939 1.5 236 1.5C301.061 1.5 359.902 9.77092 402.429 23.1054C423.7 29.7754 440.806 37.6865 452.561 46.4009C464.344 55.1364 470.5 64.4798 470.5 74Z" fill="white" stroke="black" stroke-width="3"/>
<path d="M165.952 84.1424C164.392 84.1424 162.942 83.8824 161.602 83.3624C160.282 82.8224 159.122 82.0724 158.122 81.1124C157.142 80.1324 156.382 79.0024 155.842 77.7224C155.302 76.4224 155.032 75.0124 155.032 73.4924C155.032 71.9724 155.302 70.5724 155.842 69.2924C156.382 67.9924 157.142 66.8624 158.122 65.9024C159.122 64.9224 160.282 64.1724 161.602 63.6524C162.942 63.1124 164.392 62.8424 165.952 62.8424C167.512 62.8424 168.952 63.1124 170.272 63.6524C171.612 64.1724 172.772 64.9124 173.752 65.8724C174.732 66.8324 175.492 67.9624 176.032 69.2624C176.592 70.5424 176.872 71.9524 176.872 73.4924C176.872 75.0324 176.592 76.4524 176.032 77.7524C175.492 79.0324 174.732 80.1524 173.752 81.1124C172.772 82.0724 171.612 82.8224 170.272 83.3624C168.952 83.8824 167.512 84.1424 165.952 84.1424ZM165.952 82.7324C167.292 82.7324 168.532 82.5024 169.672 82.0424C170.812 81.5824 171.802 80.9324 172.642 80.0924C173.482 79.2524 174.132 78.2724 174.592 77.1524C175.072 76.0324 175.312 74.8124 175.312 73.4924C175.312 72.1524 175.072 70.9324 174.592 69.8324C174.132 68.7124 173.482 67.7324 172.642 66.8924C171.802 66.0524 170.812 65.4024 169.672 64.9424C168.532 64.4824 167.292 64.2524 165.952 64.2524C164.612 64.2524 163.372 64.4824 162.232 64.9424C161.092 65.4024 160.092 66.0524 159.232 66.8924C158.392 67.7324 157.732 68.7124 157.252 69.8324C156.792 70.9324 156.562 72.1524 156.562 73.4924C156.562 74.8124 156.792 76.0324 157.252 77.1524C157.732 78.2724 158.392 79.2524 159.232 80.0924C160.092 80.9324 161.092 81.5824 162.232 82.0424C163.372 82.5024 164.612 82.7324 165.952 82.7324ZM188.828 84.1424C187.568 84.1424 186.448 83.9224 185.468 83.4824C184.508 83.0424 183.688 82.3924 183.008 81.5324C182.348 80.6724 181.838 79.6124 181.478 78.3524C181.118 77.0724 180.938 75.6024 180.938 73.9424C180.938 72.3224 181.098 70.9324 181.418 69.7724C181.738 68.5924 182.158 67.6024 182.678 66.8024C183.218 65.9824 183.828 65.3124 184.508 64.7924C185.188 64.2724 185.888 63.8624 186.608 63.5624C187.348 63.2424 188.078 63.0024 188.798 62.8424L195.728 61.1924L195.968 62.6024L189.368 64.1324C188.908 64.2524 188.368 64.4124 187.748 64.6124C187.148 64.7924 186.528 65.0824 185.888 65.4824C185.268 65.8624 184.688 66.4024 184.148 67.1024C183.628 67.7824 183.198 68.6624 182.858 69.7424C182.538 70.8224 182.378 72.1624 182.378 73.7624C182.378 74.0624 182.388 74.3024 182.408 74.4824C182.428 74.6624 182.448 74.8624 182.468 75.0824C182.508 75.2824 182.548 75.5824 182.588 75.9824L181.898 75.6224C182.018 74.3024 182.408 73.1424 183.068 72.1424C183.728 71.1424 184.588 70.3624 185.648 69.8024C186.708 69.2424 187.908 68.9624 189.248 68.9624C190.708 68.9624 191.998 69.2824 193.118 69.9224C194.258 70.5424 195.148 71.4224 195.788 72.5624C196.428 73.6824 196.748 74.9824 196.748 76.4624C196.748 77.9424 196.418 79.2624 195.758 80.4224C195.118 81.5824 194.198 82.4924 192.998 83.1524C191.818 83.8124 190.428 84.1424 188.828 84.1424ZM189.068 82.8524C190.268 82.8524 191.328 82.5824 192.248 82.0424C193.188 81.4824 193.918 80.7224 194.438 79.7624C194.958 78.8024 195.218 77.7124 195.218 76.4924C195.218 75.2724 194.958 74.2024 194.438 73.2824C193.918 72.3624 193.188 71.6424 192.248 71.1224C191.328 70.5824 190.258 70.3124 189.038 70.3124C187.838 70.3124 186.768 70.5724 185.828 71.0924C184.908 71.6124 184.188 72.3324 183.668 73.2524C183.148 74.1724 182.888 75.2424 182.888 76.4624C182.888 77.6824 183.148 78.7724 183.668 79.7324C184.208 80.6924 184.938 81.4524 185.858 82.0124C186.798 82.5724 187.868 82.8524 189.068 82.8524ZM201.676 83.9924V68.3324H208.276C209.996 68.3324 211.356 68.6724 212.356 69.3524C213.356 70.0324 213.856 71.0224 213.856 72.3224C213.856 73.6024 213.366 74.5724 212.386 75.2324C211.426 75.8924 210.176 76.2224 208.636 76.2224L209.056 75.7724C210.896 75.7724 212.246 76.1124 213.106 76.7924C213.966 77.4724 214.396 78.4724 214.396 79.7924C214.396 81.1324 213.906 82.1724 212.926 82.9124C211.966 83.6324 210.476 83.9924 208.456 83.9924H201.676ZM203.146 82.7624H208.426C209.886 82.7624 210.996 82.5224 211.756 82.0424C212.516 81.5624 212.896 80.7924 212.896 79.7324C212.896 78.6524 212.556 77.8724 211.876 77.3924C211.216 76.8924 210.146 76.6424 208.666 76.6424H203.146V82.7624ZM203.146 75.4724H208.186C209.506 75.4724 210.526 75.2224 211.246 74.7224C211.986 74.2224 212.356 73.4824 212.356 72.5024C212.356 71.5224 211.986 70.7924 211.246 70.3124C210.526 69.8124 209.506 69.5624 208.186 69.5624H203.146V75.4724ZM229.502 83.9924V80.4224L229.442 79.8824V74.0024C229.442 72.5424 229.042 71.4324 228.242 70.6724C227.462 69.9124 226.312 69.5324 224.792 69.5324C223.712 69.5324 222.702 69.7224 221.762 70.1024C220.842 70.4624 220.052 70.9324 219.392 71.5124L218.642 70.4324C219.422 69.7324 220.362 69.1924 221.462 68.8124C222.562 68.4124 223.712 68.2124 224.912 68.2124C226.852 68.2124 228.342 68.7024 229.382 69.6824C230.422 70.6624 230.942 72.1224 230.942 74.0624V83.9924H229.502ZM223.862 84.1124C222.702 84.1124 221.692 83.9324 220.832 83.5724C219.992 83.1924 219.342 82.6624 218.882 81.9824C218.442 81.3024 218.222 80.5224 218.222 79.6424C218.222 78.8424 218.402 78.1224 218.762 77.4824C219.142 76.8224 219.762 76.2924 220.622 75.8924C221.482 75.4724 222.632 75.2624 224.072 75.2624H229.832V76.4324H224.102C222.482 76.4324 221.342 76.7324 220.682 77.3324C220.042 77.9324 219.722 78.6824 219.722 79.5824C219.722 80.5824 220.102 81.3824 220.862 81.9824C221.622 82.5824 222.692 82.8824 224.072 82.8824C225.392 82.8824 226.502 82.5824 227.402 81.9824C228.322 81.3824 229.002 80.5124 229.442 79.3724L229.862 80.3924C229.442 81.5324 228.722 82.4424 227.702 83.1224C226.702 83.7824 225.422 84.1124 223.862 84.1124ZM233.947 83.9324L234.097 82.6424C234.217 82.6624 234.337 82.6924 234.457 82.7324C234.597 82.7524 234.717 82.7624 234.817 82.7624C235.497 82.7624 236.037 82.5124 236.437 82.0124C236.837 81.4924 237.137 80.8024 237.337 79.9424C237.557 79.0824 237.707 78.1124 237.787 77.0324C237.887 75.9524 237.967 74.8524 238.027 73.7324L238.297 68.3324H249.277V83.9924H247.777V69.2024L248.197 69.6824H239.257L239.647 69.1724L239.407 73.8524C239.327 75.2124 239.217 76.5124 239.077 77.7524C238.937 78.9924 238.727 80.0924 238.447 81.0524C238.167 82.0124 237.767 82.7724 237.247 83.3324C236.727 83.8724 236.057 84.1424 235.237 84.1424C235.037 84.1424 234.827 84.1224 234.607 84.0824C234.407 84.0424 234.187 83.9924 233.947 83.9324ZM263.463 83.9924V68.3324H264.963V82.6724H275.343V68.3324H276.843V83.9924H263.463ZM278.013 87.8924V83.7824L278.433 83.9924H275.343V82.6724H279.453V87.8924H278.013ZM290.304 84.1124C288.724 84.1124 287.324 83.7724 286.104 83.0924C284.904 82.4124 283.954 81.4724 283.254 80.2724C282.574 79.0724 282.234 77.7024 282.234 76.1624C282.234 74.6024 282.554 73.2324 283.194 72.0524C283.854 70.8524 284.754 69.9124 285.894 69.2324C287.034 68.5524 288.314 68.2124 289.734 68.2124C291.154 68.2124 292.424 68.5424 293.544 69.2024C294.684 69.8624 295.574 70.7924 296.214 71.9924C296.874 73.1724 297.204 74.5424 297.204 76.1024C297.204 76.1624 297.194 76.2324 297.174 76.3124C297.174 76.3724 297.174 76.4424 297.174 76.5224H283.344V75.3524H296.364L295.764 75.9224C295.784 74.7024 295.524 73.6124 294.984 72.6524C294.464 71.6724 293.754 70.9124 292.854 70.3724C291.954 69.8124 290.914 69.5324 289.734 69.5324C288.574 69.5324 287.534 69.8124 286.614 70.3724C285.714 70.9124 285.004 71.6724 284.484 72.6524C283.964 73.6124 283.704 74.7124 283.704 75.9524V76.2224C283.704 77.5024 283.984 78.6424 284.544 79.6424C285.124 80.6224 285.914 81.3924 286.914 81.9524C287.914 82.4924 289.054 82.7624 290.334 82.7624C291.334 82.7624 292.264 82.5824 293.124 82.2224C294.004 81.8624 294.744 81.3124 295.344 80.5724L296.214 81.5624C295.534 82.4024 294.674 83.0424 293.634 83.4824C292.614 83.9024 291.504 84.1124 290.304 84.1124ZM302.105 83.9924V68.3324H303.605V75.4724H314.225V68.3324H315.725V83.9924H314.225V76.7924L303.605 76.7924V83.9924H302.105Z" fill="black"/>
</svg>
