<svg width="416" height="130" viewBox="0 0 416 130" fill="none" xmlns="http://www.w3.org/2000/svg">
<rect x="1.5" y="1.5" width="413" height="127" fill="black" stroke="white" stroke-width="3"/>
<path d="M107.15 72.44C108.13 72.82 109.08 72.91 110 72.71C110.92 72.49 111.79 71.74 112.61 70.46L113.63 68.87L113.81 68.63L122.09 53H123.68L113.99 70.82C113.39 71.96 112.68 72.8 111.86 73.34C111.06 73.88 110.21 74.16 109.31 74.18C108.43 74.22 107.55 74.06 106.67 73.7L107.15 72.44ZM113.72 70.1L104.72 53H106.4L114.59 68.75L113.72 70.1ZM132.056 74.12C130.536 74.12 129.176 73.78 127.976 73.1C126.796 72.42 125.856 71.48 125.156 70.28C124.476 69.08 124.136 67.71 124.136 66.17C124.136 64.61 124.476 63.23 125.156 62.03C125.856 60.83 126.796 59.9 127.976 59.24C129.176 58.56 130.536 58.22 132.056 58.22C133.316 58.22 134.456 58.46 135.476 58.94C136.516 59.42 137.356 60.14 137.996 61.1L136.886 61.91C136.326 61.11 135.626 60.52 134.786 60.14C133.946 59.76 133.036 59.57 132.056 59.57C130.836 59.57 129.736 59.85 128.756 60.41C127.796 60.95 127.036 61.72 126.476 62.72C125.936 63.7 125.666 64.85 125.666 66.17C125.666 67.49 125.936 68.65 126.476 69.65C127.036 70.63 127.796 71.4 128.756 71.96C129.736 72.5 130.836 72.77 132.056 72.77C133.036 72.77 133.946 72.58 134.786 72.2C135.626 71.82 136.326 71.23 136.886 70.43L137.996 71.24C137.356 72.2 136.516 72.92 135.476 73.4C134.456 73.88 133.316 74.12 132.056 74.12ZM142.426 74V58.34H156.106V74H154.606V59.24L155.026 59.69H143.506L143.926 59.24V74H142.426ZM169.062 74.12C167.482 74.12 166.082 73.78 164.862 73.1C163.662 72.42 162.712 71.48 162.012 70.28C161.332 69.08 160.992 67.71 160.992 66.17C160.992 64.61 161.312 63.24 161.952 62.06C162.612 60.86 163.512 59.92 164.652 59.24C165.792 58.56 167.072 58.22 168.492 58.22C169.912 58.22 171.182 58.55 172.302 59.21C173.442 59.87 174.332 60.8 174.972 62C175.632 63.18 175.962 64.55 175.962 66.11C175.962 66.17 175.952 66.24 175.932 66.32C175.932 66.38 175.932 66.45 175.932 66.53H162.102V65.36H175.122L174.522 65.93C174.542 64.71 174.282 63.62 173.742 62.66C173.222 61.68 172.512 60.92 171.612 60.38C170.712 59.82 169.672 59.54 168.492 59.54C167.332 59.54 166.292 59.82 165.372 60.38C164.472 60.92 163.762 61.68 163.242 62.66C162.722 63.62 162.462 64.72 162.462 65.96V66.23C162.462 67.51 162.742 68.65 163.302 69.65C163.882 70.63 164.672 71.4 165.672 71.96C166.672 72.5 167.812 72.77 169.092 72.77C170.092 72.77 171.022 72.59 171.882 72.23C172.762 71.87 173.502 71.32 174.102 70.58L174.972 71.57C174.292 72.41 173.432 73.05 172.392 73.49C171.372 73.91 170.262 74.12 169.062 74.12ZM180.863 74V58.34H182.363V71.69L193.523 58.34H194.843V74H193.343V60.65L182.183 74H180.863ZM187.793 55.94C186.573 55.94 185.563 55.62 184.763 54.98C183.983 54.32 183.573 53.41 183.533 52.25H184.643C184.683 53.07 184.993 53.72 185.573 54.2C186.173 54.68 186.913 54.92 187.793 54.92C188.673 54.92 189.403 54.68 189.983 54.2C190.583 53.72 190.893 53.07 190.913 52.25H192.053C192.033 53.41 191.623 54.32 190.823 54.98C190.043 55.62 189.033 55.94 187.793 55.94ZM220.567 74L213.847 66.17L215.107 65.45L222.367 74H220.567ZM209.017 74V58.34H210.517V74H209.017ZM210.037 66.74V65.45H214.957V66.74H210.037ZM215.197 66.32L213.817 66.08L220.237 58.34H221.887L215.197 66.32ZM224.98 79.94C224.26 79.94 223.58 79.82 222.94 79.58C222.32 79.34 221.79 78.99 221.35 78.53L222.1 77.39C222.5 77.81 222.93 78.12 223.39 78.32C223.87 78.52 224.41 78.62 225.01 78.62C225.73 78.62 226.36 78.42 226.9 78.02C227.46 77.62 227.98 76.89 228.46 75.83L229.54 73.43L229.75 73.16L236.38 58.34H237.91L229.87 76.13C229.45 77.09 228.99 77.84 228.49 78.38C228.01 78.94 227.48 79.34 226.9 79.58C226.32 79.82 225.68 79.94 224.98 79.94ZM229.51 74.39L222.25 58.34H223.84L230.44 73.07L229.51 74.39ZM241.537 74V58.34H255.217V74H253.717V59.24L254.137 59.69H242.617L243.037 59.24V74H241.537ZM261.693 74V58.34H263.193V71.69L274.353 58.34H275.673V74H274.173V60.65L263.013 74H261.693ZM284.992 74V59.24L285.412 59.69L278.872 59.69V58.34L292.612 58.34V59.69H286.072L286.492 59.24V74H284.992ZM302.094 64.04C304.034 64.06 305.514 64.49 306.534 65.33C307.554 66.15 308.064 67.36 308.064 68.96C308.064 70.62 307.524 71.89 306.444 72.77C305.364 73.65 303.794 74.08 301.734 74.06L295.824 74V58.34H297.324V63.98L302.094 64.04ZM301.704 72.86C303.304 72.88 304.504 72.56 305.304 71.9C306.124 71.24 306.534 70.26 306.534 68.96C306.534 67.7 306.134 66.76 305.334 66.14C304.534 65.52 303.324 65.2 301.704 65.18L297.324 65.15V72.8L301.704 72.86Z" fill="white"/>
</svg>
