<svg width="416" height="130" viewBox="0 0 416 130" fill="none" xmlns="http://www.w3.org/2000/svg">
<rect x="1.5" y="1.5" width="413" height="127" fill="black" stroke="white" stroke-width="3"/>
<path d="M102.78 74.15C101.22 74.15 99.77 73.89 98.43 73.37C97.11 72.83 95.96 72.08 94.98 71.12C94 70.16 93.24 69.04 92.7 67.76C92.16 66.46 91.89 65.04 91.89 63.5C91.89 61.96 92.16 60.55 92.7 59.27C93.24 57.97 94 56.84 94.98 55.88C95.98 54.92 97.14 54.18 98.46 53.66C99.78 53.12 101.22 52.85 102.78 52.85C104.26 52.85 105.64 53.09 106.92 53.57C108.22 54.05 109.33 54.78 110.25 55.76L109.29 56.75C108.39 55.87 107.39 55.24 106.29 54.86C105.21 54.46 104.06 54.26 102.84 54.26C101.5 54.26 100.25 54.49 99.09 54.95C97.95 55.41 96.95 56.06 96.09 56.9C95.25 57.74 94.59 58.72 94.11 59.84C93.65 60.96 93.42 62.18 93.42 63.5C93.42 64.82 93.65 66.04 94.11 67.16C94.59 68.28 95.25 69.26 96.09 70.1C96.95 70.94 97.95 71.59 99.09 72.05C100.25 72.51 101.5 72.74 102.84 72.74C104.06 72.74 105.21 72.55 106.29 72.17C107.39 71.77 108.39 71.12 109.29 70.22L110.25 71.21C109.33 72.19 108.22 72.93 106.92 73.43C105.64 73.91 104.26 74.15 102.78 74.15ZM126.206 74L119.486 66.17L120.746 65.45L128.006 74H126.206ZM114.656 74V58.34H116.156V74H114.656ZM115.676 66.74V65.45H120.596V66.74H115.676ZM120.836 66.32L119.456 66.08L125.876 58.34H127.526L120.836 66.32ZM131.707 74V58.34H133.207V71.69L144.367 58.34H145.687V74H144.187V60.65L133.027 74H131.707ZM162.866 73.28V59.69H154.706L154.526 63.59C154.486 64.69 154.416 65.79 154.316 66.89C154.216 67.97 154.056 68.97 153.836 69.89C153.616 70.79 153.306 71.52 152.906 72.08C152.526 72.64 152.026 72.95 151.406 73.01L149.906 72.68C150.546 72.72 151.066 72.49 151.466 71.99C151.866 71.47 152.176 70.77 152.396 69.89C152.616 69.01 152.776 68.02 152.876 66.92C152.996 65.8 153.086 64.66 153.146 63.5L153.356 58.34H164.366V73.28H162.866ZM149.216 77.9V72.68H166.886V77.9H165.476V74H150.656V77.9H149.216ZM182.866 74L176.146 66.17L177.406 65.45L184.666 74H182.866ZM171.316 74V58.34H172.816V74H171.316ZM172.336 66.74V65.45H177.256V66.74H172.336ZM177.496 66.32L176.116 66.08L182.536 58.34H184.186L177.496 66.32ZM188.367 74V58.34H189.867V71.69L201.027 58.34H202.347V74H200.847V60.65L189.687 74H188.367ZM227.231 73.28V59.69H219.071L218.891 63.59C218.851 64.69 218.781 65.79 218.681 66.89C218.581 67.97 218.421 68.97 218.201 69.89C217.981 70.79 217.671 71.52 217.271 72.08C216.891 72.64 216.391 72.95 215.771 73.01L214.271 72.68C214.911 72.72 215.431 72.49 215.831 71.99C216.231 71.47 216.541 70.77 216.761 69.89C216.981 69.01 217.141 68.02 217.241 66.92C217.361 65.8 217.451 64.66 217.511 63.5L217.721 58.34H228.731V73.28H227.231ZM213.581 77.9V72.68H231.251V77.9H229.841V74H215.021V77.9H213.581ZM241.921 74.12C240.421 74.12 239.081 73.78 237.901 73.1C236.741 72.42 235.811 71.48 235.111 70.28C234.431 69.08 234.091 67.71 234.091 66.17C234.091 64.61 234.431 63.24 235.111 62.06C235.811 60.86 236.741 59.92 237.901 59.24C239.081 58.56 240.421 58.22 241.921 58.22C243.421 58.22 244.761 58.56 245.941 59.24C247.121 59.92 248.051 60.86 248.731 62.06C249.411 63.24 249.751 64.61 249.751 66.17C249.751 67.71 249.411 69.08 248.731 70.28C248.051 71.48 247.121 72.42 245.941 73.1C244.761 73.78 243.421 74.12 241.921 74.12ZM241.921 72.77C243.121 72.77 244.201 72.5 245.161 71.96C246.121 71.4 246.871 70.62 247.411 69.62C247.951 68.62 248.221 67.47 248.221 66.17C248.221 64.85 247.951 63.7 247.411 62.72C246.871 61.72 246.121 60.95 245.161 60.41C244.201 59.85 243.121 59.57 241.921 59.57C240.721 59.57 239.641 59.85 238.681 60.41C237.741 60.95 236.991 61.72 236.431 62.72C235.891 63.7 235.621 64.85 235.621 66.17C235.621 67.47 235.891 68.62 236.431 69.62C236.991 70.62 237.741 71.4 238.681 71.96C239.641 72.5 240.721 72.77 241.921 72.77ZM269.182 74.15C267.342 74.15 265.792 73.73 264.532 72.89C263.292 72.05 262.352 70.84 261.712 69.26C261.072 67.68 260.752 65.8 260.752 63.62C260.752 61.24 261.142 59.26 261.922 57.68C262.702 56.08 263.792 54.88 265.192 54.08C266.592 53.26 268.222 52.85 270.082 52.85C270.982 52.85 271.842 52.93 272.662 53.09C273.482 53.25 274.212 53.53 274.852 53.93L274.222 55.16C273.682 54.82 273.052 54.58 272.332 54.44C271.632 54.28 270.882 54.2 270.082 54.2C267.722 54.2 265.832 54.97 264.412 56.51C262.992 58.03 262.282 60.32 262.282 63.38C262.282 63.84 262.312 64.43 262.372 65.15C262.432 65.85 262.562 66.54 262.762 67.22L262.222 67.07C262.362 65.91 262.752 64.92 263.392 64.1C264.032 63.28 264.852 62.66 265.852 62.24C266.852 61.8 267.952 61.58 269.152 61.58C270.552 61.58 271.772 61.84 272.812 62.36C273.872 62.86 274.692 63.58 275.272 64.52C275.872 65.46 276.172 66.56 276.172 67.82C276.172 69.1 275.862 70.22 275.242 71.18C274.642 72.12 273.812 72.85 272.752 73.37C271.712 73.89 270.522 74.15 269.182 74.15ZM269.122 72.83C270.222 72.83 271.182 72.63 272.002 72.23C272.822 71.81 273.462 71.23 273.922 70.49C274.402 69.73 274.642 68.85 274.642 67.85C274.642 66.35 274.132 65.15 273.112 64.25C272.112 63.35 270.722 62.9 268.942 62.9C267.802 62.9 266.792 63.12 265.912 63.56C265.032 64 264.342 64.6 263.842 65.36C263.362 66.12 263.122 66.97 263.122 67.91C263.122 68.73 263.352 69.52 263.812 70.28C264.272 71.02 264.942 71.63 265.822 72.11C266.722 72.59 267.822 72.83 269.122 72.83ZM287.018 74.15C285.418 74.15 283.998 73.72 282.758 72.86C281.518 72 280.548 70.78 279.848 69.2C279.148 67.6 278.798 65.7 278.798 63.5C278.798 61.3 279.148 59.41 279.848 57.83C280.548 56.23 281.518 55 282.758 54.14C283.998 53.28 285.418 52.85 287.018 52.85C288.638 52.85 290.058 53.28 291.278 54.14C292.518 55 293.488 56.23 294.188 57.83C294.888 59.41 295.238 61.3 295.238 63.5C295.238 65.7 294.888 67.6 294.188 69.2C293.488 70.78 292.518 72 291.278 72.86C290.058 73.72 288.638 74.15 287.018 74.15ZM287.018 72.74C288.358 72.74 289.528 72.38 290.528 71.66C291.528 70.92 292.308 69.86 292.868 68.48C293.428 67.1 293.708 65.44 293.708 63.5C293.708 61.54 293.428 59.88 292.868 58.52C292.308 57.14 291.528 56.09 290.528 55.37C289.528 54.63 288.358 54.26 287.018 54.26C285.698 54.26 284.528 54.63 283.508 55.37C282.508 56.09 281.728 57.14 281.168 58.52C280.608 59.88 280.328 61.54 280.328 63.5C280.328 65.44 280.608 67.1 281.168 68.48C281.728 69.86 282.508 70.92 283.508 71.66C284.528 72.38 285.698 72.74 287.018 72.74ZM301.335 74L315.675 53H316.965L302.625 74H301.335ZM302.865 64.22C301.965 64.22 301.165 63.99 300.465 63.53C299.765 63.05 299.215 62.39 298.815 61.55C298.435 60.69 298.245 59.69 298.245 58.55C298.245 57.41 298.435 56.42 298.815 55.58C299.215 54.72 299.765 54.06 300.465 53.6C301.165 53.12 301.965 52.88 302.865 52.88C303.785 52.88 304.595 53.12 305.295 53.6C305.995 54.06 306.535 54.72 306.915 55.58C307.315 56.42 307.515 57.41 307.515 58.55C307.515 59.69 307.315 60.69 306.915 61.55C306.535 62.39 305.995 63.05 305.295 63.53C304.595 63.99 303.785 64.22 302.865 64.22ZM302.865 63.2C303.925 63.2 304.775 62.79 305.415 61.97C306.055 61.15 306.375 60.01 306.375 58.55C306.375 57.09 306.055 55.95 305.415 55.13C304.775 54.31 303.925 53.9 302.865 53.9C301.825 53.9 300.985 54.31 300.345 55.13C299.705 55.95 299.385 57.09 299.385 58.55C299.385 59.99 299.705 61.13 300.345 61.97C300.985 62.79 301.825 63.2 302.865 63.2ZM315.435 74.12C314.535 74.12 313.725 73.89 313.005 73.43C312.305 72.95 311.755 72.29 311.355 71.45C310.975 70.59 310.785 69.59 310.785 68.45C310.785 67.31 310.975 66.32 311.355 65.48C311.755 64.62 312.305 63.96 313.005 63.5C313.725 63.02 314.535 62.78 315.435 62.78C316.355 62.78 317.155 63.02 317.835 63.5C318.535 63.96 319.075 64.62 319.455 65.48C319.855 66.32 320.055 67.31 320.055 68.45C320.055 69.59 319.855 70.59 319.455 71.45C319.075 72.29 318.535 72.95 317.835 73.43C317.155 73.89 316.355 74.12 315.435 74.12ZM315.435 73.1C316.475 73.1 317.315 72.69 317.955 71.87C318.595 71.03 318.915 69.89 318.915 68.45C318.915 67.01 318.595 65.88 317.955 65.06C317.315 64.22 316.475 63.8 315.435 63.8C314.375 63.8 313.525 64.21 312.885 65.03C312.245 65.85 311.925 66.99 311.925 68.45C311.925 69.91 312.245 71.05 312.885 71.87C313.525 72.69 314.375 73.1 315.435 73.1Z" fill="white"/>
</svg>
