<svg width="472" height="148" viewBox="0 0 472 148" fill="none" xmlns="http://www.w3.org/2000/svg">
<path d="M470.5 74C470.5 83.5202 464.344 92.8636 452.561 101.599C440.806 110.314 423.7 118.225 402.428 124.895C359.902 138.229 301.061 146.5 236 146.5C170.939 146.5 112.098 138.229 69.5716 124.895C48.2996 118.225 31.1943 110.314 19.4394 101.599C7.65582 92.8636 1.5 83.5202 1.5 74C1.5 64.4798 7.65582 55.1364 19.4394 46.4009C31.1943 37.6865 48.2996 29.7754 69.5716 23.1054C112.098 9.77092 170.939 1.5 236 1.5C301.061 1.5 359.902 9.77092 402.428 23.1054C423.7 29.7754 440.806 37.6865 452.561 46.4009C464.344 55.1364 470.5 64.4798 470.5 74Z" fill="white" stroke="black" stroke-width="3"/>
<path d="M133.061 62.876H134.591V83.876H133.061V62.876ZM119.021 83.876H117.491V62.876H119.021V83.876ZM133.241 73.886H118.841V72.536H133.241V73.886ZM148.099 83.996C146.519 83.996 145.119 83.656 143.899 82.976C142.699 82.296 141.749 81.356 141.049 80.156C140.369 78.956 140.029 77.586 140.029 76.046C140.029 74.486 140.349 73.116 140.989 71.936C141.649 70.736 142.549 69.796 143.689 69.116C144.829 68.436 146.109 68.096 147.529 68.096C148.949 68.096 150.219 68.426 151.339 69.086C152.479 69.746 153.369 70.676 154.009 71.876C154.669 73.056 154.999 74.426 154.999 75.986C154.999 76.046 154.989 76.116 154.969 76.196C154.969 76.256 154.969 76.326 154.969 76.406H141.139V75.236H154.159L153.559 75.806C153.579 74.586 153.319 73.496 152.779 72.536C152.259 71.556 151.549 70.796 150.649 70.256C149.749 69.696 148.709 69.416 147.529 69.416C146.369 69.416 145.329 69.696 144.409 70.256C143.509 70.796 142.799 71.556 142.279 72.536C141.759 73.496 141.499 74.596 141.499 75.836V76.106C141.499 77.386 141.779 78.526 142.339 79.526C142.919 80.506 143.709 81.276 144.709 81.836C145.709 82.376 146.849 82.646 148.129 82.646C149.129 82.646 150.059 82.466 150.919 82.106C151.799 81.746 152.539 81.196 153.139 80.456L154.009 81.446C153.329 82.286 152.469 82.926 151.429 83.366C150.409 83.786 149.299 83.996 148.099 83.996ZM167.425 89.816C166.705 89.816 166.025 89.696 165.385 89.456C164.765 89.216 164.235 88.866 163.795 88.406L164.545 87.266C164.945 87.686 165.375 87.996 165.835 88.196C166.315 88.396 166.855 88.496 167.455 88.496C168.175 88.496 168.805 88.296 169.345 87.896C169.905 87.496 170.425 86.766 170.905 85.706L171.985 83.306L172.195 83.036L178.825 68.216H180.355L172.315 86.006C171.895 86.966 171.435 87.716 170.935 88.256C170.455 88.816 169.925 89.216 169.345 89.456C168.765 89.696 168.125 89.816 167.425 89.816ZM171.955 84.266L164.695 68.216H166.285L172.885 82.946L171.955 84.266ZM183.982 83.876V68.216H197.662V83.876H196.162V69.116L196.582 69.566H185.062L185.482 69.116V83.876H183.982ZM203.958 89.816C203.238 89.816 202.558 89.696 201.918 89.456C201.298 89.216 200.768 88.866 200.328 88.406L201.078 87.266C201.478 87.686 201.908 87.996 202.368 88.196C202.848 88.396 203.388 88.496 203.988 88.496C204.708 88.496 205.338 88.296 205.878 87.896C206.438 87.496 206.958 86.766 207.438 85.706L208.518 83.306L208.728 83.036L215.358 68.216H216.888L208.848 86.006C208.428 86.966 207.968 87.716 207.468 88.256C206.988 88.816 206.458 89.216 205.878 89.456C205.298 89.696 204.658 89.816 203.958 89.816ZM208.488 84.266L201.228 68.216H202.818L209.418 82.946L208.488 84.266ZM226.406 83.996C224.886 83.996 223.526 83.656 222.326 82.976C221.146 82.296 220.206 81.356 219.506 80.156C218.826 78.956 218.486 77.586 218.486 76.046C218.486 74.486 218.826 73.106 219.506 71.906C220.206 70.706 221.146 69.776 222.326 69.116C223.526 68.436 224.886 68.096 226.406 68.096C227.666 68.096 228.806 68.336 229.826 68.816C230.866 69.296 231.706 70.016 232.346 70.976L231.236 71.786C230.676 70.986 229.976 70.396 229.136 70.016C228.296 69.636 227.386 69.446 226.406 69.446C225.186 69.446 224.086 69.726 223.106 70.286C222.146 70.826 221.386 71.596 220.826 72.596C220.286 73.576 220.016 74.726 220.016 76.046C220.016 77.366 220.286 78.526 220.826 79.526C221.386 80.506 222.146 81.276 223.106 81.836C224.086 82.376 225.186 82.646 226.406 82.646C227.386 82.646 228.296 82.456 229.136 82.076C229.976 81.696 230.676 81.106 231.236 80.306L232.346 81.116C231.706 82.076 230.866 82.796 229.826 83.276C228.806 83.756 227.666 83.996 226.406 83.996ZM239.274 83.876V69.116L239.694 69.566H233.154V68.216H246.894V69.566H240.354L240.774 69.116V83.876H239.274ZM250.105 83.876V68.216H251.605V81.566L262.765 68.216H264.085V83.876H262.585V70.526L251.425 83.876H250.105ZM288.43 82.556L288.07 83.006V68.216H289.57V83.006L289.12 82.556H298.24L297.82 83.006V68.216H299.32V83.876H278.26V68.216H279.76V83.006L279.34 82.556H288.43ZM315.579 83.876V80.306L315.519 79.766V73.886C315.519 72.426 315.119 71.316 314.319 70.556C313.539 69.796 312.389 69.416 310.869 69.416C309.789 69.416 308.779 69.606 307.839 69.986C306.919 70.346 306.129 70.816 305.469 71.396L304.719 70.316C305.499 69.616 306.439 69.076 307.539 68.696C308.639 68.296 309.789 68.096 310.989 68.096C312.929 68.096 314.419 68.586 315.459 69.566C316.499 70.546 317.019 72.006 317.019 73.946V83.876H315.579ZM309.939 83.996C308.779 83.996 307.769 83.816 306.909 83.456C306.069 83.076 305.419 82.546 304.959 81.866C304.519 81.186 304.299 80.406 304.299 79.526C304.299 78.726 304.479 78.006 304.839 77.366C305.219 76.706 305.839 76.176 306.699 75.776C307.559 75.356 308.709 75.146 310.149 75.146H315.909V76.316H310.179C308.559 76.316 307.419 76.616 306.759 77.216C306.119 77.816 305.799 78.566 305.799 79.466C305.799 80.466 306.179 81.266 306.939 81.866C307.699 82.466 308.769 82.766 310.149 82.766C311.469 82.766 312.579 82.466 313.479 81.866C314.399 81.266 315.079 80.396 315.519 79.256L315.939 80.276C315.519 81.416 314.799 82.326 313.779 83.006C312.779 83.666 311.499 83.996 309.939 83.996ZM323.113 83.876V68.216H324.613V75.356H335.233V68.216H336.733V83.876H335.233V76.676H324.613V83.876H323.113ZM349.541 83.996C348.021 83.996 346.661 83.656 345.461 82.976C344.281 82.296 343.341 81.356 342.641 80.156C341.961 78.956 341.621 77.586 341.621 76.046C341.621 74.486 341.961 73.106 342.641 71.906C343.341 70.706 344.281 69.776 345.461 69.116C346.661 68.436 348.021 68.096 349.541 68.096C350.801 68.096 351.941 68.336 352.961 68.816C354.001 69.296 354.841 70.016 355.481 70.976L354.371 71.786C353.811 70.986 353.111 70.396 352.271 70.016C351.431 69.636 350.521 69.446 349.541 69.446C348.321 69.446 347.221 69.726 346.241 70.286C345.281 70.826 344.521 71.596 343.961 72.596C343.421 73.576 343.151 74.726 343.151 76.046C343.151 77.366 343.421 78.526 343.961 79.526C344.521 80.506 345.281 81.276 346.241 81.836C347.221 82.376 348.321 82.646 349.541 82.646C350.521 82.646 351.431 82.456 352.271 82.076C353.111 81.696 353.811 81.106 354.371 80.306L355.481 81.116C354.841 82.076 354.001 82.796 352.961 83.276C351.941 83.756 350.801 83.996 349.541 83.996Z" fill="black"/>
</svg>
