<svg width="545" height="548" viewBox="0 0 545 548" fill="none" xmlns="http://www.w3.org/2000/svg">
<ellipse cx="31.6189" cy="31.6189" rx="31.6189" ry="31.6189" fill="white"/>
<ellipse cx="100.465" cy="31.6189" rx="31.6189" ry="31.6189" fill="white"/>
<ellipse cx="169.308" cy="31.6189" rx="31.6189" ry="31.6189" fill="white"/>
<ellipse cx="238.162" cy="31.6189" rx="31.6189" ry="31.6189" fill="white"/>
<ellipse cx="31.6189" cy="100.976" rx="31.6189" ry="31.6189" fill="white"/>
<ellipse cx="100.465" cy="100.976" rx="31.6189" ry="31.6189" fill="white"/>
<ellipse cx="169.308" cy="100.976" rx="31.6189" ry="31.6189" fill="white"/>
<ellipse cx="238.162" cy="100.976" rx="31.6189" ry="31.6189" fill="white"/>
<ellipse cx="31.6189" cy="170.334" rx="31.6189" ry="31.6189" fill="white"/>
<ellipse cx="100.465" cy="170.334" rx="31.6189" ry="31.6189" fill="white"/>
<ellipse cx="169.308" cy="170.334" rx="31.6189" ry="31.6189" fill="white"/>
<ellipse cx="238.162" cy="170.334" rx="31.6189" ry="31.6189" fill="white"/>
<ellipse cx="31.6189" cy="239.691" rx="31.6189" ry="31.6189" fill="white"/>
<ellipse cx="100.465" cy="239.691" rx="31.6189" ry="31.6189" fill="white"/>
<ellipse cx="169.308" cy="239.691" rx="31.6189" ry="31.6189" fill="white"/>
<ellipse cx="238.162" cy="239.691" rx="31.6189" ry="31.6189" fill="white"/>
<ellipse cx="31.6189" cy="307.927" rx="31.6189" ry="31.6189" fill="white"/>
<ellipse cx="100.465" cy="307.927" rx="31.6189" ry="31.6189" fill="white"/>
<ellipse cx="169.308" cy="307.927" rx="31.6189" ry="31.6189" fill="white"/>
<ellipse cx="238.162" cy="307.927" rx="31.6189" ry="31.6189" fill="white"/>
<ellipse cx="31.6189" cy="377.284" rx="31.6189" ry="31.6189" fill="white"/>
<ellipse cx="100.465" cy="377.284" rx="31.6189" ry="31.6189" fill="white"/>
<ellipse cx="169.308" cy="377.284" rx="31.6189" ry="31.6189" fill="white"/>
<ellipse cx="238.162" cy="377.284" rx="31.6189" ry="31.6189" fill="white"/>
<ellipse cx="31.6189" cy="446.642" rx="31.6189" ry="31.6189" fill="white"/>
<ellipse cx="100.465" cy="446.642" rx="31.6189" ry="31.6189" fill="white"/>
<ellipse cx="169.308" cy="446.642" rx="31.6189" ry="31.6189" fill="white"/>
<ellipse cx="238.162" cy="446.642" rx="31.6189" ry="31.6189" fill="white"/>
<ellipse cx="31.6189" cy="516" rx="31.6189" ry="31.6189" fill="white"/>
<ellipse cx="100.465" cy="516" rx="31.6189" ry="31.6189" fill="white"/>
<ellipse cx="169.308" cy="516" rx="31.6189" ry="31.6189" fill="white"/>
<ellipse cx="238.162" cy="516" rx="31.6189" ry="31.6189" fill="white"/>
<ellipse cx="306.832" cy="307.927" rx="31.6189" ry="31.6189" fill="white"/>
<ellipse cx="375.677" cy="307.927" rx="31.6189" ry="31.6189" fill="white"/>
<ellipse cx="444.521" cy="307.927" rx="31.6189" ry="31.6189" fill="white"/>
<ellipse cx="513.375" cy="307.927" rx="31.6189" ry="31.6189" fill="white"/>
<ellipse cx="306.832" cy="377.284" rx="31.6189" ry="31.6189" fill="white"/>
<ellipse cx="375.677" cy="377.284" rx="31.6189" ry="31.6189" fill="white"/>
<ellipse cx="444.521" cy="377.284" rx="31.6189" ry="31.6189" fill="white"/>
<ellipse cx="513.375" cy="377.284" rx="31.6189" ry="31.6189" fill="white"/>
<ellipse cx="306.832" cy="446.641" rx="31.6189" ry="31.6189" fill="white"/>
<ellipse cx="375.677" cy="446.641" rx="31.6189" ry="31.6189" fill="white"/>
<ellipse cx="444.521" cy="446.641" rx="31.6189" ry="31.6189" fill="white"/>
<ellipse cx="513.375" cy="446.641" rx="31.6189" ry="31.6189" fill="white"/>
<ellipse cx="306.832" cy="516" rx="31.6189" ry="31.6189" fill="white"/>
<ellipse cx="375.677" cy="516" rx="31.6189" ry="31.6189" fill="white"/>
<ellipse cx="444.521" cy="516" rx="31.6189" ry="31.6189" fill="white"/>
<ellipse cx="513.375" cy="516" rx="31.6189" ry="31.6189" fill="white"/>
<ellipse cx="306.832" cy="31.6201" rx="31.6189" ry="31.6189" fill="white"/>
<ellipse cx="375.677" cy="31.6201" rx="31.6189" ry="31.6189" fill="white"/>
<ellipse cx="444.521" cy="31.6201" rx="31.6189" ry="31.6189" fill="white"/>
<ellipse cx="513.375" cy="31.6201" rx="31.6189" ry="31.6189" fill="white"/>
<ellipse cx="306.832" cy="100.976" rx="31.6189" ry="31.6189" fill="white"/>
<ellipse cx="375.677" cy="100.976" rx="31.6189" ry="31.6189" fill="white"/>
<ellipse cx="444.521" cy="100.976" rx="31.6189" ry="31.6189" fill="white"/>
<ellipse cx="513.375" cy="100.976" rx="31.6189" ry="31.6189" fill="white"/>
<ellipse cx="306.832" cy="170.334" rx="31.6189" ry="31.6189" fill="white"/>
<ellipse cx="375.677" cy="170.334" rx="31.6189" ry="31.6189" fill="white"/>
<ellipse cx="444.521" cy="170.334" rx="31.6189" ry="31.6189" fill="white"/>
<ellipse cx="513.375" cy="170.334" rx="31.6189" ry="31.6189" fill="white"/>
<ellipse cx="306.832" cy="239.692" rx="31.6189" ry="31.6189" fill="white"/>
<ellipse cx="375.677" cy="239.692" rx="31.6189" ry="31.6189" fill="white"/>
<ellipse cx="444.521" cy="239.692" rx="31.6189" ry="31.6189" fill="white"/>
<ellipse cx="513.375" cy="239.692" rx="31.6189" ry="31.6189" fill="white"/>
</svg>
