<svg width="382" height="244" viewBox="0 0 382 244" fill="none" xmlns="http://www.w3.org/2000/svg">
<mask id="path-1-inside-1_204_7355" fill="white">
<path fill-rule="evenodd" clip-rule="evenodd" d="M191.803 243.635C228.187 243.635 260.833 227.633 283.088 202.283C288.555 203.434 294.223 204.039 300.032 204.039C345.226 204.039 381.863 167.402 381.863 122.208C381.863 77.0137 345.226 40.3765 300.032 40.3765C294.223 40.3765 288.555 40.9818 283.088 42.1328C260.833 16.7827 228.187 0.78064 191.803 0.78064C155.343 0.78064 122.636 16.8498 100.379 42.2922C94.6838 41.0378 88.7665 40.3765 82.6947 40.3765C37.5005 40.3765 0.863281 77.0136 0.863281 122.208C0.863281 167.402 37.5005 204.039 82.6947 204.039C88.7665 204.039 94.6838 203.378 100.379 202.124C122.636 227.566 155.343 243.635 191.803 243.635Z"/>
</mask>
<path fill-rule="evenodd" clip-rule="evenodd" d="M191.803 243.635C228.187 243.635 260.833 227.633 283.088 202.283C288.555 203.434 294.223 204.039 300.032 204.039C345.226 204.039 381.863 167.402 381.863 122.208C381.863 77.0137 345.226 40.3765 300.032 40.3765C294.223 40.3765 288.555 40.9818 283.088 42.1328C260.833 16.7827 228.187 0.78064 191.803 0.78064C155.343 0.78064 122.636 16.8498 100.379 42.2922C94.6838 41.0378 88.7665 40.3765 82.6947 40.3765C37.5005 40.3765 0.863281 77.0136 0.863281 122.208C0.863281 167.402 37.5005 204.039 82.6947 204.039C88.7665 204.039 94.6838 203.378 100.379 202.124C122.636 227.566 155.343 243.635 191.803 243.635Z" fill="white"/>
<path d="M283.088 202.283L283.706 199.347L281.99 198.986L280.834 200.304L283.088 202.283ZM283.088 42.1328L280.834 44.112L281.99 45.4297L283.706 45.0684L283.088 42.1328ZM100.379 42.2922L99.7332 45.222L101.467 45.604L102.636 44.2675L100.379 42.2922ZM100.379 202.124L102.636 200.148L101.467 198.812L99.7332 199.194L100.379 202.124ZM280.834 200.304C259.124 225.033 227.288 240.635 191.803 240.635V246.635C229.086 246.635 262.542 230.234 285.343 204.262L280.834 200.304ZM300.032 201.039C294.432 201.039 288.971 200.456 283.706 199.347L282.47 205.219C288.139 206.412 294.014 207.039 300.032 207.039V201.039ZM378.863 122.208C378.863 165.745 343.569 201.039 300.032 201.039V207.039C346.883 207.039 384.863 169.059 384.863 122.208H378.863ZM300.032 43.3765C343.569 43.3765 378.863 78.6705 378.863 122.208H384.863C384.863 75.3568 346.883 37.3765 300.032 37.3765V43.3765ZM283.706 45.0684C288.971 43.96 294.432 43.3765 300.032 43.3765V37.3765C294.014 37.3765 288.139 38.0036 282.47 39.1972L283.706 45.0684ZM191.803 3.78064C227.288 3.78064 259.124 19.3832 280.834 44.112L285.343 40.1536C262.542 14.1822 229.086 -2.21936 191.803 -2.21936V3.78064ZM102.636 44.2675C124.349 19.4486 156.245 3.78064 191.803 3.78064V-2.21936C154.442 -2.21936 120.924 14.251 98.1206 40.3169L102.636 44.2675ZM82.6947 43.3765C88.548 43.3765 94.249 44.0139 99.7332 45.222L101.024 39.3625C95.1186 38.0616 88.9849 37.3765 82.6947 37.3765V43.3765ZM3.86328 122.208C3.86328 78.6705 39.1573 43.3765 82.6947 43.3765V37.3765C35.8436 37.3765 -2.13672 75.3568 -2.13672 122.208H3.86328ZM82.6947 201.039C39.1573 201.039 3.86328 165.745 3.86328 122.208H-2.13672C-2.13672 169.059 35.8436 207.039 82.6947 207.039V201.039ZM99.7332 199.194C94.249 200.402 88.548 201.039 82.6947 201.039V207.039C88.9849 207.039 95.1186 206.354 101.024 205.053L99.7332 199.194ZM191.803 240.635C156.245 240.635 124.349 224.967 102.636 200.148L98.1206 204.099C120.924 230.165 154.442 246.635 191.803 246.635V240.635Z" fill="black" mask="url(#path-1-inside-1_204_7355)"/>
<path d="M142.241 112.544L141.821 113.024V92.9241H143.351V113.024L142.901 112.544H154.151L153.671 113.024V92.9241H155.201V113.924H129.971V92.9241H131.501V113.024L131.051 112.544H142.241ZM162.035 119.864C161.315 119.864 160.635 119.744 159.995 119.504C159.375 119.264 158.845 118.914 158.405 118.454L159.155 117.314C159.555 117.734 159.985 118.044 160.445 118.244C160.925 118.444 161.465 118.544 162.065 118.544C162.785 118.544 163.415 118.344 163.955 117.944C164.515 117.544 165.035 116.814 165.515 115.754L166.595 113.354L166.805 113.084L173.435 98.2641H174.965L166.925 116.054C166.505 117.014 166.045 117.764 165.545 118.304C165.065 118.864 164.535 119.264 163.955 119.504C163.375 119.744 162.735 119.864 162.035 119.864ZM166.565 114.314L159.305 98.2641H160.895L167.495 112.994L166.565 114.314ZM178.592 113.924V98.2641H180.062L187.472 110.654H186.812L194.252 98.2641H195.632V113.924H194.252V100.064L194.552 100.184L187.442 111.914H186.752L179.612 100.094L179.972 100.034V113.924H178.592ZM202.117 113.924V98.2641H203.617V105.404H214.237V98.2641H215.737V113.924H214.237V106.724H203.617V113.924H202.117ZM228.455 114.044C226.955 114.044 225.615 113.704 224.435 113.024C223.275 112.344 222.345 111.404 221.645 110.204C220.965 109.004 220.625 107.634 220.625 106.094C220.625 104.534 220.965 103.164 221.645 101.984C222.345 100.784 223.275 99.8441 224.435 99.1641C225.615 98.4841 226.955 98.1441 228.455 98.1441C229.955 98.1441 231.295 98.4841 232.475 99.1641C233.655 99.8441 234.585 100.784 235.265 101.984C235.945 103.164 236.285 104.534 236.285 106.094C236.285 107.634 235.945 109.004 235.265 110.204C234.585 111.404 233.655 112.344 232.475 113.024C231.295 113.704 229.955 114.044 228.455 114.044ZM228.455 112.694C229.655 112.694 230.735 112.424 231.695 111.884C232.655 111.324 233.405 110.544 233.945 109.544C234.485 108.544 234.755 107.394 234.755 106.094C234.755 104.774 234.485 103.624 233.945 102.644C233.405 101.644 232.655 100.874 231.695 100.334C230.735 99.7741 229.655 99.4941 228.455 99.4941C227.255 99.4941 226.175 99.7741 225.215 100.334C224.275 100.874 223.525 101.644 222.965 102.644C222.425 103.624 222.155 104.774 222.155 106.094C222.155 107.394 222.425 108.544 222.965 109.544C223.525 110.544 224.275 111.324 225.215 111.884C226.175 112.424 227.255 112.694 228.455 112.694ZM243.695 107.894C243.695 107.034 243.825 106.294 244.085 105.674C244.365 105.054 244.715 104.514 245.135 104.054C245.575 103.574 246.035 103.134 246.515 102.734C246.995 102.314 247.445 101.894 247.865 101.474C248.305 101.034 248.655 100.554 248.915 100.034C249.195 99.4941 249.335 98.8541 249.335 98.1141C249.335 96.9541 248.875 96.0041 247.955 95.2641C247.055 94.5041 245.765 94.1241 244.085 94.1241C242.745 94.1241 241.575 94.3341 240.575 94.7541C239.595 95.1541 238.755 95.7741 238.055 96.6141L236.945 95.7441C237.745 94.7841 238.745 94.0541 239.945 93.5541C241.165 93.0341 242.575 92.7741 244.175 92.7741C245.535 92.7741 246.715 92.9841 247.715 93.4041C248.735 93.8241 249.515 94.4241 250.055 95.2041C250.615 95.9641 250.895 96.8641 250.895 97.9041C250.895 98.7841 250.755 99.5341 250.475 100.154C250.215 100.774 249.865 101.324 249.425 101.804C249.005 102.284 248.555 102.734 248.075 103.154C247.595 103.554 247.135 103.974 246.695 104.414C246.275 104.854 245.925 105.354 245.645 105.914C245.385 106.474 245.255 107.134 245.255 107.894H243.695ZM244.475 114.044C244.135 114.044 243.845 113.924 243.605 113.684C243.365 113.424 243.245 113.134 243.245 112.814C243.245 112.474 243.365 112.184 243.605 111.944C243.845 111.704 244.135 111.584 244.475 111.584C244.835 111.584 245.135 111.704 245.375 111.944C245.615 112.184 245.735 112.474 245.735 112.814C245.735 113.134 245.615 113.424 245.375 113.684C245.135 113.924 244.835 114.044 244.475 114.044ZM61.9206 151.074C60.3606 151.074 58.9106 150.814 57.5706 150.294C56.2506 149.754 55.1006 149.004 54.1206 148.044C53.1406 147.084 52.3806 145.964 51.8406 144.684C51.3006 143.384 51.0306 141.964 51.0306 140.424C51.0306 138.884 51.3006 137.474 51.8406 136.194C52.3806 134.894 53.1406 133.764 54.1206 132.804C55.1206 131.844 56.2806 131.104 57.6006 130.584C58.9206 130.044 60.3606 129.774 61.9206 129.774C63.4006 129.774 64.7806 130.014 66.0606 130.494C67.3606 130.974 68.4706 131.704 69.3906 132.684L68.4306 133.674C67.5306 132.794 66.5306 132.164 65.4306 131.784C64.3506 131.384 63.2006 131.184 61.9806 131.184C60.6406 131.184 59.3906 131.414 58.2306 131.874C57.0906 132.334 56.0906 132.984 55.2306 133.824C54.3906 134.664 53.7306 135.644 53.2506 136.764C52.7906 137.884 52.5606 139.104 52.5606 140.424C52.5606 141.744 52.7906 142.964 53.2506 144.084C53.7306 145.204 54.3906 146.184 55.2306 147.024C56.0906 147.864 57.0906 148.514 58.2306 148.974C59.3906 149.434 60.6406 149.664 61.9806 149.664C63.2006 149.664 64.3506 149.474 65.4306 149.094C66.5306 148.694 67.5306 148.044 68.4306 147.144L69.3906 148.134C68.4706 149.114 67.3606 149.854 66.0606 150.354C64.7806 150.834 63.4006 151.074 61.9206 151.074ZM79.5442 151.044C77.9642 151.044 76.5642 150.704 75.3442 150.024C74.1442 149.344 73.1942 148.404 72.4942 147.204C71.8142 146.004 71.4742 144.634 71.4742 143.094C71.4742 141.534 71.7942 140.164 72.4342 138.984C73.0942 137.784 73.9942 136.844 75.1342 136.164C76.2742 135.484 77.5542 135.144 78.9742 135.144C80.3942 135.144 81.6642 135.474 82.7842 136.134C83.9242 136.794 84.8142 137.724 85.4542 138.924C86.1142 140.104 86.4442 141.474 86.4442 143.034C86.4442 143.094 86.4342 143.164 86.4142 143.244C86.4142 143.304 86.4142 143.374 86.4142 143.454H72.5842V142.284H85.6042L85.0042 142.854C85.0242 141.634 84.7642 140.544 84.2242 139.584C83.7042 138.604 82.9942 137.844 82.0942 137.304C81.1942 136.744 80.1542 136.464 78.9742 136.464C77.8142 136.464 76.7742 136.744 75.8542 137.304C74.9542 137.844 74.2442 138.604 73.7242 139.584C73.2042 140.544 72.9442 141.644 72.9442 142.884V143.154C72.9442 144.434 73.2242 145.574 73.7842 146.574C74.3642 147.554 75.1542 148.324 76.1542 148.884C77.1542 149.424 78.2942 149.694 79.5742 149.694C80.5742 149.694 81.5042 149.514 82.3642 149.154C83.2442 148.794 83.9842 148.244 84.5842 147.504L85.4542 148.494C84.7742 149.334 83.9142 149.974 82.8742 150.414C81.8542 150.834 80.7442 151.044 79.5442 151.044ZM91.3455 150.924V135.264H92.8455V148.614L104.005 135.264H105.325V150.924H103.825V137.574L92.6655 150.924H91.3455ZM98.2755 132.864C97.0555 132.864 96.0455 132.544 95.2455 131.904C94.4655 131.244 94.0555 130.334 94.0155 129.174H95.1255C95.1655 129.994 95.4755 130.644 96.0555 131.124C96.6555 131.604 97.3955 131.844 98.2755 131.844C99.1555 131.844 99.8855 131.604 100.465 131.124C101.065 130.644 101.375 129.994 101.395 129.174H102.535C102.515 130.334 102.105 131.244 101.305 131.904C100.525 132.544 99.5155 132.864 98.2755 132.864ZM121.695 144.114C120.715 144.554 119.735 144.894 118.755 145.134C117.795 145.354 116.865 145.464 115.965 145.464C114.185 145.464 112.755 145.054 111.675 144.234C110.595 143.394 110.055 142.144 110.055 140.484V135.264H111.555V140.394C111.555 141.654 111.975 142.604 112.815 143.244C113.655 143.884 114.775 144.204 116.175 144.204C117.015 144.204 117.905 144.094 118.845 143.874C119.785 143.654 120.745 143.324 121.725 142.884L121.695 144.114ZM121.545 150.924V135.264H123.045V150.924H121.545ZM139.299 150.924V147.354L139.239 146.814V140.934C139.239 139.474 138.839 138.364 138.039 137.604C137.259 136.844 136.109 136.464 134.589 136.464C133.509 136.464 132.499 136.654 131.559 137.034C130.639 137.394 129.849 137.864 129.189 138.444L128.439 137.364C129.219 136.664 130.159 136.124 131.259 135.744C132.359 135.344 133.509 135.144 134.709 135.144C136.649 135.144 138.139 135.634 139.179 136.614C140.219 137.594 140.739 139.054 140.739 140.994V150.924H139.299ZM133.659 151.044C132.499 151.044 131.489 150.864 130.629 150.504C129.789 150.124 129.139 149.594 128.679 148.914C128.239 148.234 128.019 147.454 128.019 146.574C128.019 145.774 128.199 145.054 128.559 144.414C128.939 143.754 129.559 143.224 130.419 142.824C131.279 142.404 132.429 142.194 133.869 142.194H139.629V143.364H133.899C132.279 143.364 131.139 143.664 130.479 144.264C129.839 144.864 129.519 145.614 129.519 146.514C129.519 147.514 129.899 148.314 130.659 148.914C131.419 149.514 132.489 149.814 133.869 149.814C135.189 149.814 136.299 149.514 137.199 148.914C138.119 148.314 138.799 147.444 139.239 146.304L139.659 147.324C139.239 148.464 138.519 149.374 137.499 150.054C136.499 150.714 135.219 151.044 133.659 151.044ZM153.164 151.044C151.644 151.044 150.284 150.704 149.084 150.024C147.904 149.344 146.964 148.404 146.264 147.204C145.584 146.004 145.244 144.634 145.244 143.094C145.244 141.534 145.584 140.154 146.264 138.954C146.964 137.754 147.904 136.824 149.084 136.164C150.284 135.484 151.644 135.144 153.164 135.144C154.424 135.144 155.564 135.384 156.584 135.864C157.624 136.344 158.464 137.064 159.104 138.024L157.994 138.834C157.434 138.034 156.734 137.444 155.894 137.064C155.054 136.684 154.144 136.494 153.164 136.494C151.944 136.494 150.844 136.774 149.864 137.334C148.904 137.874 148.144 138.644 147.584 139.644C147.044 140.624 146.774 141.774 146.774 143.094C146.774 144.414 147.044 145.574 147.584 146.574C148.144 147.554 148.904 148.324 149.864 148.884C150.844 149.424 151.944 149.694 153.164 149.694C154.144 149.694 155.054 149.504 155.894 149.124C156.734 148.744 157.434 148.154 157.994 147.354L159.104 148.164C158.464 149.124 157.624 149.844 156.584 150.324C155.564 150.804 154.424 151.044 153.164 151.044ZM171.238 150.924V135.264H172.738V148.614L183.898 135.264H185.218V150.924H183.718V137.574L172.558 150.924H171.238ZM198.017 151.044C196.497 151.044 195.137 150.704 193.937 150.024C192.757 149.344 191.817 148.404 191.117 147.204C190.437 146.004 190.097 144.634 190.097 143.094C190.097 141.534 190.437 140.154 191.117 138.954C191.817 137.754 192.757 136.824 193.937 136.164C195.137 135.484 196.497 135.144 198.017 135.144C199.277 135.144 200.417 135.384 201.437 135.864C202.477 136.344 203.317 137.064 203.957 138.024L202.847 138.834C202.287 138.034 201.587 137.444 200.747 137.064C199.907 136.684 198.997 136.494 198.017 136.494C196.797 136.494 195.697 136.774 194.717 137.334C193.757 137.874 192.997 138.644 192.437 139.644C191.897 140.624 191.627 141.774 191.627 143.094C191.627 144.414 191.897 145.574 192.437 146.574C192.997 147.554 193.757 148.324 194.717 148.884C195.697 149.424 196.797 149.694 198.017 149.694C198.997 149.694 199.907 149.504 200.747 149.124C201.587 148.744 202.287 148.154 202.847 147.354L203.957 148.164C203.317 149.124 202.477 149.844 201.437 150.324C200.417 150.804 199.277 151.044 198.017 151.044ZM208.386 150.924V135.264H222.066V150.924H220.566V136.164L220.986 136.614H209.466L209.886 136.164V150.924H208.386ZM236.433 151.044C235.053 151.044 233.803 150.724 232.683 150.084C231.583 149.444 230.703 148.534 230.043 147.354C229.403 146.154 229.083 144.734 229.083 143.094C229.083 141.454 229.403 140.044 230.043 138.864C230.703 137.664 231.583 136.744 232.683 136.104C233.803 135.464 235.053 135.144 236.433 135.144C237.913 135.144 239.233 135.484 240.393 136.164C241.573 136.824 242.493 137.754 243.153 138.954C243.833 140.154 244.173 141.534 244.173 143.094C244.173 144.654 243.833 146.034 243.153 147.234C242.493 148.434 241.573 149.374 240.393 150.054C239.233 150.714 237.913 151.044 236.433 151.044ZM228.573 156.744V135.264H230.013V140.394L229.773 143.124L230.073 145.854V156.744H228.573ZM236.343 149.694C237.543 149.694 238.623 149.424 239.583 148.884C240.543 148.324 241.293 147.544 241.833 146.544C242.393 145.544 242.673 144.394 242.673 143.094C242.673 141.774 242.393 140.624 241.833 139.644C241.293 138.644 240.543 137.874 239.583 137.334C238.623 136.774 237.543 136.494 236.343 136.494C235.143 136.494 234.063 136.774 233.103 137.334C232.163 137.874 231.413 138.644 230.853 139.644C230.313 140.624 230.043 141.774 230.043 143.094C230.043 144.394 230.313 145.544 230.853 146.544C231.413 147.544 232.163 148.324 233.103 148.884C234.063 149.424 235.143 149.694 236.343 149.694ZM258.772 150.924V147.354L258.712 146.814V140.934C258.712 139.474 258.312 138.364 257.512 137.604C256.732 136.844 255.582 136.464 254.062 136.464C252.982 136.464 251.972 136.654 251.032 137.034C250.112 137.394 249.322 137.864 248.662 138.444L247.912 137.364C248.692 136.664 249.632 136.124 250.732 135.744C251.832 135.344 252.982 135.144 254.182 135.144C256.122 135.144 257.612 135.634 258.652 136.614C259.692 137.594 260.212 139.054 260.212 140.994V150.924H258.772ZM253.132 151.044C251.972 151.044 250.962 150.864 250.102 150.504C249.262 150.124 248.612 149.594 248.152 148.914C247.712 148.234 247.492 147.454 247.492 146.574C247.492 145.774 247.672 145.054 248.032 144.414C248.412 143.754 249.032 143.224 249.892 142.824C250.752 142.404 251.902 142.194 253.342 142.194H259.102V143.364H253.372C251.752 143.364 250.612 143.664 249.952 144.264C249.312 144.864 248.992 145.614 248.992 146.514C248.992 147.514 249.372 148.314 250.132 148.914C250.892 149.514 251.962 149.814 253.342 149.814C254.662 149.814 255.772 149.514 256.672 148.914C257.592 148.314 258.272 147.444 258.712 146.304L259.132 147.324C258.712 148.464 257.992 149.374 256.972 150.054C255.972 150.714 254.692 151.044 253.132 151.044ZM266.306 150.924V135.264H272.906C274.626 135.264 275.986 135.604 276.986 136.284C277.986 136.964 278.486 137.954 278.486 139.254C278.486 140.534 277.996 141.504 277.016 142.164C276.056 142.824 274.806 143.154 273.266 143.154L273.686 142.704C275.526 142.704 276.876 143.044 277.736 143.724C278.596 144.404 279.026 145.404 279.026 146.724C279.026 148.064 278.536 149.104 277.556 149.844C276.596 150.564 275.106 150.924 273.086 150.924H266.306ZM267.776 149.694H273.056C274.516 149.694 275.626 149.454 276.386 148.974C277.146 148.494 277.526 147.724 277.526 146.664C277.526 145.584 277.186 144.804 276.506 144.324C275.846 143.824 274.776 143.574 273.296 143.574H267.776V149.694ZM267.776 142.404H272.816C274.136 142.404 275.156 142.154 275.876 141.654C276.616 141.154 276.986 140.414 276.986 139.434C276.986 138.454 276.616 137.724 275.876 137.244C275.156 136.744 274.136 136.494 272.816 136.494H267.776V142.404ZM284.353 150.924V135.264H285.853V148.614L297.013 135.264H298.333V150.924H296.833V137.574L285.673 150.924H284.353ZM304.803 150.924V135.264H306.273L313.683 147.654H313.023L320.463 135.264H321.843V150.924H320.463V137.064L320.763 137.184L313.653 148.914H312.963L305.823 137.094L306.183 137.034V150.924H304.803ZM328.298 144.894L327.998 129.924H329.738L329.438 144.894H328.298ZM328.868 151.044C328.528 151.044 328.238 150.924 327.998 150.684C327.758 150.424 327.638 150.134 327.638 149.814C327.638 149.474 327.758 149.184 327.998 148.944C328.238 148.704 328.528 148.584 328.868 148.584C329.228 148.584 329.528 148.704 329.768 148.944C330.008 149.184 330.128 149.474 330.128 149.814C330.128 150.134 330.008 150.424 329.768 150.684C329.528 150.924 329.228 151.044 328.868 151.044Z" fill="black"/>
</svg>
