<svg width="512" height="376" viewBox="0 0 512 376" fill="none" xmlns="http://www.w3.org/2000/svg">
<path d="M264.634 15.7898L316.2 94.8167L316.741 95.6451L317.715 95.4745L433.76 75.1558L393.312 154.09L392.576 155.526L394.062 156.156L498.114 200.191L390.193 233.641L388.651 234.119L389.24 235.622L421.623 318.193L308.18 286.414L307.227 286.147L306.607 286.917L247.423 360.413L195.857 281.387L195.316 280.558L194.342 280.729L78.297 301.047L118.745 222.113L119.481 220.677L117.995 220.048L13.9435 176.012L121.864 142.562L123.406 142.084L122.817 140.581L90.4343 58.01L203.878 89.7894L204.83 90.0563L205.45 89.2858L264.634 15.7898Z" fill="white" stroke="black" stroke-width="3"/>
<path d="M148.532 168.04L149.201 147.051L166.472 147.602L165.803 168.591L164.274 168.542L164.914 148.452L165.348 148.947L150.236 148.465L150.701 147.999L150.061 168.089L148.532 168.04ZM179.056 169.134C177.557 169.086 176.228 168.703 175.071 167.986C173.933 167.269 173.033 166.3 172.372 165.078C171.73 163.857 171.434 162.477 171.483 160.938C171.533 159.379 171.916 158.02 172.634 156.863C173.372 155.686 174.331 154.776 175.512 154.133C176.713 153.491 178.063 153.194 179.563 153.242C181.062 153.289 182.39 153.672 183.548 154.389C184.706 155.106 185.605 156.076 186.247 157.297C186.889 158.498 187.185 159.878 187.135 161.437C187.086 162.976 186.703 164.335 185.985 165.512C185.267 166.69 184.308 167.6 183.106 168.242C181.905 168.884 180.555 169.181 179.056 169.134ZM179.099 167.784C180.298 167.822 181.386 167.587 182.363 167.078C183.341 166.549 184.115 165.793 184.687 164.811C185.258 163.828 185.565 162.688 185.606 161.388C185.648 160.069 185.415 158.911 184.906 157.914C184.399 156.898 183.673 156.104 182.731 155.534C181.79 154.943 180.719 154.629 179.52 154.591C178.32 154.553 177.232 154.798 176.254 155.327C175.298 155.837 174.524 156.583 173.932 157.564C173.361 158.527 173.055 159.667 173.012 160.987C172.971 162.286 173.204 163.444 173.712 164.461C174.24 165.478 174.965 166.282 175.886 166.871C176.829 167.442 177.9 167.746 179.099 167.784ZM198.091 169.74C196.572 169.692 195.224 169.309 194.046 168.591C192.888 167.874 191.979 166.904 191.317 165.682C190.676 164.461 190.38 163.081 190.429 161.542C190.478 159.983 190.862 158.614 191.58 157.437C192.318 156.26 193.287 155.36 194.488 154.738C195.709 154.096 197.079 153.8 198.598 153.848C199.857 153.889 200.989 154.165 201.993 154.677C203.018 155.19 203.834 155.936 204.443 156.916L203.308 157.69C202.774 156.873 202.093 156.261 201.265 155.854C200.438 155.448 199.534 155.229 198.555 155.198C197.336 155.159 196.227 155.404 195.23 155.932C194.253 156.441 193.469 157.187 192.877 158.168C192.307 159.131 192 160.271 191.958 161.591C191.916 162.91 192.149 164.078 192.657 165.095C193.185 166.092 193.92 166.886 194.862 167.476C195.824 168.047 196.915 168.352 198.134 168.391C199.114 168.422 200.03 168.261 200.881 167.908C201.733 167.555 202.451 166.988 203.037 166.206L204.12 167.051C203.45 167.99 202.587 168.683 201.533 169.13C200.498 169.577 199.351 169.78 198.091 169.74ZM210.956 170.03L211.427 155.278L211.832 155.741L205.295 155.533L205.338 154.183L219.071 154.621L219.028 155.97L212.492 155.762L212.926 155.326L212.456 170.078L210.956 170.03ZM231.558 170.687L231.671 167.119L231.629 166.577L231.816 160.7C231.862 159.241 231.498 158.119 230.723 157.334C229.967 156.549 228.83 156.133 227.311 156.084C226.231 156.05 225.216 156.208 224.264 156.558C223.333 156.888 222.528 157.333 221.85 157.891L221.135 156.788C221.937 156.113 222.894 155.603 224.005 155.259C225.117 154.894 226.273 154.731 227.473 154.769C229.412 154.831 230.885 155.368 231.894 156.381C232.902 157.393 233.375 158.869 233.313 160.808L232.997 170.733L231.558 170.687ZM225.917 170.627C224.757 170.59 223.753 170.378 222.905 169.991C222.078 169.584 221.445 169.034 221.007 168.34C220.589 167.646 220.394 166.859 220.422 165.98C220.447 165.18 220.65 164.466 221.03 163.838C221.431 163.191 222.068 162.681 222.94 162.308C223.813 161.916 224.969 161.743 226.408 161.789L232.166 161.972L232.128 163.141L226.401 162.959C224.782 162.907 223.633 163.171 222.954 163.749C222.295 164.329 221.952 165.068 221.923 165.968C221.891 166.967 222.245 167.779 222.986 168.403C223.726 169.027 224.786 169.361 226.166 169.405C227.485 169.447 228.604 169.182 229.523 168.611C230.461 168.041 231.169 167.193 231.645 166.068L232.032 167.1C231.576 168.226 230.827 169.113 229.786 169.76C228.766 170.388 227.476 170.677 225.917 170.627ZM239.088 170.927L239.587 155.275L246.184 155.485C247.903 155.54 249.251 155.923 250.229 156.635C251.207 157.346 251.675 158.352 251.634 159.651C251.593 160.931 251.072 161.884 250.072 162.513C249.091 163.142 247.831 163.432 246.292 163.383L246.726 162.946C248.565 163.005 249.904 163.388 250.742 164.095C251.58 164.802 251.978 165.815 251.936 167.135C251.893 168.474 251.37 169.498 250.367 170.206C249.384 170.895 247.884 171.208 245.865 171.143L239.088 170.927ZM240.597 169.745L245.874 169.913C247.333 169.959 248.45 169.755 249.225 169.299C250 168.844 250.404 168.086 250.438 167.027C250.473 165.947 250.158 165.157 249.493 164.655C248.85 164.135 247.788 163.851 246.309 163.804L240.792 163.628L240.597 169.745ZM240.829 162.458L245.866 162.619C247.186 162.661 248.213 162.444 248.949 161.967C249.704 161.491 250.098 160.763 250.129 159.783C250.16 158.804 249.813 158.062 249.089 157.559C248.385 157.036 247.374 156.754 246.055 156.712L241.017 156.551L240.829 162.458ZM263.71 161.747C265.648 161.829 267.114 162.306 268.107 163.178C269.1 164.03 269.571 165.256 269.52 166.855C269.467 168.514 268.887 169.766 267.78 170.611C266.672 171.456 265.089 171.836 263.031 171.75L257.126 171.502L257.625 155.85L259.124 155.898L258.944 161.535L263.71 161.747ZM263.039 170.55C264.638 170.621 265.847 170.339 266.668 169.705C267.509 169.072 267.95 168.105 267.991 166.806C268.031 165.547 267.661 164.594 266.881 163.949C266.102 163.304 264.902 162.946 263.284 162.874L258.907 162.704L258.663 170.351L263.039 170.55ZM284.249 172.367L284.719 157.614L285.125 158.077L278.588 157.869L278.631 156.52L292.364 156.958L292.321 158.307L285.785 158.098L286.219 157.662L285.748 172.415L284.249 172.367ZM300.576 173.007C299.077 172.96 297.749 172.577 296.591 171.86C295.453 171.143 294.554 170.174 293.892 168.952C293.251 167.731 292.954 166.351 293.004 164.812C293.053 163.253 293.437 161.894 294.154 160.736C294.892 159.559 295.851 158.65 297.032 158.007C298.233 157.365 299.584 157.068 301.083 157.115C302.582 157.163 303.911 157.546 305.068 158.263C306.226 158.98 307.126 159.949 307.767 161.17C308.409 162.372 308.705 163.752 308.656 165.311C308.607 166.85 308.223 168.209 307.505 169.386C306.787 170.564 305.828 171.474 304.627 172.116C303.426 172.758 302.076 173.055 300.576 173.007ZM300.619 171.658C301.819 171.696 302.907 171.461 303.883 170.952C304.861 170.423 305.635 169.667 306.207 168.685C306.778 167.702 307.085 166.561 307.126 165.262C307.168 163.943 306.935 162.785 306.427 161.788C305.919 160.771 305.194 159.978 304.251 159.408C303.31 158.817 302.239 158.503 301.04 158.465C299.84 158.426 298.752 158.672 297.775 159.201C296.818 159.711 296.044 160.457 295.452 161.438C294.881 162.401 294.575 163.541 294.533 164.861C294.491 166.16 294.725 167.318 295.232 168.335C295.76 169.352 296.485 170.156 297.407 170.745C298.349 171.316 299.42 171.62 300.619 171.658ZM323.401 166.801C322.407 167.21 321.417 167.519 320.43 167.727C319.463 167.917 318.53 167.997 317.631 167.968C315.851 167.911 314.435 167.456 313.382 166.602C312.329 165.728 311.829 164.462 311.882 162.802L312.049 157.585L313.548 157.633L313.384 162.76C313.344 164.02 313.734 164.982 314.553 165.649C315.372 166.315 316.481 166.671 317.881 166.715C318.72 166.742 319.613 166.661 320.56 166.471C321.506 166.281 322.476 165.982 323.47 165.573L323.401 166.801ZM323.034 173.603L323.533 157.951L325.032 157.999L324.533 173.651L323.034 173.603ZM342.548 174.225L336.081 166.185L337.364 165.506L344.348 174.283L342.548 174.225ZM331.004 173.857L331.503 158.205L333.003 158.253L332.504 173.905L331.004 173.857ZM332.255 166.633L332.296 165.344L337.214 165.501L337.173 166.79L332.255 166.633ZM337.426 166.378L336.054 166.094L342.718 158.563L344.367 158.615L337.426 166.378ZM346.77 180.303C346.05 180.28 345.374 180.138 344.742 179.878C344.13 179.618 343.611 179.252 343.186 178.778L343.972 177.662C344.359 178.095 344.779 178.418 345.232 178.633C345.705 178.848 346.242 178.965 346.842 178.984C347.561 179.007 348.197 178.828 348.75 178.445C349.322 178.063 349.865 177.35 350.379 176.306L351.535 173.941L351.753 173.678L358.852 159.077L360.381 159.126L351.778 176.651C351.328 177.597 350.844 178.332 350.327 178.855C349.83 179.4 349.287 179.783 348.7 180.004C348.113 180.226 347.469 180.325 346.77 180.303ZM351.474 174.9L344.729 158.627L346.318 158.677L352.446 173.61L351.474 174.9ZM117.751 204.078L118.25 188.426L124.846 188.636C126.565 188.691 127.914 189.074 128.892 189.786C129.869 190.497 130.338 191.503 130.296 192.802C130.255 194.081 129.735 195.035 128.734 195.664C127.754 196.293 126.494 196.583 124.955 196.534L125.389 196.097C127.228 196.156 128.566 196.539 129.404 197.246C130.242 197.953 130.64 198.966 130.598 200.285C130.555 201.625 130.032 202.649 129.029 203.357C128.047 204.046 126.546 204.358 124.527 204.294L117.751 204.078ZM119.259 202.895L124.536 203.064C125.996 203.11 127.113 202.906 127.888 202.45C128.662 201.995 129.067 201.237 129.101 200.178C129.135 199.098 128.82 198.308 128.156 197.806C127.512 197.286 126.45 197.002 124.971 196.954L119.454 196.779L119.259 202.895ZM119.491 195.609L124.529 195.77C125.848 195.812 126.876 195.594 127.611 195.118C128.367 194.641 128.76 193.914 128.791 192.934C128.822 191.955 128.476 191.213 127.752 190.71C127.048 190.187 126.036 189.905 124.717 189.863L119.68 189.702L119.491 195.609ZM150.321 205.266C149.062 205.226 147.949 204.971 146.984 204.5C146.038 204.029 145.24 203.353 144.587 202.472C143.955 201.592 143.479 200.516 143.159 199.245C142.84 197.954 142.707 196.479 142.76 194.82C142.812 193.201 143.016 191.817 143.373 190.667C143.73 189.498 144.182 188.522 144.727 187.739C145.293 186.937 145.924 186.287 146.62 185.788C147.316 185.29 148.029 184.903 148.758 184.626C149.508 184.33 150.245 184.113 150.97 183.976L157.949 182.548L158.144 183.965L151.498 185.284C151.035 185.389 150.49 185.532 149.864 185.712C149.259 185.873 148.63 186.143 147.977 186.522C147.345 186.882 146.749 187.403 146.186 188.086C145.645 188.749 145.187 189.615 144.813 190.683C144.459 191.753 144.256 193.087 144.205 194.686C144.196 194.986 144.198 195.226 144.212 195.407C144.226 195.587 144.24 195.788 144.253 196.008C144.287 196.209 144.317 196.511 144.344 196.912L143.666 196.53C143.828 195.214 144.255 194.067 144.946 193.089C145.638 192.11 146.522 191.358 147.6 190.832C148.677 190.306 149.885 190.065 151.225 190.107C152.684 190.154 153.963 190.515 155.062 191.19C156.182 191.846 157.043 192.754 157.647 193.914C158.251 195.054 158.529 196.363 158.482 197.843C158.435 199.322 158.063 200.631 157.366 201.769C156.69 202.908 155.741 203.788 154.521 204.41C153.32 205.032 151.92 205.317 150.321 205.266ZM150.602 203.985C151.802 204.023 152.87 203.787 153.806 203.276C154.764 202.747 155.518 202.01 156.068 201.067C156.618 200.124 156.913 199.043 156.952 197.824C156.991 196.604 156.765 195.527 156.274 194.591C155.784 193.654 155.077 192.912 154.154 192.362C153.252 191.793 152.191 191.489 150.972 191.45C149.772 191.412 148.695 191.638 147.739 192.127C146.802 192.618 146.06 193.314 145.511 194.217C144.962 195.12 144.668 196.182 144.629 197.401C144.59 198.62 144.815 199.718 145.304 200.694C145.813 201.671 146.519 202.454 147.421 203.043C148.342 203.632 149.403 203.946 150.602 203.985ZM169.4 205.844C167.901 205.797 166.572 205.414 165.415 204.697C164.277 203.98 163.377 203.011 162.716 201.789C162.074 200.568 161.778 199.188 161.827 197.649C161.877 196.09 162.26 194.731 162.978 193.574C163.716 192.397 164.675 191.487 165.856 190.844C167.057 190.202 168.407 189.905 169.907 189.953C171.406 190 172.734 190.383 173.892 191.1C175.05 191.817 175.949 192.787 176.591 194.008C177.233 195.209 177.529 196.589 177.479 198.148C177.43 199.687 177.047 201.046 176.329 202.223C175.611 203.401 174.651 204.311 173.45 204.953C172.249 205.595 170.899 205.892 169.4 205.844ZM169.443 204.495C170.642 204.533 171.73 204.298 172.707 203.789C173.684 203.26 174.459 202.504 175.031 201.522C175.602 200.539 175.909 199.399 175.95 198.099C175.992 196.78 175.759 195.622 175.25 194.625C174.743 193.608 174.017 192.815 173.075 192.245C172.133 191.654 171.063 191.34 169.864 191.302C168.664 191.264 167.576 191.509 166.598 192.038C165.642 192.548 164.868 193.294 164.276 194.275C163.705 195.238 163.399 196.378 163.356 197.698C163.315 198.997 163.548 200.155 164.056 201.172C164.584 202.189 165.309 202.993 166.23 203.582C167.173 204.153 168.244 204.457 169.443 204.495ZM189.995 206.501C188.615 206.457 187.376 206.097 186.277 205.422C185.198 204.747 184.347 203.81 183.725 202.609C183.124 201.389 182.849 199.96 182.902 198.321C182.954 196.682 183.319 195.283 183.996 194.124C184.694 192.945 185.603 192.054 186.722 191.449C187.862 190.845 189.122 190.565 190.501 190.609C191.98 190.656 193.289 191.038 194.427 191.755C195.585 192.452 196.475 193.411 197.096 194.631C197.738 195.852 198.034 197.242 197.984 198.802C197.934 200.361 197.55 201.729 196.833 202.907C196.135 204.085 195.185 204.996 193.984 205.638C192.804 206.26 191.474 206.548 189.995 206.501ZM181.957 211.948L182.641 190.479L184.081 190.524L183.917 195.652L183.59 198.373L183.803 201.111L183.456 211.995L181.957 211.948ZM189.948 205.149C191.147 205.187 192.235 204.952 193.212 204.442C194.189 203.913 194.964 203.158 195.535 202.175C196.127 201.194 196.443 200.053 196.485 198.754C196.527 197.435 196.284 196.276 195.755 195.279C195.247 194.262 194.522 193.469 193.58 192.898C192.638 192.308 191.568 191.994 190.368 191.956C189.169 191.917 188.08 192.163 187.103 192.692C186.146 193.202 185.372 193.947 184.781 194.929C184.21 195.891 183.903 197.032 183.861 198.351C183.82 199.651 184.053 200.809 184.561 201.825C185.089 202.843 185.813 203.646 186.735 204.236C187.677 204.806 188.748 205.111 189.948 205.149ZM209.194 197.028C211.132 197.11 212.598 197.587 213.591 198.459C214.584 199.311 215.055 200.536 215.004 202.136C214.951 203.795 214.371 205.047 213.264 205.892C212.156 206.737 210.573 207.117 208.515 207.031L202.61 206.783L203.109 191.131L204.608 191.179L204.428 196.816L209.194 197.028ZM208.523 205.831C210.122 205.902 211.331 205.62 212.152 204.986C212.993 204.353 213.434 203.386 213.475 202.087C213.515 200.828 213.145 199.875 212.365 199.23C211.586 198.585 210.386 198.227 208.768 198.155L204.391 197.985L204.147 205.631L208.523 205.831ZM226.015 207.679C224.756 207.639 223.643 207.384 222.678 206.913C221.732 206.442 220.934 205.766 220.281 204.885C219.649 204.005 219.173 202.929 218.853 201.658C218.534 200.367 218.401 198.892 218.454 197.233C218.506 195.614 218.71 194.23 219.067 193.08C219.424 191.911 219.876 190.935 220.421 190.152C220.987 189.35 221.618 188.7 222.314 188.201C223.01 187.703 223.723 187.316 224.452 187.039C225.202 186.743 225.939 186.526 226.664 186.389L233.643 184.961L233.838 186.378L227.192 187.697C226.729 187.802 226.184 187.945 225.558 188.125C224.953 188.286 224.324 188.556 223.671 188.935C223.039 189.295 222.442 189.816 221.88 190.499C221.339 191.162 220.881 192.028 220.507 193.096C220.153 194.166 219.95 195.5 219.899 197.099C219.89 197.399 219.892 197.639 219.906 197.82C219.92 198 219.934 198.201 219.947 198.421C219.981 198.622 220.011 198.924 220.038 199.325L219.36 198.943C219.522 197.627 219.949 196.48 220.64 195.502C221.332 194.523 222.216 193.771 223.294 193.245C224.371 192.719 225.579 192.478 226.919 192.52C228.378 192.567 229.657 192.928 230.756 193.603C231.876 194.259 232.737 195.167 233.341 196.327C233.945 197.467 234.223 198.776 234.176 200.256C234.129 201.735 233.757 203.044 233.06 204.182C232.384 205.321 231.435 206.201 230.215 206.823C229.014 207.445 227.614 207.73 226.015 207.679ZM226.296 206.398C227.496 206.436 228.564 206.2 229.5 205.689C230.458 205.16 231.212 204.423 231.762 203.48C232.312 202.537 232.607 201.456 232.646 200.237C232.685 199.017 232.459 197.94 231.968 197.004C231.478 196.067 230.771 195.325 229.848 194.775C228.946 194.206 227.885 193.902 226.666 193.863C225.466 193.825 224.389 194.051 223.432 194.54C222.496 195.031 221.754 195.727 221.205 196.63C220.656 197.533 220.362 198.595 220.323 199.814C220.284 201.033 220.509 202.131 220.998 203.107C221.507 204.084 222.213 204.867 223.115 205.456C224.036 206.045 225.097 206.359 226.296 206.398ZM245.334 208.265C243.755 208.215 242.366 207.83 241.168 207.112C239.991 206.394 239.071 205.424 238.41 204.202C237.768 202.981 237.472 201.601 237.521 200.062C237.571 198.503 237.934 197.144 238.612 195.985C239.31 194.806 240.239 193.895 241.4 193.252C242.561 192.609 243.851 192.31 245.271 192.355C246.69 192.4 247.949 192.771 249.047 193.466C250.166 194.162 251.026 195.12 251.627 196.34C252.249 197.54 252.535 198.92 252.486 200.479C252.484 200.539 252.471 200.609 252.449 200.688C252.447 200.748 252.445 200.818 252.442 200.898L238.619 200.457L238.656 199.288L251.67 199.703L251.052 200.253C251.111 199.034 250.886 197.937 250.377 196.96C249.888 195.964 249.203 195.182 248.32 194.613C247.439 194.025 246.408 193.712 245.229 193.674C244.069 193.637 243.021 193.884 242.083 194.415C241.167 194.926 240.433 195.663 239.882 196.625C239.332 197.568 239.037 198.66 238.997 199.899L238.989 200.169C238.948 201.448 239.191 202.597 239.719 203.614C240.268 204.612 241.033 205.407 242.014 205.998C242.997 206.57 244.127 206.876 245.407 206.917C246.406 206.949 247.342 206.798 248.213 206.466C249.104 206.134 249.861 205.608 250.484 204.887L251.322 205.905C250.616 206.723 249.736 207.335 248.682 207.742C247.649 208.129 246.533 208.303 245.334 208.265ZM271.157 209.088C269.638 209.04 268.289 208.657 267.112 207.939C265.954 207.222 265.044 206.252 264.383 205.03C263.741 203.809 263.445 202.429 263.494 200.89C263.544 199.331 263.928 197.962 264.646 196.785C265.384 195.608 266.353 194.708 267.553 194.086C268.774 193.444 270.144 193.148 271.664 193.196C272.923 193.237 274.055 193.513 275.059 194.025C276.083 194.538 276.9 195.284 277.509 196.264L276.374 197.038C275.839 196.221 275.159 195.609 274.331 195.202C273.504 194.796 272.6 194.577 271.621 194.546C270.401 194.507 269.293 194.752 268.296 195.28C267.319 195.789 266.535 196.535 265.943 197.516C265.372 198.479 265.066 199.619 265.024 200.939C264.982 202.258 265.214 203.426 265.722 204.443C266.251 205.44 266.986 206.234 267.928 206.824C268.89 207.395 269.981 207.7 271.2 207.739C272.18 207.77 273.095 207.609 273.947 207.256C274.798 206.903 275.517 206.336 276.102 205.554L277.186 206.399C276.515 207.338 275.653 208.031 274.598 208.478C273.563 208.925 272.416 209.128 271.157 209.088ZM299.433 208.549L299.059 208.987L299.53 194.205L301.029 194.253L300.558 209.035L300.123 208.571L309.238 208.862L308.804 209.298L309.275 194.515L310.774 194.563L310.275 210.215L289.226 209.544L289.725 193.892L291.224 193.94L290.753 208.722L290.347 208.259L299.433 208.549ZM316.382 216.353C315.662 216.33 314.986 216.188 314.354 215.928C313.742 215.668 313.224 215.302 312.799 214.828L313.585 213.712C313.971 214.145 314.391 214.469 314.844 214.683C315.318 214.898 315.854 215.015 316.454 215.035C317.174 215.058 317.81 214.878 318.362 214.495C318.935 214.113 319.478 213.4 319.991 212.356L321.147 209.992L321.365 209.728L328.464 195.127L329.994 195.176L321.391 212.701C320.94 213.647 320.457 214.382 319.94 214.906C319.442 215.45 318.9 215.833 318.312 216.054C317.725 216.276 317.082 216.375 316.382 216.353ZM321.086 210.95L314.341 194.677L315.931 194.728L322.058 209.66L321.086 210.95ZM333.12 210.943L333.619 195.291L335.088 195.338L342.099 207.958L341.44 207.937L349.271 195.79L350.65 195.834L350.151 211.486L348.772 211.442L349.213 197.589L349.509 197.719L342.029 209.216L341.34 209.195L334.58 197.153L334.942 197.105L334.499 210.987L333.12 210.943ZM362.866 212.012C361.367 211.964 360.038 211.581 358.881 210.864C357.743 210.148 356.843 209.178 356.182 207.957C355.541 206.736 355.244 205.356 355.293 203.816C355.343 202.257 355.727 200.899 356.444 199.741C357.182 198.564 358.141 197.654 359.322 197.011C360.523 196.369 361.873 196.072 363.373 196.12C364.872 196.168 366.2 196.55 367.358 197.267C368.516 197.985 369.416 198.954 370.057 200.175C370.699 201.376 370.995 202.756 370.945 204.315C370.896 205.855 370.513 207.213 369.795 208.391C369.077 209.568 368.118 210.478 366.917 211.12C365.716 211.762 364.365 212.06 362.866 212.012ZM362.909 210.663C364.109 210.701 365.197 210.465 366.173 209.956C367.151 209.427 367.925 208.671 368.497 207.689C369.068 206.707 369.375 205.566 369.416 204.267C369.458 202.947 369.225 201.789 368.717 200.793C368.209 199.776 367.484 198.982 366.541 198.412C365.6 197.822 364.529 197.507 363.33 197.469C362.13 197.431 361.042 197.676 360.065 198.206C359.108 198.715 358.334 199.461 357.742 200.443C357.171 201.405 356.865 202.546 356.823 203.865C356.781 205.164 357.014 206.322 357.522 207.339C358.05 208.357 358.775 209.16 359.697 209.75C360.639 210.32 361.71 210.624 362.909 210.663ZM375.579 212.297L376.078 196.645L377.547 196.692L384.558 209.312L383.899 209.291L391.73 197.144L393.109 197.188L392.61 212.84L391.231 212.796L391.672 198.943L391.968 199.072L384.488 210.57L383.798 210.548L377.039 198.507L377.4 198.458L376.958 212.341L375.579 212.297Z" fill="black"/>
</svg>
