<svg width="381" height="243" viewBox="0 0 381 243" fill="none" xmlns="http://www.w3.org/2000/svg">
<mask id="path-1-inside-1_204_7356" fill="white">
<path fill-rule="evenodd" clip-rule="evenodd" d="M190.94 242.855C227.324 242.855 259.97 226.852 282.225 201.502C287.692 202.653 293.359 203.259 299.169 203.259C344.363 203.259 381 166.621 381 121.427C381 76.233 344.363 39.5959 299.169 39.5959C293.359 39.5959 287.692 40.2012 282.225 41.3522C259.97 16.002 227.324 0 190.94 0C154.48 0 121.773 16.0692 99.5153 41.5116C93.8205 40.2571 87.9032 39.5958 81.8314 39.5958C36.6372 39.5958 0 76.233 0 121.427C0 166.621 36.6372 203.259 81.8314 203.259C87.9032 203.259 93.8205 202.597 99.5153 201.343C121.773 226.785 154.48 242.855 190.94 242.855Z"/>
</mask>
<path fill-rule="evenodd" clip-rule="evenodd" d="M190.94 242.855C227.324 242.855 259.97 226.852 282.225 201.502C287.692 202.653 293.359 203.259 299.169 203.259C344.363 203.259 381 166.621 381 121.427C381 76.233 344.363 39.5959 299.169 39.5959C293.359 39.5959 287.692 40.2012 282.225 41.3522C259.97 16.002 227.324 0 190.94 0C154.48 0 121.773 16.0692 99.5153 41.5116C93.8205 40.2571 87.9032 39.5958 81.8314 39.5958C36.6372 39.5958 0 76.233 0 121.427C0 166.621 36.6372 203.259 81.8314 203.259C87.9032 203.259 93.8205 202.597 99.5153 201.343C121.773 226.785 154.48 242.855 190.94 242.855Z" fill="white"/>
<path d="M282.225 201.502L282.843 198.567L281.127 198.205L279.97 199.523L282.225 201.502ZM282.225 41.3522L279.97 43.3314L281.127 44.649L282.843 44.2878L282.225 41.3522ZM99.5153 41.5116L98.8699 44.4414L100.604 44.8234L101.773 43.4869L99.5153 41.5116ZM99.5153 201.343L101.773 199.368L100.604 198.031L98.8699 198.413L99.5153 201.343ZM279.97 199.523C258.261 224.252 226.424 239.855 190.94 239.855V245.855C228.223 245.855 261.679 229.453 284.479 203.482L279.97 199.523ZM299.169 200.259C293.568 200.259 288.108 199.675 282.843 198.567L281.607 204.438C287.276 205.632 293.151 206.259 299.169 206.259V200.259ZM378 121.427C378 164.965 342.706 200.259 299.169 200.259V206.259C346.02 206.259 384 168.278 384 121.427L378 121.427ZM299.169 42.5959C342.706 42.5959 378 77.8899 378 121.427L384 121.427C384 74.5762 346.02 36.5959 299.169 36.5959V42.5959ZM282.843 44.2878C288.108 43.1793 293.568 42.5959 299.169 42.5959V36.5959C293.151 36.5959 287.276 37.223 281.607 38.4165L282.843 44.2878ZM190.94 3C226.424 3 258.261 18.6025 279.97 43.3314L284.479 39.3729C261.679 13.4016 228.223 -3 190.94 -3V3ZM101.773 43.4869C123.486 18.6679 155.381 3 190.94 3V-3C153.579 -3 120.061 13.4704 97.2574 39.5363L101.773 43.4869ZM81.8314 42.5958C87.6847 42.5958 93.3857 43.2333 98.8699 44.4414L100.161 38.5818C94.2553 37.281 88.1216 36.5958 81.8314 36.5958V42.5958ZM3 121.427C3 77.8899 38.294 42.5958 81.8314 42.5958V36.5958C34.9803 36.5958 -3 74.5762 -3 121.427H3ZM81.8314 200.259C38.294 200.259 3 164.965 3 121.427H-3C-3 168.278 34.9803 206.259 81.8314 206.259V200.259ZM98.8699 198.413C93.3857 199.621 87.6847 200.259 81.8314 200.259V206.259C88.1216 206.259 94.2553 205.574 100.161 204.273L98.8699 198.413ZM190.94 239.855C155.381 239.855 123.486 224.187 101.773 199.368L97.2573 203.318C120.061 229.384 153.579 245.855 190.94 245.855V239.855Z" fill="black" mask="url(#path-1-inside-1_204_7356)"/>
<path d="M56.78 113.427V92.4272H65.24C67.4 92.4272 69.1 92.8772 70.34 93.7772C71.6 94.6772 72.23 96.0072 72.23 97.7672C72.23 99.5072 71.62 100.817 70.4 101.697C69.2 102.577 67.63 103.017 65.69 103.017L66.2 102.417C68.54 102.417 70.31 102.877 71.51 103.797C72.71 104.717 73.31 106.067 73.31 107.847C73.31 109.627 72.69 111.007 71.45 111.987C70.21 112.947 68.33 113.427 65.81 113.427H56.78ZM58.31 112.137H65.84C67.78 112.137 69.25 111.787 70.25 111.087C71.27 110.367 71.78 109.257 71.78 107.757C71.78 106.237 71.27 105.137 70.25 104.457C69.25 103.757 67.78 103.407 65.84 103.407H58.31V112.137ZM58.31 102.147H65.21C66.95 102.147 68.29 101.797 69.23 101.097C70.19 100.377 70.67 99.3272 70.67 97.9472C70.67 96.5472 70.19 95.4972 69.23 94.7972C68.29 94.0772 66.95 93.7172 65.21 93.7172H58.31V102.147ZM90.29 113.427L83.57 105.597L84.83 104.877L92.09 113.427H90.29ZM78.74 113.427V97.7672H80.24V113.427H78.74ZM79.76 106.167V104.877H84.68V106.167H79.76ZM84.92 105.747L83.54 105.507L89.96 97.7672H91.61L84.92 105.747ZM92.7008 113.367L92.8508 112.077C92.9708 112.097 93.0908 112.127 93.2108 112.167C93.3508 112.187 93.4708 112.197 93.5708 112.197C94.2508 112.197 94.7908 111.947 95.1908 111.447C95.5908 110.927 95.8908 110.237 96.0908 109.377C96.3108 108.517 96.4608 107.547 96.5408 106.467C96.6408 105.387 96.7208 104.287 96.7808 103.167L97.0508 97.7672H108.031V113.427H106.531V98.6372L106.951 99.1172H98.0108L98.4008 98.6072L98.1608 103.287C98.0808 104.647 97.9708 105.947 97.8308 107.187C97.6908 108.427 97.4808 109.527 97.2008 110.487C96.9208 111.447 96.5208 112.207 96.0008 112.767C95.4808 113.307 94.8108 113.577 93.9908 113.577C93.7908 113.577 93.5808 113.557 93.3608 113.517C93.1608 113.477 92.9408 113.427 92.7008 113.367ZM114.511 113.427V97.7672H116.011V104.787H120.811V106.167H116.011V113.427H114.511ZM127.621 113.547C126.161 113.547 124.851 113.207 123.691 112.527C122.531 111.847 121.621 110.907 120.961 109.707C120.301 108.507 119.971 107.137 119.971 105.597C119.971 104.037 120.301 102.667 120.961 101.487C121.621 100.287 122.531 99.3472 123.691 98.6672C124.851 97.9872 126.161 97.6472 127.621 97.6472C129.101 97.6472 130.411 97.9872 131.551 98.6672C132.711 99.3472 133.621 100.287 134.281 101.487C134.941 102.667 135.271 104.037 135.271 105.597C135.271 107.137 134.941 108.507 134.281 109.707C133.621 110.907 132.711 111.847 131.551 112.527C130.411 113.207 129.101 113.547 127.621 113.547ZM127.621 112.227C128.801 112.227 129.851 111.947 130.771 111.387C131.711 110.827 132.441 110.047 132.961 109.047C133.501 108.047 133.771 106.897 133.771 105.597C133.771 104.277 133.501 103.127 132.961 102.147C132.441 101.147 131.711 100.377 130.771 99.8372C129.851 99.2772 128.801 98.9972 127.621 98.9972C126.461 98.9972 125.411 99.2772 124.471 99.8372C123.531 100.377 122.791 101.147 122.251 102.147C121.731 103.127 121.471 104.277 121.471 105.597C121.471 106.897 121.731 108.047 122.251 109.047C122.791 110.047 123.531 110.827 124.471 111.387C125.411 111.947 126.461 112.227 127.621 112.227ZM150.105 106.617C149.125 107.057 148.145 107.397 147.165 107.637C146.205 107.857 145.275 107.967 144.375 107.967C142.595 107.967 141.165 107.557 140.085 106.737C139.005 105.897 138.465 104.647 138.465 102.987V97.7672H139.965V102.897C139.965 104.157 140.385 105.107 141.225 105.747C142.065 106.387 143.185 106.707 144.585 106.707C145.425 106.707 146.315 106.597 147.255 106.377C148.195 106.157 149.155 105.827 150.135 105.387L150.105 106.617ZM149.955 113.427V97.7672H151.455V113.427H149.955ZM157.929 113.427V97.7672H159.429V111.117L170.589 97.7672H171.909V113.427H170.409V100.077L159.249 113.427H157.929ZM186.084 113.427V97.7672H187.554L194.964 110.157H194.304L201.744 97.7672H203.124V113.427H201.744V99.5672L202.044 99.6872L194.934 111.417H194.244L187.104 99.5972L187.464 99.5372V113.427H186.084ZM209.429 119.367C208.709 119.367 208.029 119.247 207.389 119.007C206.769 118.767 206.239 118.417 205.799 117.957L206.549 116.817C206.949 117.237 207.379 117.547 207.839 117.747C208.319 117.947 208.859 118.047 209.459 118.047C210.179 118.047 210.809 117.847 211.349 117.447C211.909 117.047 212.429 116.317 212.909 115.257L213.989 112.857L214.199 112.587L220.829 97.7672H222.359L214.319 115.557C213.899 116.517 213.439 117.267 212.939 117.807C212.459 118.367 211.929 118.767 211.349 119.007C210.769 119.247 210.129 119.367 209.429 119.367ZM213.959 113.817L206.699 97.7672H208.289L214.889 112.497L213.959 113.817ZM229.446 113.577C228.366 113.577 227.276 113.407 226.176 113.067C225.076 112.727 224.106 112.207 223.266 111.507L223.836 110.397C224.596 111.037 225.476 111.517 226.476 111.837C227.476 112.137 228.476 112.277 229.476 112.257C230.496 112.257 231.386 112.107 232.146 111.807C232.926 111.507 233.526 111.097 233.946 110.577C234.366 110.057 234.576 109.477 234.576 108.837C234.576 107.897 234.156 107.167 233.316 106.647C232.476 106.127 231.326 105.867 229.866 105.867H227.346V104.727H229.806C230.646 104.727 231.386 104.617 232.026 104.397C232.686 104.177 233.196 103.857 233.556 103.437C233.936 102.997 234.126 102.487 234.126 101.907C234.126 101.267 233.906 100.727 233.466 100.287C233.046 99.8272 232.466 99.4872 231.726 99.2672C231.006 99.0472 230.196 98.9372 229.296 98.9372C228.516 98.9572 227.706 99.0772 226.866 99.2972C226.046 99.5172 225.236 99.8472 224.436 100.287L223.956 99.0872C224.836 98.6072 225.726 98.2472 226.626 98.0072C227.526 97.7672 228.436 97.6372 229.356 97.6172C230.516 97.5972 231.576 97.7572 232.536 98.0972C233.496 98.4172 234.256 98.8872 234.816 99.5072C235.376 100.107 235.656 100.837 235.656 101.697C235.656 102.477 235.416 103.157 234.936 103.737C234.476 104.297 233.836 104.737 233.016 105.057C232.216 105.377 231.316 105.537 230.316 105.537L230.436 105.057C232.236 105.057 233.626 105.407 234.606 106.107C235.606 106.807 236.106 107.747 236.106 108.927C236.106 109.867 235.806 110.687 235.206 111.387C234.606 112.087 233.796 112.627 232.776 113.007C231.776 113.387 230.666 113.577 229.446 113.577ZM256.397 113.427V97.7672H257.897V113.427H256.397ZM247.547 103.467C249.507 103.487 250.987 103.917 251.987 104.757C253.007 105.577 253.517 106.787 253.517 108.387C253.517 110.047 252.977 111.317 251.897 112.197C250.817 113.077 249.257 113.507 247.217 113.487L241.367 113.427V97.7672H242.867V103.407L247.547 103.467ZM247.157 112.287C248.757 112.307 249.967 111.987 250.787 111.327C251.607 110.667 252.017 109.687 252.017 108.387C252.017 107.127 251.607 106.187 250.787 105.567C249.987 104.947 248.777 104.627 247.157 104.607L242.867 104.577V112.227L247.157 112.287ZM275.886 113.427L269.166 105.597L270.426 104.877L277.686 113.427H275.886ZM264.336 113.427V97.7672H265.836V113.427H264.336ZM265.356 106.167V104.877H270.276V106.167H265.356ZM270.516 105.747L269.136 105.507L275.556 97.7672H277.206L270.516 105.747ZM280.298 119.367C279.578 119.367 278.898 119.247 278.258 119.007C277.638 118.767 277.108 118.417 276.668 117.957L277.418 116.817C277.818 117.237 278.248 117.547 278.708 117.747C279.188 117.947 279.728 118.047 280.328 118.047C281.048 118.047 281.678 117.847 282.218 117.447C282.778 117.047 283.298 116.317 283.778 115.257L284.858 112.857L285.068 112.587L291.698 97.7672H293.228L285.188 115.557C284.768 116.517 284.308 117.267 283.808 117.807C283.328 118.367 282.798 118.767 282.218 119.007C281.638 119.247 280.998 119.367 280.298 119.367ZM284.828 113.817L277.568 97.7672H279.158L285.758 112.497L284.828 113.817ZM301.32 105.927V104.817H331.32V105.927H301.32ZM63.9451 150.427V134.767H70.5451C72.2651 134.767 73.6251 135.107 74.6251 135.787C75.6251 136.467 76.1251 137.457 76.1251 138.757C76.1251 140.037 75.6351 141.007 74.6551 141.667C73.6951 142.327 72.4451 142.657 70.9051 142.657L71.3251 142.207C73.1651 142.207 74.5151 142.547 75.3751 143.227C76.2351 143.907 76.6651 144.907 76.6651 146.227C76.6651 147.567 76.1751 148.607 75.1951 149.347C74.2351 150.067 72.7451 150.427 70.7251 150.427H63.9451ZM65.4151 149.197H70.6951C72.1551 149.197 73.2651 148.957 74.0251 148.477C74.7851 147.997 75.1651 147.227 75.1651 146.167C75.1651 145.087 74.8251 144.307 74.1451 143.827C73.4851 143.327 72.4151 143.077 70.9351 143.077H65.4151V149.197ZM65.4151 141.907H70.4551C71.7751 141.907 72.7951 141.657 73.5151 141.157C74.2551 140.657 74.6251 139.917 74.6251 138.937C74.6251 137.957 74.2551 137.227 73.5151 136.747C72.7951 136.247 71.7751 135.997 70.4551 135.997H65.4151V141.907ZM97.022 150.427V134.767H98.522V150.427H97.022ZM88.172 140.467C90.132 140.487 91.612 140.917 92.612 141.757C93.632 142.577 94.142 143.787 94.142 145.387C94.142 147.047 93.602 148.317 92.522 149.197C91.442 150.077 89.882 150.507 87.842 150.487L81.992 150.427V134.767H83.492V140.407L88.172 140.467ZM87.782 149.287C89.382 149.307 90.592 148.987 91.412 148.327C92.232 147.667 92.642 146.687 92.642 145.387C92.642 144.127 92.232 143.187 91.412 142.567C90.612 141.947 89.402 141.627 87.782 141.607L83.492 141.577V149.227L87.782 149.287ZM116.511 150.427L109.791 142.597L111.051 141.877L118.311 150.427H116.511ZM104.961 150.427V134.767H106.461V150.427H104.961ZM105.981 143.167V141.877H110.901V143.167H105.981ZM111.141 142.747L109.761 142.507L116.181 134.767H117.831L111.141 142.747ZM118.921 150.367L119.071 149.077C119.191 149.097 119.311 149.127 119.431 149.167C119.571 149.187 119.691 149.197 119.791 149.197C120.471 149.197 121.011 148.947 121.411 148.447C121.811 147.927 122.111 147.237 122.311 146.377C122.531 145.517 122.681 144.547 122.761 143.467C122.861 142.387 122.941 141.287 123.001 140.167L123.271 134.767H134.251V150.427H132.751V135.637L133.171 136.117H124.231L124.621 135.607L124.381 140.287C124.301 141.647 124.191 142.947 124.051 144.187C123.911 145.427 123.701 146.527 123.421 147.487C123.141 148.447 122.741 149.207 122.221 149.767C121.701 150.307 121.031 150.577 120.211 150.577C120.011 150.577 119.801 150.557 119.581 150.517C119.381 150.477 119.161 150.427 118.921 150.367ZM140.732 150.427V134.767H142.232V141.787H147.032V143.167H142.232V150.427H140.732ZM153.842 150.547C152.382 150.547 151.072 150.207 149.912 149.527C148.752 148.847 147.842 147.907 147.182 146.707C146.522 145.507 146.192 144.137 146.192 142.597C146.192 141.037 146.522 139.667 147.182 138.487C147.842 137.287 148.752 136.347 149.912 135.667C151.072 134.987 152.382 134.647 153.842 134.647C155.322 134.647 156.632 134.987 157.772 135.667C158.932 136.347 159.842 137.287 160.502 138.487C161.162 139.667 161.492 141.037 161.492 142.597C161.492 144.137 161.162 145.507 160.502 146.707C159.842 147.907 158.932 148.847 157.772 149.527C156.632 150.207 155.322 150.547 153.842 150.547ZM153.842 149.227C155.022 149.227 156.072 148.947 156.992 148.387C157.932 147.827 158.662 147.047 159.182 146.047C159.722 145.047 159.992 143.897 159.992 142.597C159.992 141.277 159.722 140.127 159.182 139.147C158.662 138.147 157.932 137.377 156.992 136.837C156.072 136.277 155.022 135.997 153.842 135.997C152.682 135.997 151.632 136.277 150.692 136.837C149.752 137.377 149.012 138.147 148.472 139.147C147.952 140.127 147.692 141.277 147.692 142.597C147.692 143.897 147.952 145.047 148.472 146.047C149.012 147.047 149.752 147.827 150.692 148.387C151.632 148.947 152.682 149.227 153.842 149.227ZM176.326 143.617C175.346 144.057 174.366 144.397 173.386 144.637C172.426 144.857 171.496 144.967 170.596 144.967C168.816 144.967 167.386 144.557 166.306 143.737C165.226 142.897 164.686 141.647 164.686 139.987V134.767H166.186V139.897C166.186 141.157 166.606 142.107 167.446 142.747C168.286 143.387 169.406 143.707 170.806 143.707C171.646 143.707 172.536 143.597 173.476 143.377C174.416 143.157 175.376 142.827 176.356 142.387L176.326 143.617ZM176.176 150.427V134.767H177.676V150.427H176.176ZM184.15 150.427V134.767H185.65V148.117L196.81 134.767H198.13V150.427H196.63V137.077L185.47 150.427H184.15ZM222.474 149.107L222.114 149.557V134.767H223.614V149.557L223.164 149.107H232.284L231.864 149.557V134.767H233.364V150.427H212.304V134.767H213.804V149.557L213.384 149.107H222.474ZM239.664 156.367C238.944 156.367 238.264 156.247 237.624 156.007C237.004 155.767 236.474 155.417 236.034 154.957L236.784 153.817C237.184 154.237 237.614 154.547 238.074 154.747C238.554 154.947 239.094 155.047 239.694 155.047C240.414 155.047 241.044 154.847 241.584 154.447C242.144 154.047 242.664 153.317 243.144 152.257L244.224 149.857L244.434 149.587L251.064 134.767H252.594L244.554 152.557C244.134 153.517 243.674 154.267 243.174 154.807C242.694 155.367 242.164 155.767 241.584 156.007C241.004 156.247 240.364 156.367 239.664 156.367ZM244.194 150.817L236.934 134.767H238.524L245.124 149.497L244.194 150.817ZM256.22 150.427V134.767H257.69L265.1 147.157H264.44L271.88 134.767H273.26V150.427H271.88V136.567L272.18 136.687L265.07 148.417H264.38L257.24 136.597L257.6 136.537V150.427H256.22Z" fill="black"/>
</svg>
