<svg width="473" height="149" viewBox="0 0 473 149" fill="none" xmlns="http://www.w3.org/2000/svg">
<path d="M470.871 74.6067C470.871 84.1269 464.715 93.4703 452.932 102.206C441.177 110.92 424.071 118.831 402.8 125.501C360.273 138.836 301.432 147.107 236.371 147.107C171.31 147.107 112.469 138.836 69.9427 125.501C48.6707 118.831 31.5654 110.92 19.8105 102.206C8.02691 93.4703 1.87109 84.1269 1.87109 74.6067C1.87109 65.0865 8.02691 55.7431 19.8105 47.0075C31.5654 38.2932 48.6707 30.3821 69.9427 23.7121C112.469 10.3776 171.31 2.10669 236.371 2.10669C301.432 2.10669 360.273 10.3776 402.8 23.7121C424.071 30.3821 441.177 38.2932 452.932 47.0075C464.715 55.7431 470.871 65.0865 470.871 74.6067Z" fill="white" stroke="black" stroke-width="3"/>
<path d="M112.78 67.15C111.22 67.15 109.77 66.89 108.43 66.37C107.11 65.83 105.96 65.08 104.98 64.12C104 63.16 103.24 62.04 102.7 60.76C102.16 59.46 101.89 58.04 101.89 56.5C101.89 54.96 102.16 53.55 102.7 52.27C103.24 50.97 104 49.84 104.98 48.88C105.98 47.92 107.14 47.18 108.46 46.66C109.78 46.12 111.22 45.85 112.78 45.85C114.26 45.85 115.64 46.09 116.92 46.57C118.22 47.05 119.33 47.78 120.25 48.76L119.29 49.75C118.39 48.87 117.39 48.24 116.29 47.86C115.21 47.46 114.06 47.26 112.84 47.26C111.5 47.26 110.25 47.49 109.09 47.95C107.95 48.41 106.95 49.06 106.09 49.9C105.25 50.74 104.59 51.72 104.11 52.84C103.65 53.96 103.42 55.18 103.42 56.5C103.42 57.82 103.65 59.04 104.11 60.16C104.59 61.28 105.25 62.26 106.09 63.1C106.95 63.94 107.95 64.59 109.09 65.05C110.25 65.51 111.5 65.74 112.84 65.74C114.06 65.74 115.21 65.55 116.29 65.17C117.39 64.77 118.39 64.12 119.29 63.22L120.25 64.21C119.33 65.19 118.22 65.93 116.92 66.43C115.64 66.91 114.26 67.15 112.78 67.15ZM127.067 67V52.24L127.487 52.69H120.947V51.34H134.687V52.69H128.147L128.567 52.24V67H127.067ZM137.718 72.94C136.998 72.94 136.318 72.82 135.678 72.58C135.058 72.34 134.528 71.99 134.088 71.53L134.838 70.39C135.238 70.81 135.668 71.12 136.128 71.32C136.608 71.52 137.148 71.62 137.748 71.62C138.468 71.62 139.098 71.42 139.638 71.02C140.198 70.62 140.718 69.89 141.198 68.83L142.278 66.43L142.488 66.16L149.118 51.34H150.648L142.608 69.13C142.188 70.09 141.728 70.84 141.228 71.38C140.748 71.94 140.218 72.34 139.638 72.58C139.058 72.82 138.418 72.94 137.718 72.94ZM142.248 67.39L134.988 51.34H136.578L143.178 66.07L142.248 67.39ZM164.429 66.28V52.69H156.269L156.089 56.59C156.049 57.69 155.979 58.79 155.879 59.89C155.779 60.97 155.619 61.97 155.399 62.89C155.179 63.79 154.869 64.52 154.469 65.08C154.089 65.64 153.589 65.95 152.969 66.01L151.469 65.68C152.109 65.72 152.629 65.49 153.029 64.99C153.429 64.47 153.739 63.77 153.959 62.89C154.179 62.01 154.339 61.02 154.439 59.92C154.559 58.8 154.649 57.66 154.709 56.5L154.919 51.34H165.929V66.28H164.429ZM150.779 70.9V65.68H168.449V70.9H167.039V67H152.219V70.9H150.779ZM179.359 67.12C177.779 67.12 176.379 66.78 175.159 66.1C173.959 65.42 173.009 64.48 172.309 63.28C171.629 62.08 171.289 60.71 171.289 59.17C171.289 57.61 171.609 56.24 172.249 55.06C172.909 53.86 173.809 52.92 174.949 52.24C176.089 51.56 177.369 51.22 178.789 51.22C180.209 51.22 181.479 51.55 182.599 52.21C183.739 52.87 184.629 53.8 185.269 55C185.929 56.18 186.259 57.55 186.259 59.11C186.259 59.17 186.249 59.24 186.229 59.32C186.229 59.38 186.229 59.45 186.229 59.53H172.399V58.36H185.419L184.819 58.93C184.839 57.71 184.579 56.62 184.039 55.66C183.519 54.68 182.809 53.92 181.909 53.38C181.009 52.82 179.969 52.54 178.789 52.54C177.629 52.54 176.589 52.82 175.669 53.38C174.769 53.92 174.059 54.68 173.539 55.66C173.019 56.62 172.759 57.72 172.759 58.96V59.23C172.759 60.51 173.039 61.65 173.599 62.65C174.179 63.63 174.969 64.4 175.969 64.96C176.969 65.5 178.109 65.77 179.389 65.77C180.389 65.77 181.319 65.59 182.179 65.23C183.059 64.87 183.799 64.32 184.399 63.58L185.269 64.57C184.589 65.41 183.729 66.05 182.689 66.49C181.669 66.91 180.559 67.12 179.359 67.12ZM191.16 67V51.34H192.66V58.48L203.28 58.48V51.34H204.78V67H203.28V59.8L192.66 59.8V67H191.16ZM214.108 67V52.24L214.528 52.69H207.988V51.34H221.728V52.69H215.188L215.608 52.24V67H214.108ZM224.699 53.77C224.359 53.77 224.059 53.65 223.799 53.41C223.559 53.15 223.439 52.84 223.439 52.48C223.439 52.12 223.559 51.82 223.799 51.58C224.059 51.34 224.359 51.22 224.699 51.22C225.039 51.22 225.329 51.34 225.569 51.58C225.829 51.82 225.959 52.12 225.959 52.48C225.959 52.84 225.829 53.15 225.569 53.41C225.329 53.65 225.039 53.77 224.699 53.77ZM224.699 67.12C224.359 67.12 224.059 67 223.799 66.76C223.559 66.5 223.439 66.19 223.439 65.83C223.439 65.47 223.559 65.17 223.799 64.93C224.059 64.69 224.359 64.57 224.699 64.57C225.039 64.57 225.329 64.69 225.569 64.93C225.829 65.17 225.959 65.47 225.959 65.83C225.959 66.19 225.829 66.5 225.569 66.76C225.329 67 225.039 67.12 224.699 67.12ZM237.18 67.15C236.94 67.15 236.7 67.13 236.46 67.09C236.24 67.07 235.98 67.03 235.68 66.97L235.86 65.56C236.2 65.64 236.53 65.68 236.85 65.68C237.77 65.68 238.51 65.32 239.07 64.6C239.65 63.88 240.09 62.75 240.39 61.21C240.69 59.65 240.89 57.62 240.99 55.12L241.29 46H255.06V67H253.53V46.9L253.98 47.38H242.25L242.7 46.9L242.4 55.09C242.32 57.21 242.17 59.03 241.95 60.55C241.73 62.05 241.41 63.29 240.99 64.27C240.59 65.25 240.07 65.98 239.43 66.46C238.81 66.92 238.06 67.15 237.18 67.15ZM268.568 67.12C266.988 67.12 265.588 66.78 264.368 66.1C263.168 65.42 262.218 64.48 261.518 63.28C260.838 62.08 260.498 60.71 260.498 59.17C260.498 57.61 260.818 56.24 261.458 55.06C262.118 53.86 263.018 52.92 264.158 52.24C265.298 51.56 266.578 51.22 267.998 51.22C269.418 51.22 270.688 51.55 271.808 52.21C272.948 52.87 273.838 53.8 274.478 55C275.138 56.18 275.468 57.55 275.468 59.11C275.468 59.17 275.458 59.24 275.438 59.32C275.438 59.38 275.438 59.45 275.438 59.53H261.608V58.36H274.628L274.028 58.93C274.048 57.71 273.788 56.62 273.248 55.66C272.728 54.68 272.018 53.92 271.118 53.38C270.218 52.82 269.178 52.54 267.998 52.54C266.838 52.54 265.798 52.82 264.878 53.38C263.978 53.92 263.268 54.68 262.748 55.66C262.228 56.62 261.968 57.72 261.968 58.96V59.23C261.968 60.51 262.248 61.65 262.808 62.65C263.388 63.63 264.178 64.4 265.178 64.96C266.178 65.5 267.318 65.77 268.598 65.77C269.598 65.77 270.528 65.59 271.388 65.23C272.268 64.87 273.008 64.32 273.608 63.58L274.478 64.57C273.798 65.41 272.938 66.05 271.898 66.49C270.878 66.91 269.768 67.12 268.568 67.12ZM287.209 67.15C285.949 67.15 284.829 66.93 283.849 66.49C282.889 66.05 282.069 65.4 281.389 64.54C280.729 63.68 280.219 62.62 279.859 61.36C279.499 60.08 279.319 58.61 279.319 56.95C279.319 55.33 279.479 53.94 279.799 52.78C280.119 51.6 280.539 50.61 281.059 49.81C281.599 48.99 282.209 48.32 282.889 47.8C283.569 47.28 284.269 46.87 284.989 46.57C285.729 46.25 286.459 46.01 287.179 45.85L294.109 44.2L294.349 45.61L287.749 47.14C287.289 47.26 286.749 47.42 286.129 47.62C285.529 47.8 284.909 48.09 284.269 48.49C283.649 48.87 283.069 49.41 282.529 50.11C282.009 50.79 281.579 51.67 281.239 52.75C280.919 53.83 280.759 55.17 280.759 56.77C280.759 57.07 280.769 57.31 280.789 57.49C280.809 57.67 280.829 57.87 280.849 58.09C280.889 58.29 280.929 58.59 280.969 58.99L280.279 58.63C280.399 57.31 280.789 56.15 281.449 55.15C282.109 54.15 282.969 53.37 284.029 52.81C285.089 52.25 286.289 51.97 287.629 51.97C289.089 51.97 290.379 52.29 291.499 52.93C292.639 53.55 293.529 54.43 294.169 55.57C294.809 56.69 295.129 57.99 295.129 59.47C295.129 60.95 294.799 62.27 294.139 63.43C293.499 64.59 292.579 65.5 291.379 66.16C290.199 66.82 288.809 67.15 287.209 67.15ZM287.449 65.86C288.649 65.86 289.709 65.59 290.629 65.05C291.569 64.49 292.299 63.73 292.819 62.77C293.339 61.81 293.599 60.72 293.599 59.5C293.599 58.28 293.339 57.21 292.819 56.29C292.299 55.37 291.569 54.65 290.629 54.13C289.709 53.59 288.639 53.32 287.419 53.32C286.219 53.32 285.149 53.58 284.209 54.1C283.289 54.62 282.569 55.34 282.049 56.26C281.529 57.18 281.269 58.25 281.269 59.47C281.269 60.69 281.529 61.78 282.049 62.74C282.589 63.7 283.319 64.46 284.239 65.02C285.179 65.58 286.249 65.86 287.449 65.86ZM306.536 67.12C304.956 67.12 303.556 66.78 302.336 66.1C301.136 65.42 300.186 64.48 299.486 63.28C298.806 62.08 298.466 60.71 298.466 59.17C298.466 57.61 298.786 56.24 299.426 55.06C300.086 53.86 300.986 52.92 302.126 52.24C303.266 51.56 304.546 51.22 305.966 51.22C307.386 51.22 308.656 51.55 309.776 52.21C310.916 52.87 311.806 53.8 312.446 55C313.106 56.18 313.436 57.55 313.436 59.11C313.436 59.17 313.426 59.24 313.406 59.32C313.406 59.38 313.406 59.45 313.406 59.53H299.576V58.36H312.596L311.996 58.93C312.016 57.71 311.756 56.62 311.216 55.66C310.696 54.68 309.986 53.92 309.086 53.38C308.186 52.82 307.146 52.54 305.966 52.54C304.806 52.54 303.766 52.82 302.846 53.38C301.946 53.92 301.236 54.68 300.716 55.66C300.196 56.62 299.936 57.72 299.936 58.96V59.23C299.936 60.51 300.216 61.65 300.776 62.65C301.356 63.63 302.146 64.4 303.146 64.96C304.146 65.5 305.286 65.77 306.566 65.77C307.566 65.77 308.496 65.59 309.356 65.23C310.236 64.87 310.976 64.32 311.576 63.58L312.446 64.57C311.766 65.41 310.906 66.05 309.866 66.49C308.846 66.91 307.736 67.12 306.536 67.12ZM328.667 66.28V52.69H320.507L320.327 56.59C320.287 57.69 320.217 58.79 320.117 59.89C320.017 60.97 319.857 61.97 319.637 62.89C319.417 63.79 319.107 64.52 318.707 65.08C318.327 65.64 317.827 65.95 317.207 66.01L315.707 65.68C316.347 65.72 316.867 65.49 317.267 64.99C317.667 64.47 317.977 63.77 318.197 62.89C318.417 62.01 318.577 61.02 318.677 59.92C318.797 58.8 318.887 57.66 318.947 56.5L319.157 51.34H330.167V66.28H328.667ZM315.017 70.9V65.68H332.687V70.9H331.277V67H316.457V70.9H315.017ZM343.597 67.12C342.017 67.12 340.617 66.78 339.397 66.1C338.197 65.42 337.247 64.48 336.547 63.28C335.867 62.08 335.527 60.71 335.527 59.17C335.527 57.61 335.847 56.24 336.487 55.06C337.147 53.86 338.047 52.92 339.187 52.24C340.327 51.56 341.607 51.22 343.027 51.22C344.447 51.22 345.717 51.55 346.837 52.21C347.977 52.87 348.867 53.8 349.507 55C350.167 56.18 350.497 57.55 350.497 59.11C350.497 59.17 350.487 59.24 350.467 59.32C350.467 59.38 350.467 59.45 350.467 59.53H336.637V58.36H349.657L349.057 58.93C349.077 57.71 348.817 56.62 348.277 55.66C347.757 54.68 347.047 53.92 346.147 53.38C345.247 52.82 344.207 52.54 343.027 52.54C341.867 52.54 340.827 52.82 339.907 53.38C339.007 53.92 338.297 54.68 337.777 55.66C337.257 56.62 336.997 57.72 336.997 58.96V59.23C336.997 60.51 337.277 61.65 337.837 62.65C338.417 63.63 339.207 64.4 340.207 64.96C341.207 65.5 342.347 65.77 343.627 65.77C344.627 65.77 345.557 65.59 346.417 65.23C347.297 64.87 348.037 64.32 348.637 63.58L349.507 64.57C348.827 65.41 347.967 66.05 346.927 66.49C345.907 66.91 344.797 67.12 343.597 67.12ZM355.398 67V51.34H361.998C363.718 51.34 365.078 51.68 366.078 52.36C367.078 53.04 367.578 54.03 367.578 55.33C367.578 56.61 367.088 57.58 366.108 58.24C365.148 58.9 363.898 59.23 362.358 59.23L362.778 58.78C364.618 58.78 365.968 59.12 366.828 59.8C367.688 60.48 368.118 61.48 368.118 62.8C368.118 64.14 367.628 65.18 366.648 65.92C365.688 66.64 364.198 67 362.178 67H355.398ZM356.868 65.77H362.148C363.608 65.77 364.718 65.53 365.478 65.05C366.238 64.57 366.618 63.8 366.618 62.74C366.618 61.66 366.278 60.88 365.598 60.4C364.938 59.9 363.868 59.65 362.388 59.65H356.868V65.77ZM356.868 58.48H361.908C363.228 58.48 364.248 58.23 364.968 57.73C365.708 57.23 366.078 56.49 366.078 55.51C366.078 54.53 365.708 53.8 364.968 53.32C364.248 52.82 363.228 52.57 361.908 52.57H356.868V58.48ZM383.225 67V63.43L383.165 62.89V57.01C383.165 55.55 382.765 54.44 381.965 53.68C381.185 52.92 380.035 52.54 378.515 52.54C377.435 52.54 376.425 52.73 375.485 53.11C374.565 53.47 373.775 53.94 373.115 54.52L372.365 53.44C373.145 52.74 374.085 52.2 375.185 51.82C376.285 51.42 377.435 51.22 378.635 51.22C380.575 51.22 382.065 51.71 383.105 52.69C384.145 53.67 384.665 55.13 384.665 57.07V67H383.225ZM377.585 67.12C376.425 67.12 375.415 66.94 374.555 66.58C373.715 66.2 373.065 65.67 372.605 64.99C372.165 64.31 371.945 63.53 371.945 62.65C371.945 61.85 372.125 61.13 372.485 60.49C372.865 59.83 373.485 59.3 374.345 58.9C375.205 58.48 376.355 58.27 377.795 58.27H383.555V59.44H377.825C376.205 59.44 375.065 59.74 374.405 60.34C373.765 60.94 373.445 61.69 373.445 62.59C373.445 63.59 373.825 64.39 374.585 64.99C375.345 65.59 376.415 65.89 377.795 65.89C379.115 65.89 380.225 65.59 381.125 64.99C382.045 64.39 382.725 63.52 383.165 62.38L383.585 63.4C383.165 64.54 382.445 65.45 381.425 66.13C380.425 66.79 379.145 67.12 377.585 67.12ZM103.78 104V83H112.24C114.4 83 116.1 83.45 117.34 84.35C118.6 85.25 119.23 86.58 119.23 88.34C119.23 90.08 118.62 91.39 117.4 92.27C116.2 93.15 114.63 93.59 112.69 93.59L113.2 92.99C115.54 92.99 117.31 93.45 118.51 94.37C119.71 95.29 120.31 96.64 120.31 98.42C120.31 100.2 119.69 101.58 118.45 102.56C117.21 103.52 115.33 104 112.81 104H103.78ZM105.31 102.71H112.84C114.78 102.71 116.25 102.36 117.25 101.66C118.27 100.94 118.78 99.83 118.78 98.33C118.78 96.81 118.27 95.71 117.25 95.03C116.25 94.33 114.78 93.98 112.84 93.98H105.31V102.71ZM105.31 92.72H112.21C113.95 92.72 115.29 92.37 116.23 91.67C117.19 90.95 117.67 89.9 117.67 88.52C117.67 87.12 117.19 86.07 116.23 85.37C115.29 84.65 113.95 84.29 112.21 84.29H105.31V92.72ZM135.52 104V100.43L135.46 99.89V94.01C135.46 92.55 135.06 91.44 134.26 90.68C133.48 89.92 132.33 89.54 130.81 89.54C129.73 89.54 128.72 89.73 127.78 90.11C126.86 90.47 126.07 90.94 125.41 91.52L124.66 90.44C125.44 89.74 126.38 89.2 127.48 88.82C128.58 88.42 129.73 88.22 130.93 88.22C132.87 88.22 134.36 88.71 135.4 89.69C136.44 90.67 136.96 92.13 136.96 94.07V104H135.52ZM129.88 104.12C128.72 104.12 127.71 103.94 126.85 103.58C126.01 103.2 125.36 102.67 124.9 101.99C124.46 101.31 124.24 100.53 124.24 99.65C124.24 98.85 124.42 98.13 124.78 97.49C125.16 96.83 125.78 96.3 126.64 95.9C127.5 95.48 128.65 95.27 130.09 95.27H135.85V96.44H130.12C128.5 96.44 127.36 96.74 126.7 97.34C126.06 97.94 125.74 98.69 125.74 99.59C125.74 100.59 126.12 101.39 126.88 101.99C127.64 102.59 128.71 102.89 130.09 102.89C131.41 102.89 132.52 102.59 133.42 101.99C134.34 101.39 135.02 100.52 135.46 99.38L135.88 100.4C135.46 101.54 134.74 102.45 133.72 103.13C132.72 103.79 131.44 104.12 129.88 104.12ZM139.964 103.94L140.114 102.65C140.234 102.67 140.354 102.7 140.474 102.74C140.614 102.76 140.734 102.77 140.834 102.77C141.514 102.77 142.054 102.52 142.454 102.02C142.854 101.5 143.154 100.81 143.354 99.95C143.574 99.09 143.724 98.12 143.804 97.04C143.904 95.96 143.984 94.86 144.044 93.74L144.314 88.34H155.294V104H153.794V89.21L154.214 89.69H145.274L145.664 89.18L145.424 93.86C145.344 95.22 145.234 96.52 145.094 97.76C144.954 99 144.744 100.1 144.464 101.06C144.184 102.02 143.784 102.78 143.264 103.34C142.744 103.88 142.074 104.15 141.254 104.15C141.054 104.15 140.844 104.13 140.624 104.09C140.424 104.05 140.204 104 139.964 103.94ZM168.255 104.12C166.675 104.12 165.275 103.78 164.055 103.1C162.855 102.42 161.905 101.48 161.205 100.28C160.525 99.08 160.185 97.71 160.185 96.17C160.185 94.61 160.505 93.24 161.145 92.06C161.805 90.86 162.705 89.92 163.845 89.24C164.985 88.56 166.265 88.22 167.685 88.22C169.105 88.22 170.375 88.55 171.495 89.21C172.635 89.87 173.525 90.8 174.165 92C174.825 93.18 175.155 94.55 175.155 96.11C175.155 96.17 175.145 96.24 175.125 96.32C175.125 96.38 175.125 96.45 175.125 96.53H161.295V95.36H174.315L173.715 95.93C173.735 94.71 173.475 93.62 172.935 92.66C172.415 91.68 171.705 90.92 170.805 90.38C169.905 89.82 168.865 89.54 167.685 89.54C166.525 89.54 165.485 89.82 164.565 90.38C163.665 90.92 162.955 91.68 162.435 92.66C161.915 93.62 161.655 94.72 161.655 95.96V96.23C161.655 97.51 161.935 98.65 162.495 99.65C163.075 100.63 163.865 101.4 164.865 101.96C165.865 102.5 167.005 102.77 168.285 102.77C169.285 102.77 170.215 102.59 171.075 102.23C171.955 101.87 172.695 101.32 173.295 100.58L174.165 101.57C173.485 102.41 172.625 103.05 171.585 103.49C170.565 103.91 169.455 104.12 168.255 104.12ZM187.946 104.12C186.566 104.12 185.316 103.8 184.196 103.16C183.096 102.52 182.216 101.61 181.556 100.43C180.916 99.23 180.596 97.81 180.596 96.17C180.596 94.53 180.916 93.12 181.556 91.94C182.216 90.74 183.096 89.82 184.196 89.18C185.316 88.54 186.566 88.22 187.946 88.22C189.426 88.22 190.746 88.56 191.906 89.24C193.086 89.9 194.006 90.83 194.666 92.03C195.346 93.23 195.686 94.61 195.686 96.17C195.686 97.73 195.346 99.11 194.666 100.31C194.006 101.51 193.086 102.45 191.906 103.13C190.746 103.79 189.426 104.12 187.946 104.12ZM180.086 109.82V88.34H181.526V93.47L181.286 96.2L181.586 98.93V109.82H180.086ZM187.856 102.77C189.056 102.77 190.136 102.5 191.096 101.96C192.056 101.4 192.806 100.62 193.346 99.62C193.906 98.62 194.186 97.47 194.186 96.17C194.186 94.85 193.906 93.7 193.346 92.72C192.806 91.72 192.056 90.95 191.096 90.41C190.136 89.85 189.056 89.57 187.856 89.57C186.656 89.57 185.576 89.85 184.616 90.41C183.676 90.95 182.926 91.72 182.366 92.72C181.826 93.7 181.556 94.85 181.556 96.17C181.556 97.47 181.826 98.62 182.366 99.62C182.926 100.62 183.676 101.4 184.616 101.96C185.576 102.5 186.656 102.77 187.856 102.77ZM200.564 104V88.34H202.064V101.69L213.224 88.34H214.544V104H213.044V90.65L201.884 104H200.564ZM231.183 104V98.24L231.513 98.6H225.963C224.003 98.6 222.473 98.18 221.373 97.34C220.293 96.48 219.753 95.22 219.753 93.56C219.753 91.8 220.343 90.49 221.523 89.63C222.703 88.77 224.263 88.34 226.203 88.34H232.563V104H231.183ZM219.663 104L224.013 97.97H225.603L221.313 104H219.663ZM231.183 97.82V89.21L231.513 89.66H226.293C224.693 89.66 223.453 89.97 222.573 90.59C221.693 91.21 221.253 92.22 221.253 93.62C221.253 96.18 222.873 97.46 226.113 97.46H231.513L231.183 97.82Z" fill="black"/>
</svg>
