<svg width="494" height="351" viewBox="0 0 494 351" fill="none" xmlns="http://www.w3.org/2000/svg">
<path d="M247.029 2.57515L302.473 78.9316L303.054 79.732L304.019 79.5131L418.906 53.4316L382.445 134.285L381.782 135.756L383.298 136.311L489.416 175.102L383.298 213.893L381.782 214.447L382.445 215.918L418.906 296.772L304.019 270.69L303.054 270.471L302.473 271.272L247.029 347.628L191.585 271.272L191.004 270.471L190.04 270.69L75.1524 296.772L111.613 215.918L112.277 214.447L110.761 213.893L4.64246 175.102L110.761 136.311L112.277 135.756L111.613 134.285L75.1524 53.4315L190.04 79.5131L191.004 79.732L191.585 78.9316L247.029 2.57515Z" fill="white" stroke="black" stroke-width="3"/>
<path d="M118.421 167V146H119.951V164.42L134.261 146H135.611V167H134.081V148.61L119.771 167H118.421ZM146.506 167.15C145.426 167.15 144.336 166.98 143.236 166.64C142.136 166.3 141.166 165.78 140.326 165.08L140.896 163.97C141.656 164.61 142.536 165.09 143.536 165.41C144.536 165.71 145.536 165.85 146.536 165.83C147.556 165.83 148.446 165.68 149.206 165.38C149.986 165.08 150.586 164.67 151.006 164.15C151.426 163.63 151.636 163.05 151.636 162.41C151.636 161.47 151.216 160.74 150.376 160.22C149.536 159.7 148.386 159.44 146.926 159.44H144.406V158.3H146.866C147.706 158.3 148.446 158.19 149.086 157.97C149.746 157.75 150.256 157.43 150.616 157.01C150.996 156.57 151.186 156.06 151.186 155.48C151.186 154.84 150.966 154.3 150.526 153.86C150.106 153.4 149.526 153.06 148.786 152.84C148.066 152.62 147.256 152.51 146.356 152.51C145.576 152.53 144.766 152.65 143.926 152.87C143.106 153.09 142.296 153.42 141.496 153.86L141.016 152.66C141.896 152.18 142.786 151.82 143.686 151.58C144.586 151.34 145.496 151.21 146.416 151.19C147.576 151.17 148.636 151.33 149.596 151.67C150.556 151.99 151.316 152.46 151.876 153.08C152.436 153.68 152.716 154.41 152.716 155.27C152.716 156.05 152.476 156.73 151.996 157.31C151.536 157.87 150.896 158.31 150.076 158.63C149.276 158.95 148.376 159.11 147.376 159.11L147.496 158.63C149.296 158.63 150.686 158.98 151.666 159.68C152.666 160.38 153.166 161.32 153.166 162.5C153.166 163.44 152.866 164.26 152.266 164.96C151.666 165.66 150.856 166.2 149.836 166.58C148.836 166.96 147.726 167.15 146.506 167.15ZM176.303 165.68L175.943 166.13V151.34H177.443V166.13L176.993 165.68H186.113L185.693 166.13V151.34H187.193V167H166.133V151.34H167.633V166.13L167.213 165.68H176.303ZM193.492 172.94C192.772 172.94 192.092 172.82 191.452 172.58C190.832 172.34 190.302 171.99 189.862 171.53L190.612 170.39C191.012 170.81 191.442 171.12 191.902 171.32C192.382 171.52 192.922 171.62 193.522 171.62C194.242 171.62 194.872 171.42 195.412 171.02C195.972 170.62 196.492 169.89 196.972 168.83L198.052 166.43L198.262 166.16L204.892 151.34H206.422L198.382 169.13C197.962 170.09 197.502 170.84 197.002 171.38C196.522 171.94 195.992 172.34 195.412 172.58C194.832 172.82 194.192 172.94 193.492 172.94ZM198.022 167.39L190.762 151.34H192.352L198.952 166.07L198.022 167.39ZM210.049 167V151.34H211.519L218.929 163.73H218.269L225.709 151.34H227.089V167H225.709V153.14L226.009 153.26L218.899 164.99H218.209L211.069 153.17L211.429 153.11V167H210.049ZM233.574 167V151.34H235.074V158.48H245.694V151.34H247.194V167H245.694V159.8H235.074V167H233.574ZM259.912 167.12C258.412 167.12 257.072 166.78 255.892 166.1C254.732 165.42 253.802 164.48 253.102 163.28C252.422 162.08 252.082 160.71 252.082 159.17C252.082 157.61 252.422 156.24 253.102 155.06C253.802 153.86 254.732 152.92 255.892 152.24C257.072 151.56 258.412 151.22 259.912 151.22C261.412 151.22 262.752 151.56 263.932 152.24C265.112 152.92 266.042 153.86 266.722 155.06C267.402 156.24 267.742 157.61 267.742 159.17C267.742 160.71 267.402 162.08 266.722 163.28C266.042 164.48 265.112 165.42 263.932 166.1C262.752 166.78 261.412 167.12 259.912 167.12ZM259.912 165.77C261.112 165.77 262.192 165.5 263.152 164.96C264.112 164.4 264.862 163.62 265.402 162.62C265.942 161.62 266.212 160.47 266.212 159.17C266.212 157.85 265.942 156.7 265.402 155.72C264.862 154.72 264.112 153.95 263.152 153.41C262.192 152.85 261.112 152.57 259.912 152.57C258.712 152.57 257.632 152.85 256.672 153.41C255.732 153.95 254.982 154.72 254.422 155.72C253.882 156.7 253.612 157.85 253.612 159.17C253.612 160.47 253.882 161.62 254.422 162.62C254.982 163.62 255.732 164.4 256.672 164.96C257.632 165.5 258.712 165.77 259.912 165.77ZM272.627 167V151.34H283.337V152.69H273.707L274.127 152.27V167H272.627ZM292.05 167.12C290.55 167.12 289.21 166.78 288.03 166.1C286.87 165.42 285.94 164.48 285.24 163.28C284.56 162.08 284.22 160.71 284.22 159.17C284.22 157.61 284.56 156.24 285.24 155.06C285.94 153.86 286.87 152.92 288.03 152.24C289.21 151.56 290.55 151.22 292.05 151.22C293.55 151.22 294.89 151.56 296.07 152.24C297.25 152.92 298.18 153.86 298.86 155.06C299.54 156.24 299.88 157.61 299.88 159.17C299.88 160.71 299.54 162.08 298.86 163.28C298.18 164.48 297.25 165.42 296.07 166.1C294.89 166.78 293.55 167.12 292.05 167.12ZM292.05 165.77C293.25 165.77 294.33 165.5 295.29 164.96C296.25 164.4 297 163.62 297.54 162.62C298.08 161.62 298.35 160.47 298.35 159.17C298.35 157.85 298.08 156.7 297.54 155.72C297 154.72 296.25 153.95 295.29 153.41C294.33 152.85 293.25 152.57 292.05 152.57C290.85 152.57 289.77 152.85 288.81 153.41C287.87 153.95 287.12 154.72 286.56 155.72C286.02 156.7 285.75 157.85 285.75 159.17C285.75 160.47 286.02 161.62 286.56 162.62C287.12 163.62 287.87 164.4 288.81 164.96C289.77 165.5 290.85 165.77 292.05 165.77ZM309.83 167L316.34 158.54L316.31 159.26L310.16 151.34H311.87L317.24 158.27H316.61L321.95 151.34H323.63L317.42 159.35L317.45 158.54L324.05 167H322.28L316.61 159.62L317.18 159.68L311.54 167H309.83ZM337.338 167V163.43L337.278 162.89V157.01C337.278 155.55 336.878 154.44 336.078 153.68C335.298 152.92 334.148 152.54 332.628 152.54C331.548 152.54 330.538 152.73 329.598 153.11C328.678 153.47 327.888 153.94 327.228 154.52L326.478 153.44C327.258 152.74 328.198 152.2 329.298 151.82C330.398 151.42 331.548 151.22 332.748 151.22C334.688 151.22 336.178 151.71 337.218 152.69C338.258 153.67 338.778 155.13 338.778 157.07V167H337.338ZM331.698 167.12C330.538 167.12 329.528 166.94 328.668 166.58C327.828 166.2 327.178 165.67 326.718 164.99C326.278 164.31 326.058 163.53 326.058 162.65C326.058 161.85 326.238 161.13 326.598 160.49C326.978 159.83 327.598 159.3 328.458 158.9C329.318 158.48 330.468 158.27 331.908 158.27H337.668V159.44H331.938C330.318 159.44 329.178 159.74 328.518 160.34C327.878 160.94 327.558 161.69 327.558 162.59C327.558 163.59 327.938 164.39 328.698 164.99C329.458 165.59 330.528 165.89 331.908 165.89C333.228 165.89 334.338 165.59 335.238 164.99C336.158 164.39 336.838 163.52 337.278 162.38L337.698 163.4C337.278 164.54 336.558 165.45 335.538 166.13C334.538 166.79 333.258 167.12 331.698 167.12ZM351.113 167.12C349.613 167.12 348.273 166.78 347.093 166.1C345.933 165.42 345.003 164.48 344.303 163.28C343.623 162.08 343.283 160.71 343.283 159.17C343.283 157.61 343.623 156.24 344.303 155.06C345.003 153.86 345.933 152.92 347.093 152.24C348.273 151.56 349.613 151.22 351.113 151.22C352.613 151.22 353.953 151.56 355.133 152.24C356.313 152.92 357.243 153.86 357.923 155.06C358.603 156.24 358.943 157.61 358.943 159.17C358.943 160.71 358.603 162.08 357.923 163.28C357.243 164.48 356.313 165.42 355.133 166.1C353.953 166.78 352.613 167.12 351.113 167.12ZM351.113 165.77C352.313 165.77 353.393 165.5 354.353 164.96C355.313 164.4 356.063 163.62 356.603 162.62C357.143 161.62 357.413 160.47 357.413 159.17C357.413 157.85 357.143 156.7 356.603 155.72C356.063 154.72 355.313 153.95 354.353 153.41C353.393 152.85 352.313 152.57 351.113 152.57C349.913 152.57 348.833 152.85 347.873 153.41C346.933 153.95 346.183 154.72 345.623 155.72C345.083 156.7 344.813 157.85 344.813 159.17C344.813 160.47 345.083 161.62 345.623 162.62C346.183 163.62 346.933 164.4 347.873 164.96C348.833 165.5 349.913 165.77 351.113 165.77ZM370.158 167.12C368.638 167.12 367.278 166.78 366.078 166.1C364.898 165.42 363.958 164.48 363.258 163.28C362.578 162.08 362.238 160.71 362.238 159.17C362.238 157.61 362.578 156.23 363.258 155.03C363.958 153.83 364.898 152.9 366.078 152.24C367.278 151.56 368.638 151.22 370.158 151.22C371.418 151.22 372.558 151.46 373.578 151.94C374.618 152.42 375.458 153.14 376.098 154.1L374.988 154.91C374.428 154.11 373.728 153.52 372.888 153.14C372.048 152.76 371.138 152.57 370.158 152.57C368.938 152.57 367.838 152.85 366.858 153.41C365.898 153.95 365.138 154.72 364.578 155.72C364.038 156.7 363.768 157.85 363.768 159.17C363.768 160.49 364.038 161.65 364.578 162.65C365.138 163.63 365.898 164.4 366.858 164.96C367.838 165.5 368.938 165.77 370.158 165.77C371.138 165.77 372.048 165.58 372.888 165.2C373.728 164.82 374.428 164.23 374.988 163.43L376.098 164.24C375.458 165.2 374.618 165.92 373.578 166.4C372.558 166.88 371.418 167.12 370.158 167.12ZM390.307 167V163.43L390.247 162.89V157.01C390.247 155.55 389.847 154.44 389.047 153.68C388.267 152.92 387.117 152.54 385.597 152.54C384.517 152.54 383.507 152.73 382.567 153.11C381.647 153.47 380.857 153.94 380.197 154.52L379.447 153.44C380.227 152.74 381.167 152.2 382.267 151.82C383.367 151.42 384.517 151.22 385.717 151.22C387.657 151.22 389.147 151.71 390.187 152.69C391.227 153.67 391.747 155.13 391.747 157.07V167H390.307ZM384.667 167.12C383.507 167.12 382.497 166.94 381.637 166.58C380.797 166.2 380.147 165.67 379.687 164.99C379.247 164.31 379.027 163.53 379.027 162.65C379.027 161.85 379.207 161.13 379.567 160.49C379.947 159.83 380.567 159.3 381.427 158.9C382.287 158.48 383.437 158.27 384.877 158.27H390.637V159.44H384.907C383.287 159.44 382.147 159.74 381.487 160.34C380.847 160.94 380.527 161.69 380.527 162.59C380.527 163.59 380.907 164.39 381.667 164.99C382.427 165.59 383.497 165.89 384.877 165.89C386.197 165.89 387.307 165.59 388.207 164.99C389.127 164.39 389.807 163.52 390.247 162.38L390.667 163.4C390.247 164.54 389.527 165.45 388.507 166.13C387.507 166.79 386.227 167.12 384.667 167.12ZM117.881 204V188.34H124.481C126.201 188.34 127.561 188.68 128.561 189.36C129.561 190.04 130.061 191.03 130.061 192.33C130.061 193.61 129.571 194.58 128.591 195.24C127.631 195.9 126.381 196.23 124.841 196.23L125.261 195.78C127.101 195.78 128.451 196.12 129.311 196.8C130.171 197.48 130.601 198.48 130.601 199.8C130.601 201.14 130.111 202.18 129.131 202.92C128.171 203.64 126.681 204 124.661 204H117.881ZM119.351 202.77H124.631C126.091 202.77 127.201 202.53 127.961 202.05C128.721 201.57 129.101 200.8 129.101 199.74C129.101 198.66 128.761 197.88 128.081 197.4C127.421 196.9 126.351 196.65 124.871 196.65H119.351V202.77ZM119.351 195.48H124.391C125.711 195.48 126.731 195.23 127.451 194.73C128.191 194.23 128.561 193.49 128.561 192.51C128.561 191.53 128.191 190.8 127.451 190.32C126.731 189.82 125.711 189.57 124.391 189.57H119.351V195.48ZM146.483 204V189.24L146.903 189.69H140.363V188.34H154.103V189.69H147.563L147.983 189.24V204H146.483ZM157.314 204V188.34H158.814V201.69L169.974 188.34H171.294V204H169.794V190.65L158.634 204H157.314ZM175.123 204L181.633 195.54L181.603 196.26L175.453 188.34H177.163L182.533 195.27H181.903L187.243 188.34H188.923L182.713 196.35L182.743 195.54L189.343 204H187.573L181.903 196.62L182.473 196.68L176.833 204H175.123ZM193.144 204V188.34H194.644V201.69L205.804 188.34H207.124V204H205.624V190.65L194.464 204H193.144ZM213.594 204V188.34H215.094V201.69L226.254 188.34H227.574V204H226.074V190.65L214.914 204H213.594ZM220.524 185.94C219.304 185.94 218.294 185.62 217.494 184.98C216.714 184.32 216.304 183.41 216.264 182.25H217.374C217.414 183.07 217.724 183.72 218.304 184.2C218.904 184.68 219.644 184.92 220.524 184.92C221.404 184.92 222.134 184.68 222.714 184.2C223.314 183.72 223.624 183.07 223.644 182.25H224.784C224.764 183.41 224.354 184.32 223.554 184.98C222.774 185.62 221.764 185.94 220.524 185.94ZM241.748 204V188.34H255.428V204H253.928V189.24L254.348 189.69L242.828 189.69L243.248 189.24V204H241.748ZM268.144 204.12C266.644 204.12 265.304 203.78 264.124 203.1C262.964 202.42 262.034 201.48 261.334 200.28C260.654 199.08 260.314 197.71 260.314 196.17C260.314 194.61 260.654 193.24 261.334 192.06C262.034 190.86 262.964 189.92 264.124 189.24C265.304 188.56 266.644 188.22 268.144 188.22C269.644 188.22 270.984 188.56 272.164 189.24C273.344 189.92 274.274 190.86 274.954 192.06C275.634 193.24 275.974 194.61 275.974 196.17C275.974 197.71 275.634 199.08 274.954 200.28C274.274 201.48 273.344 202.42 272.164 203.1C270.984 203.78 269.644 204.12 268.144 204.12ZM268.144 202.77C269.344 202.77 270.424 202.5 271.384 201.96C272.344 201.4 273.094 200.62 273.634 199.62C274.174 198.62 274.444 197.47 274.444 196.17C274.444 194.85 274.174 193.7 273.634 192.72C273.094 191.72 272.344 190.95 271.384 190.41C270.424 189.85 269.344 189.57 268.144 189.57C266.944 189.57 265.864 189.85 264.904 190.41C263.964 190.95 263.214 191.72 262.654 192.72C262.114 193.7 261.844 194.85 261.844 196.17C261.844 197.47 262.114 198.62 262.654 199.62C263.214 200.62 263.964 201.4 264.904 201.96C265.864 202.5 266.944 202.77 268.144 202.77ZM288.749 204.12C287.369 204.12 286.119 203.8 284.999 203.16C283.899 202.52 283.019 201.61 282.359 200.43C281.719 199.23 281.399 197.81 281.399 196.17C281.399 194.53 281.719 193.12 282.359 191.94C283.019 190.74 283.899 189.82 284.999 189.18C286.119 188.54 287.369 188.22 288.749 188.22C290.229 188.22 291.549 188.56 292.709 189.24C293.889 189.9 294.809 190.83 295.469 192.03C296.149 193.23 296.489 194.61 296.489 196.17C296.489 197.73 296.149 199.11 295.469 200.31C294.809 201.51 293.889 202.45 292.709 203.13C291.549 203.79 290.229 204.12 288.749 204.12ZM280.889 209.82V188.34H282.329V193.47L282.089 196.2L282.389 198.93V209.82H280.889ZM288.659 202.77C289.859 202.77 290.939 202.5 291.899 201.96C292.859 201.4 293.609 200.62 294.149 199.62C294.709 198.62 294.989 197.47 294.989 196.17C294.989 194.85 294.709 193.7 294.149 192.72C293.609 191.72 292.859 190.95 291.899 190.41C290.939 189.85 289.859 189.57 288.659 189.57C287.459 189.57 286.379 189.85 285.419 190.41C284.479 190.95 283.729 191.72 283.169 192.72C282.629 193.7 282.359 194.85 282.359 196.17C282.359 197.47 282.629 198.62 283.169 199.62C283.729 200.62 284.479 201.4 285.419 201.96C286.379 202.5 287.459 202.77 288.659 202.77ZM310.98 204V198.24L311.31 198.6H305.76C303.8 198.6 302.27 198.18 301.17 197.34C300.09 196.48 299.55 195.22 299.55 193.56C299.55 191.8 300.14 190.49 301.32 189.63C302.5 188.77 304.06 188.34 306 188.34H312.36V204H310.98ZM299.46 204L303.81 197.97H305.4L301.11 204H299.46ZM310.98 197.82V189.21L311.31 189.66H306.09C304.49 189.66 303.25 189.97 302.37 190.59C301.49 191.21 301.05 192.22 301.05 193.62C301.05 196.18 302.67 197.46 305.91 197.46H311.31L310.98 197.82ZM329.538 203.28V189.69H321.378L321.198 193.59C321.158 194.69 321.088 195.79 320.988 196.89C320.888 197.97 320.728 198.97 320.508 199.89C320.288 200.79 319.978 201.52 319.578 202.08C319.198 202.64 318.698 202.95 318.078 203.01L316.578 202.68C317.218 202.72 317.738 202.49 318.138 201.99C318.538 201.47 318.848 200.77 319.068 199.89C319.288 199.01 319.448 198.02 319.548 196.92C319.668 195.8 319.758 194.66 319.818 193.5L320.028 188.34H331.038V203.28H329.538ZM315.888 207.9V202.68H333.558V207.9H332.148V204H317.328V207.9H315.888ZM344.228 204.12C342.728 204.12 341.388 203.78 340.208 203.1C339.048 202.42 338.118 201.48 337.418 200.28C336.738 199.08 336.398 197.71 336.398 196.17C336.398 194.61 336.738 193.24 337.418 192.06C338.118 190.86 339.048 189.92 340.208 189.24C341.388 188.56 342.728 188.22 344.228 188.22C345.728 188.22 347.068 188.56 348.248 189.24C349.428 189.92 350.358 190.86 351.038 192.06C351.718 193.24 352.058 194.61 352.058 196.17C352.058 197.71 351.718 199.08 351.038 200.28C350.358 201.48 349.428 202.42 348.248 203.1C347.068 203.78 345.728 204.12 344.228 204.12ZM344.228 202.77C345.428 202.77 346.508 202.5 347.468 201.96C348.428 201.4 349.178 200.62 349.718 199.62C350.258 198.62 350.528 197.47 350.528 196.17C350.528 194.85 350.258 193.7 349.718 192.72C349.178 191.72 348.428 190.95 347.468 190.41C346.508 189.85 345.428 189.57 344.228 189.57C343.028 189.57 341.948 189.85 340.988 190.41C340.048 190.95 339.298 191.72 338.738 192.72C338.198 193.7 337.928 194.85 337.928 196.17C337.928 197.47 338.198 198.62 338.738 199.62C339.298 200.62 340.048 201.4 340.988 201.96C341.948 202.5 343.028 202.77 344.228 202.77ZM368.493 204L361.773 196.17L363.033 195.45L370.293 204H368.493ZM356.943 204V188.34H358.443V204H356.943ZM357.963 196.74V195.45H362.883V196.74H357.963ZM363.123 196.32L361.743 196.08L368.163 188.34H369.813L363.123 196.32Z" fill="black"/>
</svg>
