<svg width="472" height="148" viewBox="0 0 472 148" fill="none" xmlns="http://www.w3.org/2000/svg">
<path d="M470.5 74C470.5 83.5202 464.344 92.8636 452.561 101.599C440.806 110.314 423.7 118.225 402.428 124.895C359.902 138.229 301.061 146.5 236 146.5C170.939 146.5 112.098 138.229 69.5716 124.895C48.2996 118.225 31.1943 110.314 19.4394 101.599C7.65582 92.8636 1.5 83.5202 1.5 74C1.5 64.4798 7.65582 55.1364 19.4394 46.4009C31.1943 37.6865 48.2996 29.7754 69.5716 23.1054C112.098 9.77092 170.939 1.5 236 1.5C301.061 1.5 359.902 9.77092 402.428 23.1054C423.7 29.7754 440.806 37.6865 452.561 46.4009C464.344 55.1364 470.5 64.4798 470.5 74Z" fill="black" stroke="white" stroke-width="3"/>
<path d="M101.36 66L92.87 55.44L94.16 54.69L103.16 66H101.36ZM86.78 66V45H88.31V66H86.78ZM87.8 56.04V54.66H94.19V56.04H87.8ZM94.25 55.65L92.84 55.35L100.91 45H102.62L94.25 55.65ZM106.246 71.94C105.526 71.94 104.846 71.82 104.206 71.58C103.586 71.34 103.056 70.99 102.616 70.53L103.366 69.39C103.766 69.81 104.196 70.12 104.656 70.32C105.136 70.52 105.676 70.62 106.276 70.62C106.996 70.62 107.626 70.42 108.166 70.02C108.726 69.62 109.246 68.89 109.726 67.83L110.806 65.43L111.016 65.16L117.646 50.34H119.176L111.136 68.13C110.716 69.09 110.256 69.84 109.756 70.38C109.276 70.94 108.746 71.34 108.166 71.58C107.586 71.82 106.946 71.94 106.246 71.94ZM110.776 66.39L103.516 50.34H105.106L111.706 65.07L110.776 66.39ZM130.693 66.12C129.313 66.12 128.063 65.8 126.943 65.16C125.843 64.52 124.963 63.61 124.303 62.43C123.663 61.23 123.343 59.81 123.343 58.17C123.343 56.53 123.663 55.12 124.303 53.94C124.963 52.74 125.843 51.82 126.943 51.18C128.063 50.54 129.313 50.22 130.693 50.22C132.173 50.22 133.493 50.56 134.653 51.24C135.833 51.9 136.753 52.83 137.413 54.03C138.093 55.23 138.433 56.61 138.433 58.17C138.433 59.73 138.093 61.11 137.413 62.31C136.753 63.51 135.833 64.45 134.653 65.13C133.493 65.79 132.173 66.12 130.693 66.12ZM122.833 71.82V50.34H124.273V55.47L124.033 58.2L124.333 60.93V71.82H122.833ZM130.603 64.77C131.803 64.77 132.883 64.5 133.843 63.96C134.803 63.4 135.553 62.62 136.092 61.62C136.653 60.62 136.933 59.47 136.933 58.17C136.933 56.85 136.653 55.7 136.092 54.72C135.553 53.72 134.803 52.95 133.843 52.41C132.883 51.85 131.803 51.57 130.603 51.57C129.403 51.57 128.323 51.85 127.363 52.41C126.423 52.95 125.673 53.72 125.113 54.72C124.573 55.7 124.303 56.85 124.303 58.17C124.303 59.47 124.573 60.62 125.113 61.62C125.673 62.62 126.423 63.4 127.363 63.96C128.323 64.5 129.403 64.77 130.603 64.77ZM153.032 66V62.43L152.972 61.89V56.01C152.972 54.55 152.572 53.44 151.772 52.68C150.992 51.92 149.842 51.54 148.322 51.54C147.242 51.54 146.232 51.73 145.292 52.11C144.372 52.47 143.582 52.94 142.922 53.52L142.172 52.44C142.952 51.74 143.892 51.2 144.992 50.82C146.092 50.42 147.242 50.22 148.442 50.22C150.382 50.22 151.872 50.71 152.912 51.69C153.952 52.67 154.472 54.13 154.472 56.07V66H153.032ZM147.392 66.12C146.232 66.12 145.222 65.94 144.362 65.58C143.522 65.2 142.872 64.67 142.412 63.99C141.972 63.31 141.752 62.53 141.752 61.65C141.752 60.85 141.932 60.13 142.292 59.49C142.672 58.83 143.292 58.3 144.152 57.9C145.012 57.48 146.162 57.27 147.602 57.27H153.362V58.44H147.632C146.012 58.44 144.872 58.74 144.212 59.34C143.572 59.94 143.252 60.69 143.252 61.59C143.252 62.59 143.632 63.39 144.392 63.99C145.152 64.59 146.222 64.89 147.602 64.89C148.922 64.89 150.032 64.59 150.932 63.99C151.852 63.39 152.532 62.52 152.972 61.38L153.392 62.4C152.972 63.54 152.252 64.45 151.232 65.13C150.232 65.79 148.952 66.12 147.392 66.12ZM163.416 66V51.24L163.836 51.69H157.296V50.34H171.036V51.69H164.496L164.916 51.24V66H163.416ZM179.755 66.12C178.255 66.12 176.915 65.78 175.735 65.1C174.575 64.42 173.645 63.48 172.945 62.28C172.265 61.08 171.925 59.71 171.925 58.17C171.925 56.61 172.265 55.24 172.945 54.06C173.645 52.86 174.575 51.92 175.735 51.24C176.915 50.56 178.255 50.22 179.755 50.22C181.255 50.22 182.595 50.56 183.775 51.24C184.955 51.92 185.885 52.86 186.565 54.06C187.245 55.24 187.585 56.61 187.585 58.17C187.585 59.71 187.245 61.08 186.565 62.28C185.885 63.48 184.955 64.42 183.775 65.1C182.595 65.78 181.255 66.12 179.755 66.12ZM179.755 64.77C180.955 64.77 182.035 64.5 182.995 63.96C183.955 63.4 184.705 62.62 185.245 61.62C185.785 60.62 186.055 59.47 186.055 58.17C186.055 56.85 185.785 55.7 185.245 54.72C184.705 53.72 183.955 52.95 182.995 52.41C182.035 51.85 180.955 51.57 179.755 51.57C178.555 51.57 177.475 51.85 176.515 52.41C175.575 52.95 174.825 53.72 174.265 54.72C173.725 55.7 173.455 56.85 173.455 58.17C173.455 59.47 173.725 60.62 174.265 61.62C174.825 62.62 175.575 63.4 176.515 63.96C177.475 64.5 178.555 64.77 179.755 64.77ZM200.36 66.12C198.98 66.12 197.73 65.8 196.61 65.16C195.51 64.52 194.63 63.61 193.97 62.43C193.33 61.23 193.01 59.81 193.01 58.17C193.01 56.53 193.33 55.12 193.97 53.94C194.63 52.74 195.51 51.82 196.61 51.18C197.73 50.54 198.98 50.22 200.36 50.22C201.84 50.22 203.16 50.56 204.32 51.24C205.5 51.9 206.42 52.83 207.08 54.03C207.76 55.23 208.1 56.61 208.1 58.17C208.1 59.73 207.76 61.11 207.08 62.31C206.42 63.51 205.5 64.45 204.32 65.13C203.16 65.79 201.84 66.12 200.36 66.12ZM192.5 71.82V50.34H193.94V55.47L193.7 58.2L194 60.93V71.82H192.5ZM200.27 64.77C201.47 64.77 202.55 64.5 203.51 63.96C204.47 63.4 205.22 62.62 205.76 61.62C206.32 60.62 206.6 59.47 206.6 58.17C206.6 56.85 206.32 55.7 205.76 54.72C205.22 53.72 204.47 52.95 203.51 52.41C202.55 51.85 201.47 51.57 200.27 51.57C199.07 51.57 197.99 51.85 197.03 52.41C196.09 52.95 195.34 53.72 194.78 54.72C194.24 55.7 193.97 56.85 193.97 58.17C193.97 59.47 194.24 60.62 194.78 61.62C195.34 62.62 196.09 63.4 197.03 63.96C197.99 64.5 199.07 64.77 200.27 64.77ZM212.738 52.77C212.398 52.77 212.098 52.65 211.838 52.41C211.598 52.15 211.478 51.84 211.478 51.48C211.478 51.12 211.598 50.82 211.838 50.58C212.098 50.34 212.398 50.22 212.738 50.22C213.078 50.22 213.368 50.34 213.608 50.58C213.868 50.82 213.998 51.12 213.998 51.48C213.998 51.84 213.868 52.15 213.608 52.41C213.368 52.65 213.078 52.77 212.738 52.77ZM212.738 66.12C212.398 66.12 212.098 66 211.838 65.76C211.598 65.5 211.478 65.19 211.478 64.83C211.478 64.47 211.598 64.17 211.838 63.93C212.098 63.69 212.398 63.57 212.738 63.57C213.078 63.57 213.368 63.69 213.608 63.93C213.868 64.17 213.998 64.47 213.998 64.83C213.998 65.19 213.868 65.5 213.608 65.76C213.368 66 213.078 66.12 212.738 66.12ZM243.934 66.15C242.374 66.15 240.924 65.89 239.584 65.37C238.264 64.83 237.114 64.08 236.134 63.12C235.154 62.16 234.394 61.04 233.854 59.76C233.314 58.46 233.044 57.04 233.044 55.5C233.044 53.96 233.314 52.55 233.854 51.27C234.394 49.97 235.154 48.84 236.134 47.88C237.134 46.92 238.294 46.18 239.614 45.66C240.934 45.12 242.374 44.85 243.934 44.85C245.414 44.85 246.794 45.09 248.074 45.57C249.374 46.05 250.484 46.78 251.404 47.76L250.444 48.75C249.544 47.87 248.544 47.24 247.444 46.86C246.364 46.46 245.214 46.26 243.994 46.26C242.654 46.26 241.404 46.49 240.244 46.95C239.104 47.41 238.104 48.06 237.244 48.9C236.404 49.74 235.744 50.72 235.264 51.84C234.804 52.96 234.574 54.18 234.574 55.5C234.574 56.82 234.804 58.04 235.264 59.16C235.744 60.28 236.404 61.26 237.244 62.1C238.104 62.94 239.104 63.59 240.244 64.05C241.404 64.51 242.654 64.74 243.994 64.74C245.214 64.74 246.364 64.55 247.444 64.17C248.544 63.77 249.544 63.12 250.444 62.22L251.404 63.21C250.484 64.19 249.374 64.93 248.074 65.43C246.794 65.91 245.414 66.15 243.934 66.15ZM255.63 71.94C254.91 71.94 254.23 71.82 253.59 71.58C252.97 71.34 252.44 70.99 252 70.53L252.75 69.39C253.15 69.81 253.58 70.12 254.04 70.32C254.52 70.52 255.06 70.62 255.66 70.62C256.38 70.62 257.01 70.42 257.55 70.02C258.11 69.62 258.63 68.89 259.11 67.83L260.19 65.43L260.4 65.16L267.03 50.34H268.56L260.52 68.13C260.1 69.09 259.64 69.84 259.14 70.38C258.66 70.94 258.13 71.34 257.55 71.58C256.97 71.82 256.33 71.94 255.63 71.94ZM260.16 66.39L252.9 50.34H254.49L261.09 65.07L260.16 66.39ZM278.764 66.15C277.504 66.15 276.384 65.93 275.404 65.49C274.444 65.05 273.624 64.4 272.944 63.54C272.284 62.68 271.774 61.62 271.414 60.36C271.054 59.08 270.874 57.61 270.874 55.95C270.874 54.33 271.034 52.94 271.354 51.78C271.674 50.6 272.094 49.61 272.614 48.81C273.154 47.99 273.764 47.32 274.444 46.8C275.124 46.28 275.824 45.87 276.544 45.57C277.284 45.25 278.014 45.01 278.734 44.85L285.664 43.2L285.904 44.61L279.304 46.14C278.844 46.26 278.304 46.42 277.684 46.62C277.084 46.8 276.464 47.09 275.824 47.49C275.204 47.87 274.624 48.41 274.084 49.11C273.564 49.79 273.134 50.67 272.794 51.75C272.474 52.83 272.314 54.17 272.314 55.77C272.314 56.07 272.324 56.31 272.344 56.49C272.364 56.67 272.384 56.87 272.404 57.09C272.444 57.29 272.484 57.59 272.524 57.99L271.834 57.63C271.954 56.31 272.344 55.15 273.004 54.15C273.664 53.15 274.524 52.37 275.584 51.81C276.644 51.25 277.844 50.97 279.184 50.97C280.644 50.97 281.934 51.29 283.054 51.93C284.194 52.55 285.084 53.43 285.724 54.57C286.364 55.69 286.684 56.99 286.684 58.47C286.684 59.95 286.354 61.27 285.694 62.43C285.054 63.59 284.134 64.5 282.934 65.16C281.754 65.82 280.364 66.15 278.764 66.15ZM279.004 64.86C280.204 64.86 281.264 64.59 282.184 64.05C283.124 63.49 283.854 62.73 284.374 61.77C284.894 60.81 285.154 59.72 285.154 58.5C285.154 57.28 284.894 56.21 284.374 55.29C283.854 54.37 283.124 53.65 282.184 53.13C281.264 52.59 280.194 52.32 278.974 52.32C277.774 52.32 276.704 52.58 275.764 53.1C274.844 53.62 274.124 54.34 273.604 55.26C273.084 56.18 272.824 57.25 272.824 58.47C272.824 59.69 273.084 60.78 273.604 61.74C274.144 62.7 274.874 63.46 275.794 64.02C276.734 64.58 277.804 64.86 279.004 64.86ZM298.451 66.15C297.191 66.15 296.071 65.93 295.091 65.49C294.131 65.05 293.311 64.4 292.631 63.54C291.971 62.68 291.461 61.62 291.101 60.36C290.741 59.08 290.561 57.61 290.561 55.95C290.561 54.33 290.721 52.94 291.041 51.78C291.361 50.6 291.781 49.61 292.301 48.81C292.841 47.99 293.451 47.32 294.131 46.8C294.811 46.28 295.511 45.87 296.231 45.57C296.971 45.25 297.701 45.01 298.421 44.85L305.351 43.2L305.591 44.61L298.991 46.14C298.531 46.26 297.991 46.42 297.371 46.62C296.771 46.8 296.151 47.09 295.511 47.49C294.891 47.87 294.311 48.41 293.771 49.11C293.251 49.79 292.821 50.67 292.481 51.75C292.161 52.83 292.001 54.17 292.001 55.77C292.001 56.07 292.011 56.31 292.031 56.49C292.051 56.67 292.071 56.87 292.091 57.09C292.131 57.29 292.171 57.59 292.211 57.99L291.521 57.63C291.641 56.31 292.031 55.15 292.691 54.15C293.351 53.15 294.211 52.37 295.271 51.81C296.331 51.25 297.531 50.97 298.871 50.97C300.331 50.97 301.621 51.29 302.741 51.93C303.881 52.55 304.771 53.43 305.411 54.57C306.051 55.69 306.371 56.99 306.371 58.47C306.371 59.95 306.041 61.27 305.381 62.43C304.741 63.59 303.821 64.5 302.621 65.16C301.441 65.82 300.051 66.15 298.451 66.15ZM298.691 64.86C299.891 64.86 300.951 64.59 301.871 64.05C302.811 63.49 303.541 62.73 304.061 61.77C304.581 60.81 304.841 59.72 304.841 58.5C304.841 57.28 304.581 56.21 304.061 55.29C303.541 54.37 302.811 53.65 301.871 53.13C300.951 52.59 299.881 52.32 298.661 52.32C297.461 52.32 296.391 52.58 295.451 53.1C294.531 53.62 293.811 54.34 293.291 55.26C292.771 56.18 292.511 57.25 292.511 58.47C292.511 59.69 292.771 60.78 293.291 61.74C293.831 62.7 294.561 63.46 295.481 64.02C296.421 64.58 297.491 64.86 298.691 64.86ZM317.539 66.12C316.039 66.12 314.699 65.78 313.519 65.1C312.359 64.42 311.429 63.48 310.729 62.28C310.049 61.08 309.709 59.71 309.709 58.17C309.709 56.61 310.049 55.24 310.729 54.06C311.429 52.86 312.359 51.92 313.519 51.24C314.699 50.56 316.039 50.22 317.539 50.22C319.039 50.22 320.379 50.56 321.559 51.24C322.739 51.92 323.669 52.86 324.349 54.06C325.029 55.24 325.369 56.61 325.369 58.17C325.369 59.71 325.029 61.08 324.349 62.28C323.669 63.48 322.739 64.42 321.559 65.1C320.379 65.78 319.039 66.12 317.539 66.12ZM317.539 64.77C318.739 64.77 319.819 64.5 320.779 63.96C321.739 63.4 322.489 62.62 323.029 61.62C323.569 60.62 323.839 59.47 323.839 58.17C323.839 56.85 323.569 55.7 323.029 54.72C322.489 53.72 321.739 52.95 320.779 52.41C319.819 51.85 318.739 51.57 317.539 51.57C316.339 51.57 315.259 51.85 314.299 52.41C313.359 52.95 312.609 53.72 312.049 54.72C311.509 55.7 311.239 56.85 311.239 58.17C311.239 59.47 311.509 60.62 312.049 61.62C312.609 62.62 313.359 63.4 314.299 63.96C315.259 64.5 316.339 64.77 317.539 64.77ZM332.518 66V51.24L332.938 51.69H326.398V50.34H340.138V51.69H333.598L334.018 51.24V66H332.518ZM343.349 66V50.34H344.849V63.69L356.009 50.34H357.329V66H355.829V52.65L344.669 66H343.349ZM363.799 66V50.34H365.299V57.48H375.919V50.34H377.419V66H375.919V58.8H365.299V66H363.799ZM99.65 103V95.95L100.13 96.4H92.96C91.34 96.4 89.94 96.12 88.76 95.56C87.6 95 86.71 94.19 86.09 93.13C85.49 92.07 85.19 90.8 85.19 89.32C85.19 87.74 85.52 86.41 86.18 85.33C86.86 84.23 87.8 83.4 89 82.84C90.22 82.28 91.64 82 93.26 82H101.18V103H99.65ZM85.19 103L90.32 95.65H91.94L86.84 103H85.19ZM99.65 95.56V82.9L100.13 83.38H93.38C91.28 83.38 89.65 83.88 88.49 84.88C87.33 85.88 86.75 87.35 86.75 89.29C86.75 91.13 87.28 92.56 88.34 93.58C89.42 94.58 91.01 95.08 93.11 95.08H100.13L99.65 95.56ZM116.103 103.12C114.723 103.12 113.473 102.8 112.353 102.16C111.253 101.52 110.373 100.61 109.713 99.43C109.073 98.23 108.753 96.81 108.753 95.17C108.753 93.53 109.073 92.12 109.713 90.94C110.373 89.74 111.253 88.82 112.353 88.18C113.473 87.54 114.723 87.22 116.103 87.22C117.583 87.22 118.903 87.56 120.063 88.24C121.243 88.9 122.163 89.83 122.823 91.03C123.503 92.23 123.843 93.61 123.843 95.17C123.843 96.73 123.503 98.11 122.823 99.31C122.163 100.51 121.243 101.45 120.063 102.13C118.903 102.79 117.583 103.12 116.103 103.12ZM108.243 108.82V87.34H109.683V92.47L109.443 95.2L109.743 97.93V108.82H108.243ZM116.013 101.77C117.213 101.77 118.293 101.5 119.253 100.96C120.213 100.4 120.963 99.62 121.503 98.62C122.063 97.62 122.343 96.47 122.343 95.17C122.343 93.85 122.063 92.7 121.503 91.72C120.963 90.72 120.213 89.95 119.253 89.41C118.293 88.85 117.213 88.57 116.013 88.57C114.813 88.57 113.733 88.85 112.773 89.41C111.833 89.95 111.083 90.72 110.523 91.72C109.983 92.7 109.713 93.85 109.713 95.17C109.713 96.47 109.983 97.62 110.523 98.62C111.083 99.62 111.833 100.4 112.773 100.96C113.733 101.5 114.813 101.77 116.013 101.77ZM134.96 103.12C133.46 103.12 132.12 102.78 130.94 102.1C129.78 101.42 128.85 100.48 128.15 99.28C127.47 98.08 127.13 96.71 127.13 95.17C127.13 93.61 127.47 92.24 128.15 91.06C128.85 89.86 129.78 88.92 130.94 88.24C132.12 87.56 133.46 87.22 134.96 87.22C136.46 87.22 137.8 87.56 138.98 88.24C140.16 88.92 141.09 89.86 141.77 91.06C142.45 92.24 142.79 93.61 142.79 95.17C142.79 96.71 142.45 98.08 141.77 99.28C141.09 100.48 140.16 101.42 138.98 102.1C137.8 102.78 136.46 103.12 134.96 103.12ZM134.96 101.77C136.16 101.77 137.24 101.5 138.2 100.96C139.16 100.4 139.91 99.62 140.45 98.62C140.99 97.62 141.26 96.47 141.26 95.17C141.26 93.85 140.99 92.7 140.45 91.72C139.91 90.72 139.16 89.95 138.2 89.41C137.24 88.85 136.16 88.57 134.96 88.57C133.76 88.57 132.68 88.85 131.72 89.41C130.78 89.95 130.03 90.72 129.47 91.72C128.93 92.7 128.66 93.85 128.66 95.17C128.66 96.47 128.93 97.62 129.47 98.62C130.03 99.62 130.78 100.4 131.72 100.96C132.68 101.5 133.76 101.77 134.96 101.77ZM154.006 103.12C152.486 103.12 151.126 102.78 149.926 102.1C148.746 101.42 147.806 100.48 147.106 99.28C146.426 98.08 146.086 96.71 146.086 95.17C146.086 93.61 146.426 92.23 147.106 91.03C147.806 89.83 148.746 88.9 149.926 88.24C151.126 87.56 152.486 87.22 154.006 87.22C155.266 87.22 156.406 87.46 157.426 87.94C158.466 88.42 159.306 89.14 159.946 90.1L158.836 90.91C158.276 90.11 157.576 89.52 156.736 89.14C155.896 88.76 154.986 88.57 154.006 88.57C152.786 88.57 151.686 88.85 150.706 89.41C149.746 89.95 148.986 90.72 148.426 91.72C147.886 92.7 147.616 93.85 147.616 95.17C147.616 96.49 147.886 97.65 148.426 98.65C148.986 99.63 149.746 100.4 150.706 100.96C151.686 101.5 152.786 101.77 154.006 101.77C154.986 101.77 155.896 101.58 156.736 101.2C157.576 100.82 158.276 100.23 158.836 99.43L159.946 100.24C159.306 101.2 158.466 101.92 157.426 102.4C156.406 102.88 155.266 103.12 154.006 103.12ZM160.64 102.94L160.79 101.65C160.91 101.67 161.03 101.7 161.15 101.74C161.29 101.76 161.41 101.77 161.51 101.77C162.19 101.77 162.73 101.52 163.13 101.02C163.53 100.5 163.83 99.81 164.03 98.95C164.25 98.09 164.4 97.12 164.48 96.04C164.58 94.96 164.66 93.86 164.72 92.74L164.99 87.34H175.97V103H174.47V88.21L174.89 88.69H165.95L166.34 88.18L166.1 92.86C166.02 94.22 165.91 95.52 165.77 96.76C165.63 98 165.42 99.1 165.14 100.06C164.86 101.02 164.46 101.78 163.94 102.34C163.42 102.88 162.75 103.15 161.93 103.15C161.73 103.15 161.52 103.13 161.3 103.09C161.1 103.05 160.88 103 160.64 102.94ZM192.231 103V99.43L192.171 98.89V93.01C192.171 91.55 191.771 90.44 190.971 89.68C190.191 88.92 189.041 88.54 187.521 88.54C186.441 88.54 185.431 88.73 184.491 89.11C183.571 89.47 182.781 89.94 182.121 90.52L181.371 89.44C182.151 88.74 183.091 88.2 184.191 87.82C185.291 87.42 186.441 87.22 187.641 87.22C189.581 87.22 191.071 87.71 192.111 88.69C193.151 89.67 193.671 91.13 193.671 93.07V103H192.231ZM186.591 103.12C185.431 103.12 184.421 102.94 183.561 102.58C182.721 102.2 182.071 101.67 181.611 100.99C181.171 100.31 180.951 99.53 180.951 98.65C180.951 97.85 181.131 97.13 181.491 96.49C181.871 95.83 182.491 95.3 183.351 94.9C184.211 94.48 185.361 94.27 186.801 94.27H192.561V95.44H186.831C185.211 95.44 184.071 95.74 183.411 96.34C182.771 96.94 182.451 97.69 182.451 98.59C182.451 99.59 182.831 100.39 183.591 100.99C184.351 101.59 185.421 101.89 186.801 101.89C188.121 101.89 189.231 101.59 190.131 100.99C191.051 100.39 191.731 99.52 192.171 98.38L192.591 99.4C192.171 100.54 191.451 101.45 190.431 102.13C189.431 102.79 188.151 103.12 186.591 103.12ZM199.765 103V87.34H206.365C208.085 87.34 209.445 87.68 210.445 88.36C211.445 89.04 211.945 90.03 211.945 91.33C211.945 92.61 211.455 93.58 210.475 94.24C209.515 94.9 208.265 95.23 206.725 95.23L207.145 94.78C208.985 94.78 210.335 95.12 211.195 95.8C212.055 96.48 212.485 97.48 212.485 98.8C212.485 100.14 211.995 101.18 211.015 101.92C210.055 102.64 208.565 103 206.545 103H199.765ZM201.235 101.77H206.515C207.975 101.77 209.085 101.53 209.845 101.05C210.605 100.57 210.985 99.8 210.985 98.74C210.985 97.66 210.645 96.88 209.965 96.4C209.305 95.9 208.235 95.65 206.755 95.65H201.235V101.77ZM201.235 94.48H206.275C207.595 94.48 208.615 94.23 209.335 93.73C210.075 93.23 210.445 92.49 210.445 91.51C210.445 90.53 210.075 89.8 209.335 89.32C208.615 88.82 207.595 88.57 206.275 88.57H201.235V94.48Z" fill="white"/>
</svg>
