<svg width="473" height="149" viewBox="0 0 473 149" fill="none" xmlns="http://www.w3.org/2000/svg">
<path d="M470.674 74.729C470.674 84.2492 464.518 93.5926 452.734 102.328C440.98 111.043 423.874 118.954 402.602 125.624C360.076 138.958 301.234 147.229 236.174 147.229C171.113 147.229 112.272 138.958 69.7454 125.624C48.4735 118.954 31.3681 111.043 19.6132 102.328C7.82964 93.5926 1.67383 84.2492 1.67383 74.729C1.67383 65.2088 7.82964 55.8654 19.6132 47.1299C31.3681 38.4155 48.4735 30.5044 69.7454 23.8344C112.272 10.4999 171.113 2.229 236.174 2.229C301.234 2.229 360.076 10.4999 402.602 23.8344C423.874 30.5044 440.98 38.4155 452.734 47.1299C464.518 55.8654 470.674 65.2088 470.674 74.729Z" fill="white" stroke="black" stroke-width="3"/>
<path d="M95.6589 72.5466V51.5466H108.649V52.9266H96.7389L97.1889 52.4466V72.5466H95.6589ZM113.722 72.6666C112.222 72.6666 110.882 72.3266 109.702 71.6466C108.542 70.9666 107.612 70.0266 106.912 68.8266C106.232 67.6266 105.892 66.2566 105.892 64.7166C105.892 63.1566 106.232 61.7866 106.912 60.6066C107.612 59.4066 108.542 58.4666 109.702 57.7866C110.882 57.1066 112.222 56.7666 113.722 56.7666C115.222 56.7666 116.562 57.1066 117.742 57.7866C118.922 58.4666 119.852 59.4066 120.532 60.6066C121.212 61.7866 121.552 63.1566 121.552 64.7166C121.552 66.2566 121.212 67.6266 120.532 68.8266C119.852 70.0266 118.922 70.9666 117.742 71.6466C116.562 72.3266 115.222 72.6666 113.722 72.6666ZM113.722 71.3166C114.922 71.3166 116.002 71.0466 116.962 70.5066C117.922 69.9466 118.672 69.1666 119.212 68.1666C119.752 67.1666 120.022 66.0166 120.022 64.7166C120.022 63.3966 119.752 62.2466 119.212 61.2666C118.672 60.2666 117.922 59.4966 116.962 58.9566C116.002 58.3966 114.922 58.1166 113.722 58.1166C112.522 58.1166 111.442 58.3966 110.482 58.9566C109.542 59.4966 108.792 60.2666 108.232 61.2666C107.692 62.2466 107.422 63.3966 107.422 64.7166C107.422 66.0166 107.692 67.1666 108.232 68.1666C108.792 69.1666 109.542 69.9466 110.482 70.5066C111.442 71.0466 112.522 71.3166 113.722 71.3166ZM137.089 71.8266V58.2366H128.929L128.749 62.1366C128.709 63.2366 128.639 64.3366 128.539 65.4366C128.439 66.5166 128.279 67.5166 128.059 68.4366C127.839 69.3366 127.529 70.0666 127.129 70.6266C126.749 71.1866 126.249 71.4966 125.629 71.5566L124.129 71.2266C124.769 71.2666 125.289 71.0366 125.689 70.5366C126.089 70.0166 126.399 69.3166 126.619 68.4366C126.839 67.5566 126.999 66.5666 127.099 65.4666C127.219 64.3466 127.309 63.2066 127.369 62.0466L127.579 56.8866H138.589V71.8266H137.089ZM123.439 76.4466V71.2266H141.109V76.4466H139.699V72.5466H124.879V76.4466H123.439ZM151.779 72.6666C150.279 72.6666 148.939 72.3266 147.759 71.6466C146.599 70.9666 145.669 70.0266 144.969 68.8266C144.289 67.6266 143.949 66.2566 143.949 64.7166C143.949 63.1566 144.289 61.7866 144.969 60.6066C145.669 59.4066 146.599 58.4666 147.759 57.7866C148.939 57.1066 150.279 56.7666 151.779 56.7666C153.279 56.7666 154.619 57.1066 155.799 57.7866C156.979 58.4666 157.909 59.4066 158.589 60.6066C159.269 61.7866 159.609 63.1566 159.609 64.7166C159.609 66.2566 159.269 67.6266 158.589 68.8266C157.909 70.0266 156.979 70.9666 155.799 71.6466C154.619 72.3266 153.279 72.6666 151.779 72.6666ZM151.779 71.3166C152.979 71.3166 154.059 71.0466 155.019 70.5066C155.979 69.9466 156.729 69.1666 157.269 68.1666C157.809 67.1666 158.079 66.0166 158.079 64.7166C158.079 63.3966 157.809 62.2466 157.269 61.2666C156.729 60.2666 155.979 59.4966 155.019 58.9566C154.059 58.3966 152.979 58.1166 151.779 58.1166C150.579 58.1166 149.499 58.3966 148.539 58.9566C147.599 59.4966 146.849 60.2666 146.289 61.2666C145.749 62.2466 145.479 63.3966 145.479 64.7166C145.479 66.0166 145.749 67.1666 146.289 68.1666C146.849 69.1666 147.599 69.9466 148.539 70.5066C149.499 71.0466 150.579 71.3166 151.779 71.3166ZM164.494 72.5466V56.8866H171.094C172.814 56.8866 174.174 57.2266 175.174 57.9066C176.174 58.5866 176.674 59.5766 176.674 60.8766C176.674 62.1566 176.184 63.1266 175.204 63.7866C174.244 64.4466 172.994 64.7766 171.454 64.7766L171.874 64.3266C173.714 64.3266 175.064 64.6666 175.924 65.3466C176.784 66.0266 177.214 67.0266 177.214 68.3466C177.214 69.6866 176.724 70.7266 175.744 71.4666C174.784 72.1866 173.294 72.5466 171.274 72.5466H164.494ZM165.964 71.3166H171.244C172.704 71.3166 173.814 71.0766 174.574 70.5966C175.334 70.1166 175.714 69.3466 175.714 68.2866C175.714 67.2066 175.374 66.4266 174.694 65.9466C174.034 65.4466 172.964 65.1966 171.484 65.1966H165.964V71.3166ZM165.964 64.0266H171.004C172.324 64.0266 173.344 63.7766 174.064 63.2766C174.804 62.7766 175.174 62.0366 175.174 61.0566C175.174 60.0766 174.804 59.3466 174.064 58.8666C173.344 58.3666 172.324 58.1166 171.004 58.1166H165.964V64.0266ZM192.321 72.5466V68.9766L192.261 68.4366V62.5566C192.261 61.0966 191.861 59.9866 191.061 59.2266C190.281 58.4666 189.131 58.0866 187.611 58.0866C186.531 58.0866 185.521 58.2766 184.581 58.6566C183.661 59.0166 182.871 59.4866 182.211 60.0666L181.461 58.9866C182.241 58.2866 183.181 57.7466 184.281 57.3666C185.381 56.9666 186.531 56.7666 187.731 56.7666C189.671 56.7666 191.161 57.2566 192.201 58.2366C193.241 59.2166 193.761 60.6766 193.761 62.6166V72.5466H192.321ZM186.681 72.6666C185.521 72.6666 184.511 72.4866 183.651 72.1266C182.811 71.7466 182.161 71.2166 181.701 70.5366C181.261 69.8566 181.041 69.0766 181.041 68.1966C181.041 67.3966 181.221 66.6766 181.581 66.0366C181.961 65.3766 182.581 64.8466 183.441 64.4466C184.301 64.0266 185.451 63.8166 186.891 63.8166H192.651V64.9866H186.921C185.301 64.9866 184.161 65.2866 183.501 65.8866C182.861 66.4866 182.541 67.2366 182.541 68.1366C182.541 69.1366 182.921 69.9366 183.681 70.5366C184.441 71.1366 185.511 71.4366 186.891 71.4366C188.211 71.4366 189.321 71.1366 190.221 70.5366C191.141 69.9366 191.821 69.0666 192.261 67.9266L192.681 68.9466C192.261 70.0866 191.541 70.9966 190.521 71.6766C189.521 72.3366 188.241 72.6666 186.681 72.6666ZM210.025 72.5466V66.7866L210.355 67.1466H204.805C202.845 67.1466 201.315 66.7266 200.215 65.8866C199.135 65.0266 198.595 63.7666 198.595 62.1066C198.595 60.3466 199.185 59.0366 200.365 58.1766C201.545 57.3166 203.105 56.8866 205.045 56.8866H211.405V72.5466H210.025ZM198.505 72.5466L202.855 66.5166H204.445L200.155 72.5466H198.505ZM210.025 66.3666V57.7566L210.355 58.2066H205.135C203.535 58.2066 202.295 58.5166 201.415 59.1366C200.535 59.7566 200.095 60.7666 200.095 62.1666C200.095 64.7266 201.715 66.0066 204.955 66.0066H210.355L210.025 66.3666ZM225.578 72.5466V56.8866H239.258V72.5466H237.758V57.7866L238.178 58.2366H226.658L227.078 57.7866V72.5466H225.578ZM251.974 72.6666C250.474 72.6666 249.134 72.3266 247.954 71.6466C246.794 70.9666 245.864 70.0266 245.164 68.8266C244.484 67.6266 244.144 66.2566 244.144 64.7166C244.144 63.1566 244.484 61.7866 245.164 60.6066C245.864 59.4066 246.794 58.4666 247.954 57.7866C249.134 57.1066 250.474 56.7666 251.974 56.7666C253.474 56.7666 254.814 57.1066 255.994 57.7866C257.174 58.4666 258.104 59.4066 258.784 60.6066C259.464 61.7866 259.804 63.1566 259.804 64.7166C259.804 66.2566 259.464 67.6266 258.784 68.8266C258.104 70.0266 257.174 70.9666 255.994 71.6466C254.814 72.3266 253.474 72.6666 251.974 72.6666ZM251.974 71.3166C253.174 71.3166 254.254 71.0466 255.214 70.5066C256.174 69.9466 256.924 69.1666 257.464 68.1666C258.004 67.1666 258.274 66.0166 258.274 64.7166C258.274 63.3966 258.004 62.2466 257.464 61.2666C256.924 60.2666 256.174 59.4966 255.214 58.9566C254.254 58.3966 253.174 58.1166 251.974 58.1166C250.774 58.1166 249.694 58.3966 248.734 58.9566C247.794 59.4966 247.044 60.2666 246.484 61.2666C245.944 62.2466 245.674 63.3966 245.674 64.7166C245.674 66.0166 245.944 67.1666 246.484 68.1666C247.044 69.1666 247.794 69.9466 248.734 70.5066C249.694 71.0466 250.774 71.3166 251.974 71.3166ZM275.341 71.8266V58.2366H267.181L267.001 62.1366C266.961 63.2366 266.891 64.3366 266.791 65.4366C266.691 66.5166 266.531 67.5166 266.311 68.4366C266.091 69.3366 265.781 70.0666 265.381 70.6266C265.001 71.1866 264.501 71.4966 263.881 71.5566L262.381 71.2266C263.021 71.2666 263.541 71.0366 263.941 70.5366C264.341 70.0166 264.651 69.3166 264.871 68.4366C265.091 67.5566 265.251 66.5666 265.351 65.4666C265.471 64.3466 265.561 63.2066 265.621 62.0466L265.831 56.8866H276.841V71.8266H275.341ZM261.691 76.4466V71.2266H279.361V76.4466H277.951V72.5466H263.131V76.4466H261.691ZM283.791 72.5466V56.8866H297.471V72.5466H295.971V57.7866L296.391 58.2366H284.871L285.291 57.7866V72.5466H283.791ZM303.947 72.5466V56.8866H305.447V70.2366L316.607 56.8866H317.927V72.5466H316.427V59.1966L305.267 72.5466H303.947ZM330.726 72.6666C329.206 72.6666 327.846 72.3266 326.646 71.6466C325.466 70.9666 324.526 70.0266 323.826 68.8266C323.146 67.6266 322.806 66.2566 322.806 64.7166C322.806 63.1566 323.146 61.7766 323.826 60.5766C324.526 59.3766 325.466 58.4466 326.646 57.7866C327.846 57.1066 329.206 56.7666 330.726 56.7666C331.986 56.7666 333.126 57.0066 334.146 57.4866C335.186 57.9666 336.026 58.6866 336.666 59.6466L335.556 60.4566C334.996 59.6566 334.296 59.0666 333.456 58.6866C332.616 58.3066 331.706 58.1166 330.726 58.1166C329.506 58.1166 328.406 58.3966 327.426 58.9566C326.466 59.4966 325.706 60.2666 325.146 61.2666C324.606 62.2466 324.336 63.3966 324.336 64.7166C324.336 66.0366 324.606 67.1966 325.146 68.1966C325.706 69.1766 326.466 69.9466 327.426 70.5066C328.406 71.0466 329.506 71.3166 330.726 71.3166C331.706 71.3166 332.616 71.1266 333.456 70.7466C334.296 70.3666 334.996 69.7766 335.556 68.9766L336.666 69.7866C336.026 70.7466 335.186 71.4666 334.146 71.9466C333.126 72.4266 331.986 72.6666 330.726 72.6666ZM352.645 72.5466L345.925 64.7166L347.185 63.9966L354.445 72.5466H352.645ZM341.095 72.5466V56.8866H342.595V72.5466H341.095ZM342.115 65.2866V63.9966H347.035V65.2866H342.115ZM347.275 64.8666L345.895 64.6266L352.315 56.8866H353.965L347.275 64.8666ZM367.633 72.5466V68.9766L367.573 68.4366V62.5566C367.573 61.0966 367.173 59.9866 366.373 59.2266C365.593 58.4666 364.443 58.0866 362.923 58.0866C361.843 58.0866 360.833 58.2766 359.893 58.6566C358.973 59.0166 358.183 59.4866 357.523 60.0666L356.773 58.9866C357.553 58.2866 358.493 57.7466 359.593 57.3666C360.693 56.9666 361.843 56.7666 363.043 56.7666C364.983 56.7666 366.473 57.2566 367.513 58.2366C368.553 59.2166 369.073 60.6766 369.073 62.6166V72.5466H367.633ZM361.993 72.6666C360.833 72.6666 359.823 72.4866 358.963 72.1266C358.123 71.7466 357.473 71.2166 357.013 70.5366C356.573 69.8566 356.353 69.0766 356.353 68.1966C356.353 67.3966 356.533 66.6766 356.893 66.0366C357.273 65.3766 357.893 64.8466 358.753 64.4466C359.613 64.0266 360.763 63.8166 362.203 63.8166H367.963V64.9866H362.233C360.613 64.9866 359.473 65.2866 358.813 65.8866C358.173 66.4866 357.853 67.2366 357.853 68.1366C357.853 69.1366 358.233 69.9366 358.993 70.5366C359.753 71.1366 360.823 71.4366 362.203 71.4366C363.523 71.4366 364.633 71.1366 365.533 70.5366C366.453 69.9366 367.133 69.0666 367.573 67.9266L367.993 68.9466C367.573 70.0866 366.853 70.9966 365.833 71.6766C364.833 72.3366 363.553 72.6666 361.993 72.6666ZM193.905 102.167V100.817H201.615V102.167H193.905ZM211.631 109.697C210.111 109.697 208.681 109.437 207.341 108.917C206.021 108.397 204.991 107.717 204.251 106.877L205.031 105.707C205.671 106.447 206.571 107.067 207.731 107.567C208.891 108.047 210.181 108.287 211.601 108.287C213.541 108.287 215.001 107.847 215.981 106.967C216.961 106.087 217.451 104.947 217.451 103.547C217.451 102.547 217.221 101.687 216.761 100.967C216.301 100.247 215.521 99.6966 214.421 99.3166C213.321 98.9166 211.821 98.7166 209.921 98.7166H205.661L206.771 88.5466H217.901V89.9266H207.401L208.151 89.2066L207.161 98.1166L206.441 97.3366H210.251C212.391 97.3366 214.091 97.5966 215.351 98.1166C216.631 98.6166 217.551 99.3266 218.111 100.247C218.691 101.167 218.981 102.247 218.981 103.487C218.981 104.647 218.711 105.697 218.171 106.637C217.631 107.577 216.811 108.327 215.711 108.887C214.631 109.427 213.271 109.697 211.631 109.697ZM230.069 109.697C228.469 109.697 227.049 109.267 225.809 108.407C224.569 107.547 223.599 106.327 222.899 104.747C222.199 103.147 221.849 101.247 221.849 99.0466C221.849 96.8466 222.199 94.9566 222.899 93.3766C223.599 91.7766 224.569 90.5466 225.809 89.6866C227.049 88.8266 228.469 88.3966 230.069 88.3966C231.689 88.3966 233.109 88.8266 234.329 89.6866C235.569 90.5466 236.539 91.7766 237.239 93.3766C237.939 94.9566 238.289 96.8466 238.289 99.0466C238.289 101.247 237.939 103.147 237.239 104.747C236.539 106.327 235.569 107.547 234.329 108.407C233.109 109.267 231.689 109.697 230.069 109.697ZM230.069 108.287C231.409 108.287 232.579 107.927 233.579 107.207C234.579 106.467 235.359 105.407 235.919 104.027C236.479 102.647 236.759 100.987 236.759 99.0466C236.759 97.0866 236.479 95.4266 235.919 94.0666C235.359 92.6866 234.579 91.6366 233.579 90.9166C232.579 90.1766 231.409 89.8066 230.069 89.8066C228.749 89.8066 227.579 90.1766 226.559 90.9166C225.559 91.6366 224.779 92.6866 224.219 94.0666C223.659 95.4266 223.379 97.0866 223.379 99.0466C223.379 100.987 223.659 102.647 224.219 104.027C224.779 105.407 225.559 106.467 226.559 107.207C227.579 107.927 228.749 108.287 230.069 108.287ZM244.385 109.547L258.725 88.5466H260.015L245.675 109.547H244.385ZM245.915 99.7666C245.015 99.7666 244.215 99.5366 243.515 99.0766C242.815 98.5966 242.265 97.9366 241.865 97.0966C241.485 96.2366 241.295 95.2366 241.295 94.0966C241.295 92.9566 241.485 91.9666 241.865 91.1266C242.265 90.2666 242.815 89.6066 243.515 89.1466C244.215 88.6666 245.015 88.4266 245.915 88.4266C246.835 88.4266 247.645 88.6666 248.345 89.1466C249.045 89.6066 249.585 90.2666 249.965 91.1266C250.365 91.9666 250.565 92.9566 250.565 94.0966C250.565 95.2366 250.365 96.2366 249.965 97.0966C249.585 97.9366 249.045 98.5966 248.345 99.0766C247.645 99.5366 246.835 99.7666 245.915 99.7666ZM245.915 98.7466C246.975 98.7466 247.825 98.3366 248.465 97.5166C249.105 96.6966 249.425 95.5566 249.425 94.0966C249.425 92.6366 249.105 91.4966 248.465 90.6766C247.825 89.8566 246.975 89.4466 245.915 89.4466C244.875 89.4466 244.035 89.8566 243.395 90.6766C242.755 91.4966 242.435 92.6366 242.435 94.0966C242.435 95.5366 242.755 96.6766 243.395 97.5166C244.035 98.3366 244.875 98.7466 245.915 98.7466ZM258.485 109.667C257.585 109.667 256.775 109.437 256.055 108.977C255.355 108.497 254.805 107.837 254.405 106.997C254.025 106.137 253.835 105.137 253.835 103.997C253.835 102.857 254.025 101.867 254.405 101.027C254.805 100.167 255.355 99.5066 256.055 99.0466C256.775 98.5666 257.585 98.3266 258.485 98.3266C259.405 98.3266 260.205 98.5666 260.885 99.0466C261.585 99.5066 262.125 100.167 262.505 101.027C262.905 101.867 263.105 102.857 263.105 103.997C263.105 105.137 262.905 106.137 262.505 106.997C262.125 107.837 261.585 108.497 260.885 108.977C260.205 109.437 259.405 109.667 258.485 109.667ZM258.485 108.647C259.525 108.647 260.365 108.237 261.005 107.417C261.645 106.577 261.965 105.437 261.965 103.997C261.965 102.557 261.645 101.427 261.005 100.607C260.365 99.7666 259.525 99.3466 258.485 99.3466C257.425 99.3466 256.575 99.7566 255.935 100.577C255.295 101.397 254.975 102.537 254.975 103.997C254.975 105.457 255.295 106.597 255.935 107.417C256.575 108.237 257.425 108.647 258.485 108.647Z" fill="black"/>
</svg>
