<svg width="1401" height="302" viewBox="0 0 1401 302" fill="none" xmlns="http://www.w3.org/2000/svg">
<path fill-rule="evenodd" clip-rule="evenodd" d="M1401 72.2244C1373.83 28.9029 1324.91 0 1269.09 0V63.5463C1241.78 26.0611 1197.38 1.2805 1147 0.0481873V0H1143.06H1089.05H1089V0.0527344L949.621 139.432L810.441 0.251953V0H810.189H756V119.229C741.078 51.1666 679.201 0.115479 605.094 0H604.842H550.652V123.6L427.053 0L302.643 124.41V0H248.586H244.643V0.0481873C189.715 1.39165 141.9 30.7233 115.586 73.9921V0C69.6074 0 28.3164 19.608 0 50.7304V251.27C28.3164 282.392 69.6074 302 115.586 302V228.008C141.9 271.277 189.715 300.608 244.643 301.952V302H248.586H302.643V177.59L427.053 302L550.652 178.4V302H604.842H605.094C679.201 301.885 741.078 250.833 756 182.771V302H810.189H810.441V301.748L949.621 162.568L1089 301.947V302H1089.05H1143.06H1147V301.952C1197.38 300.72 1241.78 275.939 1269.09 238.454V302C1324.91 302 1373.83 273.097 1401 229.776V72.2244Z" fill="black"/>
</svg>
