<svg width="1401" height="302" viewBox="0 0 1401 302" fill="none" xmlns="http://www.w3.org/2000/svg">
<path fill-rule="evenodd" clip-rule="evenodd" d="M1401 6.23663C1358.73 18.508 1324.03 47.9638 1305.39 86.3127V0H1250.95L1111.52 139.431L972.335 0.250977V0H972.084H917.895V95.2153C895.207 39.5041 839.547 0.101577 774.451 0.00019609V0H774.2H720.011V123.601L596.41 0L472 124.41V0H417.943H414V0.0481638C363.615 1.28034 319.218 26.0606 291.908 63.5453V0C226.706 0 170.933 39.43 148.215 95.2105V0H94.0254H93.7744V0.251007L0 94.0254V207.975L93.7744 301.749V302H94.0254H148.215V206.789C170.933 262.57 226.706 302 291.908 302V238.455C319.218 275.939 363.615 300.72 414 301.952V302H417.943H472V177.59L596.41 302L720.011 178.399V302H774.2H774.451C839.547 301.899 895.207 262.496 917.895 206.785V302H972.084H972.335V301.749L1111.52 162.569L1250.95 302H1305.39V215.687C1324.03 254.036 1358.73 283.492 1401 295.763V6.23663Z" fill="black"/>
</svg>
