<svg width="395" height="118" viewBox="0 0 395 118" fill="none" xmlns="http://www.w3.org/2000/svg">
<path fill-rule="evenodd" clip-rule="evenodd" d="M0 97.5885L19.334 116.923V117.02H19.4316H40.4297V80.1254C49.2305 101.74 70.8438 117.02 96.1094 117.02V92.3961C106.689 106.921 123.895 116.524 143.418 117.001V117.02H144.945H165.891V68.813L214.098 117.02L261.992 69.1265V117.02H282.988H283.086C308.311 116.98 329.879 101.711 338.67 80.1223V117.02H359.666H359.764V116.923L395 81.686V35.3339L359.764 0.09729V0H359.666H338.67V36.8976C329.879 15.3089 308.311 0.0395508 283.086 0H282.988H261.992V47.8935L214.098 0L165.891 48.2069V0H144.945H143.418V0.0186768C123.895 0.496277 106.689 10.0986 96.1094 24.6238V0C70.8438 0 49.2305 15.2795 40.4297 36.8945V0H19.4316H19.334V0.097229L0 19.4315V97.5885Z" fill="black"/>
</svg>
