<svg width="1401" height="302" viewBox="0 0 1401 302" fill="none" xmlns="http://www.w3.org/2000/svg">
<path fill-rule="evenodd" clip-rule="evenodd" d="M1401 49.916L1351.34 0.251953V0H1351.08H1296.89V95.2176C1274.21 39.5052 1218.55 0.10144 1153.45 0H1153.2H1099.01V123.6L975.41 0L851 124.41V0H796.943H793V0.0481567C742.617 1.28046 698.217 26.0611 670.908 63.5463V0C605.707 0 549.932 39.4312 527.215 95.213V0H473.025H472.773V0.251953L333.594 139.432L194.162 0H139.723V86.3126C114.918 35.2828 61.6777 0 0 0V302C61.6777 302 114.918 266.717 139.723 215.687V302H194.162L333.594 162.568L472.773 301.748V302H473.025H527.215V206.787C549.932 262.569 605.707 302 670.908 302V238.454C698.217 275.939 742.617 300.72 793 301.952V302H796.943H851V177.59L975.41 302L1099.01 178.4V302H1153.2H1153.45C1218.55 301.899 1274.21 262.495 1296.89 206.782V302H1351.08H1351.34V301.748L1401 252.084V49.916Z" fill="black"/>
</svg>
