<svg width="395" height="118" viewBox="0 0 395 118" fill="none" xmlns="http://www.w3.org/2000/svg">
<path fill-rule="evenodd" clip-rule="evenodd" d="M395 17.043L377.957 0L329.75 48.2068V0H308.805H307.275V0.0186768C287.752 0.496399 270.549 10.0988 259.967 24.6239V0C234.701 6.10352e-05 213.09 15.2789 204.287 36.8934V0H183.291H183.193V0.097168L129.264 54.0274L75.2363 0H54.1406V33.4457C44.5293 13.672 23.8984 0 0 0V117.02C23.8984 117.02 44.5293 103.348 54.1406 83.5743V117.02H75.2363L129.264 62.9926L183.193 116.923V117.02H183.291H204.287V80.1266C213.09 101.741 234.701 117.02 259.967 117.02V92.3961C270.549 106.921 287.752 116.524 307.275 117.001V117.02H308.805H329.75V68.8131L377.957 117.02L395 99.9769V17.043Z" fill="black"/>
</svg>
