<svg width="395" height="118" viewBox="0 0 395 118" fill="none" xmlns="http://www.w3.org/2000/svg">
<path fill-rule="evenodd" clip-rule="evenodd" d="M0 112.419C6.72461 115.199 14.0781 116.813 21.7949 117.001V117.02H23.3223H44.2676V68.8131L92.4746 117.02L140.367 69.1272V117.02H161.365H161.463C190.178 116.975 214.154 97.1938 219.938 70.8208V117.02H240.934H241.031V116.923L294.963 62.9926L348.969 117V117.02H348.99H369.916H371.443V117.001C379.838 116.796 387.805 114.903 395 111.658V5.36237C387.805 2.11655 379.838 0.223938 371.443 0.0186768V0H369.916H348.99H348.969V0.0204163L294.963 54.0275L241.031 0.0973206V0H240.934H219.938V46.1992C214.154 19.8262 190.178 0.0447388 161.463 0H161.365H140.367V47.8928L92.4746 0L44.2676 48.2069V0H23.3223H21.7949V0.0186768C14.0781 0.207336 6.72461 1.82114 0 4.60071V112.419Z" fill="black"/>
</svg>
